<?xml version="1.0" standalone="no"?>
<!DOCTYPE svg PUBLIC "-//W3C//DTD SVG 1.1//EN" "http://www.w3.org/Graphics/SVG/1.1/DTD/svg11.dtd" >
<svg xmlns="http://www.w3.org/2000/svg">
<metadata></metadata>
<defs>
<font id="amazing_groteskitalic" horiz-adv-x="1355" >
<font-face units-per-em="2048" ascent="1638" descent="-410" />
<missing-glyph horiz-adv-x="565" />
<glyph horiz-adv-x="0" />
<glyph horiz-adv-x="0" />
<glyph unicode="&#xd;" horiz-adv-x="565" />
<glyph unicode=" "  horiz-adv-x="565" />
<glyph unicode="&#x09;" horiz-adv-x="565" />
<glyph unicode="&#xa0;" horiz-adv-x="565" />
<glyph unicode="!" horiz-adv-x="616" d="M205 86q10 51 47 77.5t84 26.5t75.5 -26.5t18.5 -77.5t-47 -77.5t-84 -26.5t-75.5 26.5t-18.5 77.5zM289 385l211 1196h137l-193 -1087h64l-19 -109h-200z" />
<glyph unicode="&#x22;" horiz-adv-x="497" d="M324 1147l22 358h127l-63 -358h-86zM492 1147l63 358h121l-105 -358h-79z" />
<glyph unicode="#" horiz-adv-x="1566" d="M174 451l19 96h311l184 389h-289l17 96h319q49 104 101.5 210t103.5 212h125l-205 -422h365q49 104 101 210t101 212h127l-204 -422h307l-17 -96h-337l-189 -389h320l-19 -96h-348l-217 -451h-119q53 113 106.5 225.5t108.5 225.5h-368q-53 -113 -108.5 -225.5 t-109.5 -225.5h-118q53 113 106 225.5t109 225.5h-283zM625 547h368l185 389h-365z" />
<glyph unicode="$" horiz-adv-x="1286" d="M143 45l68 289h115l-33 -184q31 -8 68.5 -15.5t78.5 -13.5t82 -9t76 -3q70 0 153 14t156.5 45t128 82t66.5 125q14 84 -13.5 139t-80 90t-121 55.5t-135.5 36.5q-238 47 -335.5 151.5t-68.5 276.5q16 94 67.5 162t130.5 111t182 62.5t224 19.5q86 0 184.5 -13.5 t239.5 -56.5l-78 -270q-27 0 -53 1t-53 1l25 172q-70 23 -146 34t-129 11q-74 0 -148.5 -10.5t-137 -37t-107.5 -71.5t-57 -115q-12 -66 6 -114.5t62 -83.5t113.5 -60.5t160.5 -46.5q43 -10 95 -20.5t104 -28.5t99.5 -48t79 -76t45 -111.5t-3.5 -157.5q-16 -94 -72.5 -168 t-140.5 -125t-190.5 -79t-222.5 -28q-98 0 -225.5 12.5t-258.5 55.5zM549 -147l307 1746h135l-307 -1746h-135z" />
<glyph unicode="%" horiz-adv-x="1398" d="M172 0q291 365 578.5 726t578.5 728h148q-293 -367 -584 -727t-582 -727h-139zM274.5 936q-12.5 51 4.5 137l24 137q14 88 45 140.5t72 79t90 33.5t100 7t96.5 -8t76 -35.5t42 -80t-5.5 -140.5l-22 -133q-16 -88 -47 -139t-71 -78t-87 -35t-96 -8q-53 0 -99.5 8t-78 36 t-44 79zM376 990q5 -32 22.5 -50t45 -24.5t64.5 -6.5q74 0 121 31t65 133l25 139q8 51 4 84t-21.5 51.5t-46 24.5t-65.5 6q-74 0 -120 -31.5t-64 -132.5l-25 -143q-10 -49 -5 -81zM820 116q-11 50 3 136l25 137q14 88 45 139.5t72 78t89 33.5t99 7t96 -8t76 -34.5t42 -79 t-3 -140.5l-25 -133q-16 -88 -45.5 -139.5t-69.5 -78t-87 -33.5t-99 -7q-53 0 -99 8t-77 36t-42 78zM926 250q-16 -100 18.5 -131t108.5 -31t121 29.5t65 134.5l25 139q8 51 3 84t-21.5 51.5t-45.5 24.5t-65 6q-74 0 -120 -31.5t-65 -132.5z" />
<glyph unicode="&#x26;" horiz-adv-x="1695" d="M170 412q29 166 113 252t213 120q-78 31 -122 101.5t-22 201.5q23 127 86.5 202t146.5 114t172 50t161 11q51 0 99 -5t99 -16t109.5 -27.5t130.5 -39.5l-72 -301q-29 4 -53.5 6t-52.5 4q10 51 18 98.5t18 94.5q-33 18 -72.5 29.5t-81.5 18.5t-80 10t-67 3 q-76 0 -146.5 -7t-126.5 -31.5t-97 -74.5t-56 -136q-14 -78 5.5 -127.5t57.5 -79t89 -43t104.5 -17.5t101.5 -3t81 -1l-49 -110h-125q-76 0 -149 -11.5t-133 -44t-102 -91t-59 -152.5q-16 -86 22 -146.5t101.5 -98.5t141 -55.5t145.5 -17.5q135 0 246.5 26.5t195.5 51.5 l41 14q2 33 5 72t14 88l28 166h-209l60 125h291q94 0 157.5 -10.5t103.5 -24.5t59.5 -30.5t25.5 -26.5l-37 -74l-76 18q-33 8 -77 13.5t-99 7.5h-31.5t-32.5 2q-20 -121 -31.5 -206t-14.5 -144.5t0 -97t14 -64.5l-99 -41q-14 10 -30.5 34.5t-22.5 78.5q-92 -33 -218 -63 t-282 -30q-98 0 -200.5 24t-182 75t-123.5 134t-24 202z" />
<glyph unicode="'" horiz-adv-x="323" d="M317 1147l33 358h142l-95 -358h-80z" />
<glyph unicode="(" horiz-adv-x="538" d="M205 309.5q8 184.5 49 421.5q43 240 96 420t120 311t144.5 219t167.5 144q8 -8 27.5 -28.5t28.5 -31.5q-61 -49 -125 -138t-121 -219t-106.5 -299t-86.5 -376q-35 -199 -46 -371t-1 -308t43 -233t86 -147l-80 -61q-68 55 -114.5 147.5t-68 228.5t-13.5 320.5z" />
<glyph unicode=")" horiz-adv-x="501" d="M-61 -324q70 49 136 143.5t124.5 229.5t107.5 306t84 372q35 195 44 362.5t-3 302t-43 229.5t-74 144l80 60q70 -55 116 -143.5t65.5 -219.5t10.5 -311t-52 -420q-41 -238 -98.5 -422t-126 -320t-148.5 -227.5t-168 -146.5z" />
<glyph unicode="*" horiz-adv-x="940" d="M180 438l269 142q-55 35 -110 69.5t-110 69.5l36 46t34 46l215 -139l49 276h111l-49 -276l268 141l37 -92l-271 -141l220 -142l-72 -92q-53 35 -107.5 70t-107.5 69l-49 -276h-111l49 276q-66 -35 -131 -69.5t-131 -69.5q-10 23 -19.5 46.5t-19.5 45.5z" />
<glyph unicode="+" horiz-adv-x="927" d="M211 537l18 110h275l47 271l121 16l-51 -287h280l-18 -110h-281l-49 -277l-119 -14l51 291h-274z" />
<glyph unicode="," horiz-adv-x="423" d="M74 -205q37 27 59.5 50.5t36.5 45t22.5 44t12.5 47.5q-47 2 -73.5 27.5t-16.5 76.5t47 77.5t84 26.5q35 0 59.5 -13t28.5 -48q6 -10 5 -39t-5 -45q-16 -92 -70.5 -170t-165.5 -131z" />
<glyph unicode="-" horiz-adv-x="858" d="M207 528l20 119h609l-21 -119h-608z" />
<glyph unicode="." horiz-adv-x="497" d="M152 86q10 51 47 77.5t84 26.5t75.5 -26.5t18.5 -77.5t-47 -77.5t-84 -26.5t-75.5 26.5t-18.5 77.5z" />
<glyph unicode="/" horiz-adv-x="784" d="M27 -264l878 1843h146l-887 -1843h-137z" />
<glyph unicode="0" d="M206.5 292q-18.5 124 16.5 324l35 207q37 213 103.5 342t154.5 198t194.5 90.5t223.5 21.5q113 0 207 -26t153.5 -96.5t78 -197.5t-16.5 -330l-37 -209q-37 -203 -102.5 -327.5t-151.5 -193t-189.5 -93.5t-216.5 -25h-12q-117 0 -210 25t-152.5 95.5t-78 194.5z M349 334.5q18 -101.5 66 -155.5t116.5 -69.5t142.5 -15.5h6q68 0 141.5 14.5t142 66.5t124 152.5t86.5 270.5l43 242q31 170 13 272t-64 157.5t-114.5 73t-142.5 17.5h-8q-80 0 -156.5 -17.5t-142 -71.5t-117 -155.5t-82.5 -269.5l-41 -238q-31 -172 -13 -273.5z" />
<glyph unicode="1" horiz-adv-x="731" d="M121 0l20 117h170l213 1218h-198l22 119h338l-235 -1337h170l-21 -117h-479z" />
<glyph unicode="2" horiz-adv-x="1296" d="M98 0l21 121l764 614q78 63 135 110.5t96 88.5t61.5 81t32.5 89q14 78 -8 125t-68.5 72.5t-112 33.5t-138.5 8q-33 0 -78 -4t-94.5 -14t-101.5 -25.5t-101 -37.5q-8 -47 -15.5 -97.5t-15.5 -99.5l-110 -18q6 76 13 150.5t11 148.5q160 59 287 93t219 34q72 0 161 -9.5 t161.5 -45.5t113.5 -108.5t19 -199.5l-2 -14q-12 -74 -48 -132.5t-92.5 -114.5t-134.5 -116.5t-176 -138.5l-596 -473h825q14 51 23.5 101t19.5 108h103l-58 -330h-1116z" />
<glyph unicode="3" horiz-adv-x="1239" d="M104 78l68 108q37 -16 80 -32.5t95 -29.5t114.5 -22.5t140.5 -9.5q66 0 144.5 17.5t150.5 56.5t125 99.5t70 144.5q14 88 -6.5 146t-67.5 93t-115.5 49.5t-150.5 14.5h-121l-6 108h133q70 0 134 10.5t116.5 40t90.5 80.5t52 135q14 86 -6.5 135.5t-67.5 76t-112.5 33.5 t-139.5 7h-8q-66 0 -157 -14t-168 -45q-10 -49 -16.5 -96t-16.5 -97l-113 -12q10 76 19.5 152t17.5 149q78 23 140.5 39.5t114.5 26.5t97 15t90 5t102.5 -3t115 -14t109.5 -35t89 -63.5t53.5 -99t1.5 -143.5l-2 -8q-25 -135 -90 -206t-164 -106q117 -35 169.5 -118.5 t23.5 -247.5l-2 -17q-20 -115 -87 -195.5t-159 -130.5t-197.5 -74t-203.5 -24q-166 0 -284 34t-196 67z" />
<glyph unicode="4" horiz-adv-x="1337" d="M160 221l20 119l903 1114h170l-903 -1114h645l29 168q20 115 17 184.5t-9 98.5l86 26q18 -16 29.5 -47t13.5 -85t-5 -138t-23 -207h225l-21 -119h-225l-47 -262l-133 21l43 241h-815z" />
<glyph unicode="5" horiz-adv-x="1234" d="M78 88q16 29 33.5 54.5t33.5 54.5q78 -35 185.5 -69t273.5 -34q66 0 143.5 18.5t146.5 58.5t121 100.5t66 146.5q33 180 -65 275t-295 95q-123 0 -219 -17t-156 -40h-94l129 723h977l-55 -307h-109q10 55 16.5 97t14.5 91h-738l-84 -483q55 20 126 34.5t196 14.5 q131 0 233.5 -26.5t169 -84t92 -147.5t3.5 -217l-2 -16q-23 -121 -89.5 -204t-157.5 -133t-194.5 -73t-197.5 -23q-178 0 -301 34t-203 77z" />
<glyph unicode="6" horiz-adv-x="1316" d="M180.5 247.5q-18.5 114.5 16.5 307.5l69 393q27 156 92.5 257.5t152.5 159.5t191.5 80.5t212.5 22.5q66 0 120.5 -4t105.5 -14t104 -26.5t115 -41.5q-12 -61 -21.5 -121.5t-25.5 -123.5q-23 4 -53.5 3t-53.5 1l25 145q-66 27 -150 45.5t-170 18.5q-63 0 -140 -13.5 t-147.5 -52.5t-127 -108.5t-78.5 -180.5q-10 -45 -18.5 -88t-16.5 -90q35 14 84 31.5t107.5 31t125 22.5t134.5 9q98 0 192 -15t161.5 -64.5t98.5 -140.5t4 -242q-25 -145 -84 -237.5t-144 -146t-191.5 -73t-225.5 -19.5q-129 0 -227.5 18.5t-158.5 80t-78.5 176zM318.5 288 q13.5 -89 57.5 -133t115.5 -54.5t157.5 -10.5q70 0 149 8t149.5 44t124.5 108t77 199q20 117 -3.5 186.5t-72.5 105t-114.5 46t-131.5 10.5q-59 0 -125.5 -8.5t-131 -19.5t-119 -23.5t-84.5 -22.5l-33 -188q-29 -158 -15.5 -247z" />
<glyph unicode="7" horiz-adv-x="1241" d="M264 1126l60 328h1110l-23 -119q-229 -336 -452.5 -667.5t-452.5 -667.5h-154l901 1335h-841q-12 -51 -22.5 -101t-20.5 -108h-105z" />
<glyph unicode="8" horiz-adv-x="1329" d="M162 399l2 13q16 96 45 163.5t71 114.5t96 76t124 47q-43 18 -76 42t-54.5 60.5t-27.5 87t6 121.5q20 115 85 182.5t148 101.5t171.5 43t160.5 9q74 0 161 -9t159 -43t111.5 -101.5t19.5 -184.5l-2 -10q-12 -66 -35.5 -114t-57.5 -83.5t-75 -59.5t-88 -42 q137 -53 175 -161.5t13 -252.5q-20 -117 -76.5 -198.5t-140.5 -133t-192.5 -74t-233.5 -22.5q-119 0 -218 23.5t-166.5 74t-96.5 132.5t-8 198zM305 410q-16 -94 7.5 -155.5t74.5 -97.5t125 -50.5t156 -14.5q88 0 169 14.5t146.5 50.5t111.5 97.5t62 155.5 q31 176 -69.5 253.5t-303.5 77.5q-211 0 -329.5 -78.5t-149.5 -252.5zM483 1108q-14 -80 6.5 -129t65.5 -77t109.5 -37t138.5 -9h8q72 0 140.5 9t125 37t95 78t53.5 130q14 82 -13.5 129t-78 70.5t-116 28.5t-124.5 5q-61 0 -127 -5t-124 -28.5t-101.5 -70.5t-57.5 -131z " />
<glyph unicode="9" horiz-adv-x="1351" d="M176 72q16 27 34.5 53.5t35.5 52.5q47 -27 102 -44t112.5 -28.5t110 -15.5t93.5 -4q68 0 144.5 15.5t146 54.5t120.5 105.5t70 166.5l35 190l-37 -14q-29 -10 -62.5 -24.5t-74.5 -27.5t-93.5 -22.5t-115.5 -9.5h-97q-98 0 -186 18.5t-148.5 72t-85 147.5t2.5 248 q25 135 85 224t146 141t190.5 73.5t213.5 21.5q131 0 230 -18t158.5 -79.5t76 -177.5t-18.5 -308l-70 -398q-29 -158 -91 -258t-147 -157.5t-186.5 -80t-205.5 -22.5q-102 0 -226.5 19.5t-261.5 85.5zM417 816q17 -73 59 -112.5t102.5 -53t126.5 -13.5h100q80 0 156.5 14.5 t130.5 30.5l104 35l35 190q27 152 13.5 240t-57.5 133t-115 57.5t-157 12.5q-74 0 -152.5 -11.5t-148 -47.5t-122 -104.5t-72.5 -180.5q-20 -117 -3 -190z" />
<glyph unicode=":" horiz-adv-x="397" d="M51 86q10 51 47 77.5t84 26.5t76 -26.5t18 -77.5q-10 -51 -46.5 -77.5t-84.5 -26.5q-47 0 -75.5 26.5t-18.5 77.5zM199 920q8 49 46 76.5t85 27.5t74.5 -26.5t19.5 -77.5q-10 -51 -47 -79t-84 -28t-75.5 27t-18.5 80z" />
<glyph unicode=";" horiz-adv-x="397" d="M47 -205q37 27 59.5 50.5t37 45t22.5 44t12 47.5q-47 2 -73.5 27.5t-16.5 76.5t47 77.5t84 26.5q35 0 59.5 -13t28.5 -48q6 -10 5 -39t-5 -45q-16 -92 -70.5 -170t-164.5 -131zM238 920q8 49 46 76.5t85 27.5t74.5 -26.5t19.5 -77.5q-10 -51 -47 -79t-84 -28t-75.5 27 t-18.5 80z" />
<glyph unicode="&#x3c;" horiz-adv-x="1007" d="M219 535l21 127l788 264l-22 -131q-156 -51 -310.5 -100.5t-308.5 -98.5l547 -221l-25 -133z" />
<glyph unicode="=" horiz-adv-x="1064" d="M215 428l21 111h759l-20 -111h-760zM254 645l20 111h760l-20 -111h-760z" />
<glyph unicode="&#x3e;" horiz-adv-x="995" d="M166 242l24 133l625 221l-551 199l23 131l696 -264l-20 -127z" />
<glyph unicode="?" horiz-adv-x="1329" d="M371 1067l28 303l127 45q109 37 192 52.5t161 17.5q70 0 156.5 -10.5t158.5 -46t113 -107.5t18 -195q-14 -80 -58 -143t-102.5 -116.5t-124 -98.5t-123 -84t-97.5 -76t-46 -76l-26 -153h-138l31 170q10 59 51 106t98.5 88t121 80t121 82t99.5 95.5t54 121.5 q14 76 -6.5 123t-64.5 72.5t-106.5 34t-136.5 8.5q-68 0 -163 -17.5t-193 -60.5q-18 -96 -31 -201q-29 -4 -57.5 -7t-56.5 -7zM520 86q10 49 47 76.5t84 27.5t76 -26.5t18 -77.5q-10 -51 -46.5 -76.5t-84.5 -25.5q-47 0 -75.5 24.5t-18.5 77.5z" />
<glyph unicode="@" horiz-adv-x="1677" d="M193 580q27 172 111.5 316t207.5 248.5t273.5 164t308.5 59.5t283.5 -59.5t208.5 -166t116 -250.5t2 -312q-25 -145 -74 -231.5t-106.5 -132.5t-115.5 -60.5t-103 -14.5q-51 0 -85 10.5t-53.5 27t-29 34.5t-13.5 35q-10 0 -15 4t-7 6q-45 -43 -103.5 -73.5t-156.5 -30.5 q-78 0 -128 17t-78 50t-35 79t3 103l6 33q20 111 109.5 172.5t269.5 61.5h164q20 109 -1.5 161t-119.5 52q-49 0 -108.5 -6.5t-96.5 -10.5l-8 -53l-80 -4l15 139q31 6 69.5 13.5t79.5 12.5t81 8t75 3q96 0 144 -29.5t65.5 -77t12.5 -105.5t-15 -114l-52 -290q-10 -55 26 -89 t87 -34q92 0 164 81t100 246q25 137 1.5 261t-90 218.5t-171 151t-244.5 56.5q-139 0 -269 -53.5t-235.5 -145.5t-178 -218t-97.5 -274q-25 -135 3 -257t97.5 -212t179 -143t249.5 -53q66 0 133 21.5t127 43.5q23 -20 47 -37.5t49 -35.5q-88 -43 -185.5 -71t-189.5 -28 q-158 0 -284.5 61.5t-211.5 168t-120 249t-8 304.5zM715 397q-14 -78 25.5 -109.5t129.5 -31.5q37 0 74 5t71 24.5t59.5 56.5t41.5 98l23 127h-164q-123 0 -183.5 -37.5t-72.5 -101.5z" />
<glyph unicode="A" horiz-adv-x="1503" d="M35 0l20 117h168l621 1218h-94l22 119h334l211 -1337h168l-21 -117h-278l-68 420h-592q-55 -106 -108 -211t-105 -209h-278zM584 541h520l-121 794z" />
<glyph unicode="B" horiz-adv-x="1402" d="M125 0l20 117h156l213 1218h-170l23 119h589q74 0 160 -8t156.5 -43t109.5 -105q25 -45 25 -113q0 -38 -8 -83l-4 -25q-23 -125 -89.5 -195.5t-162.5 -101.5q135 -36 197 -118q42 -55 41 -150q0 -45 -9 -98l-4 -29q-20 -113 -71.5 -186.5t-123 -117.5t-156.5 -62.5 t-171 -18.5h-721zM440 117h414q68 0 129 14t112.5 48t87.5 90.5t50 138.5q7 39 7 72q0 44 -12 78q-22 58 -69 92t-116.5 47.5t-149.5 13.5h-348zM563 821h273q74 0 143.5 8.5t125.5 36t96 80.5t56 141q6 34 6 63q0 44 -13 74q-21 50 -69 74.5t-115 30.5t-142 6h-271z" />
<glyph unicode="C" horiz-adv-x="1296" d="M211 288q-10 52 -10 116q0 90 20 206l39 219q33 186 95.5 311.5t151.5 200t204.5 105.5t255.5 31q82 0 193.5 -17.5t250.5 -64.5l-72 -295h-108l33 196q-74 29 -162 45.5t-154 16.5q-86 0 -170 -16.5t-155.5 -72t-128 -159.5t-86.5 -281l-37 -208q-19 -107 -19 -187 q0 -40 4 -74q14 -102 61.5 -161.5t122 -82t171.5 -22.5q80 0 149.5 11.5t130 26.5t112.5 33.5t95 33.5l23 -107q-45 -16 -100.5 -36.5t-121 -38t-143.5 -29t-166 -11.5q-117 0 -218 25t-168.5 93.5t-92.5 192.5z" />
<glyph unicode="D" horiz-adv-x="1441" d="M127 0l23 117h153l211 1218h-168l23 119h610q137 0 244.5 -20.5t175 -86t89.5 -191.5q8 -47 8 -106q0 -98 -23 -229l-37 -217q-35 -197 -107 -316.5t-167 -183t-207.5 -84t-229.5 -20.5h-598zM438 117h307q88 0 175.5 18.5t162 72.5t131 153.5t84.5 261.5l39 221 q17 97 17 171q0 63 -12 109q-26 100 -85 146.5t-137 55.5t-149 9h-320z" />
<glyph unicode="E" horiz-adv-x="1290" d="M129 0l21 117h151l213 1218h-168l23 119h1046l-51 -291h-119l29 172h-621l-94 -534h526l-20 -119h-526l-99 -565h654l28 172h119l-49 -289h-1063z" />
<glyph unicode="F" horiz-adv-x="1175" d="M113 0l20 117h170l213 1218h-170l23 119h1026l-54 -293h-118l30 174h-596l-98 -561h508l-20 -119h-508l-95 -538h177l-21 -117h-487z" />
<glyph unicode="G" horiz-adv-x="1294" d="M206 287q-10 49 -10 111q0 92 21 210l37 215q33 190 95.5 316.5t151.5 201t204.5 105.5t257.5 31q80 0 184 -15.5t242 -60.5q-14 -76 -27.5 -151.5t-30.5 -151.5h-106q10 51 17 99t15 99q-72 29 -157.5 47.5t-153.5 18.5q-86 0 -171 -17.5t-157.5 -74t-129 -161.5 t-87.5 -280l-36 -208q-19 -107 -19 -188q0 -40 4 -75q15 -102 62 -160.5t122.5 -81t172.5 -22.5q119 0 215 24.5t170 47.5q-1 9 -1 18q0 24 4 50q5 38 13 85l31 179h-189l21 110h323l-57 -325q-19 -104 -19 -174v-7q1 -71 15 -102l-88 -25q-10 6 -22.5 22.5t-18.5 57.5 q-78 -25 -179.5 -51.5t-238.5 -26.5q-121 0 -222.5 25t-168 93.5t-89.5 191.5z" />
<glyph unicode="H" horiz-adv-x="1605" d="M111 0l20 117h170l213 1218h-170l23 119h481l-23 -119h-170l-92 -532h760l92 532h-170l23 119h481l-23 -119h-170l-213 -1218h170l-20 -117h-481l20 117h170l101 569h-760l-101 -569h170l-20 -117h-481z" />
<glyph unicode="I" horiz-adv-x="595" d="M59 0l21 117h172l213 1218h-172l22 119h482l-23 -119h-170l-213 -1218h170l-20 -117h-482z" />
<glyph unicode="J" horiz-adv-x="882" d="M35 43l71 107q43 -29 94.5 -43.5t100.5 -14.5q63 0 119.5 14.5t102.5 57.5t82 122t59 210l149 841h-188l20 117h330l-172 -967q-29 -158 -74 -258t-108.5 -156.5t-143.5 -78t-178 -21.5q-31 0 -67.5 6.5t-72.5 15.5t-69 21.5t-55 26.5z" />
<glyph unicode="K" horiz-adv-x="1533" d="M242 -31l32 86q14 37 28.5 86t25.5 109l190 1085h-190l22 119h330l-86 -487l158 -199l692 686h242l-23 -119h-156q-23 -20 -53.5 -49t-99 -95.5t-191.5 -187t-329 -327.5l385 -455q80 -96 143 -129l61 -33l-51 -79h-16q-14 0 -37 4t-53.5 21.5t-71.5 51t-92 95.5 l-541 636l-82 -489q-29 -158 -64.5 -234.5t-64.5 -107.5z" />
<glyph unicode="L" horiz-adv-x="1232" d="M127 0l20 117h154l213 1218h-170l23 119h458l-22 -119h-152l-213 -1214h635q12 43 21.5 89t19.5 99h113l-53 -309h-1047z" />
<glyph unicode="M" horiz-adv-x="1927" d="M113 0l20 117h154q61 311 122.5 609t125.5 609h-170l22 119h356l289 -1044q172 262 341 522t339 522h352l-22 -119h-170q-45 -309 -89 -608t-91 -610h153l-20 -117h-445l21 117h153l168 1128q-170 -256 -337.5 -510t-333.5 -510h-101l-295 1024q-59 -289 -115.5 -566 t-115.5 -566h154l-21 -117h-444z" />
<glyph unicode="N" horiz-adv-x="1683" d="M111 0l20 117h170l213 1218h-170l23 119h327l629 -1251l199 1132h-170l22 119h481l-22 -119h-170l-213 -1218h170l-21 -117h-329q-160 313 -315.5 624.5t-315.5 624.5l-199 -1132h154l-21 -117h-462z" />
<glyph unicode="O" d="M208 297q-9 51 -10 114q0 94 21 214l37 209q37 203 106.5 327.5t160.5 194t197.5 94.5t215.5 25t207 -25t165.5 -93.5t93.5 -194.5q11 -52 10 -118q0 -92 -21 -210l-37 -209q-35 -203 -103.5 -329t-159 -196.5t-198 -96.5t-219.5 -26q-115 0 -213.5 26t-163.5 96.5 t-89 197.5zM348 349q17 -101 66 -158.5t121.5 -77t158.5 -19.5t166 19.5t147.5 77t119 159t79.5 264.5l37 199q21 117 21 204q0 41 -4 75q-14 106 -61.5 165.5t-121.5 80t-162 20.5t-168.5 -20.5t-148.5 -80t-119 -166t-82 -278.5l-37 -199q-18 -103 -18 -182q0 -46 6 -83z " />
<glyph unicode="P" horiz-adv-x="1316" d="M125 0l20 117h156l213 1218h-170l23 119h555q145 0 247.5 -20.5t164.5 -69.5t80 -130q9 -38 8 -85q0 -54 -11 -119l-4 -24q-23 -123 -73 -205t-130 -131t-188.5 -70.5t-245.5 -21.5h-250l-80 -461h154l-21 -117h-448zM541 692h250q92 0 171.5 12.5t142 47t107 98.5 t62.5 166q8 52 8 93q0 47 -10 81q-20 63 -70.5 96t-127.5 41t-169 8h-252z" />
<glyph unicode="Q" horiz-adv-x="1351" d="M204 318q-6 43 -6 95q0 92 21 212l37 209q37 203 106.5 327.5t160.5 194t197.5 94.5t215.5 25t207 -25t165.5 -93.5t93.5 -194.5q10 -52 10 -118q0 -92 -21 -210l-37 -209q-33 -186 -93.5 -307t-140.5 -194t-176 -104.5t-199 -37.5l-47 -271l-143 15l45 258 q-100 6 -184 36.5t-138.5 103.5t-73.5 194zM348 349q17 -101 66 -158.5t121.5 -77t158.5 -19.5t166 19.5t147.5 77t119 159t79.5 264.5l37 199q21 117 21 204q0 41 -4 75q-15 106 -62 165.5t-121 80t-162 20.5t-168.5 -20.5t-148.5 -80t-119 -166t-82 -278.5l-37 -199 q-18 -103 -18 -182q0 -46 6 -83z" />
<glyph unicode="R" horiz-adv-x="1388" d="M123 0l20 117h154l213 1218h-170l22 119h539q137 0 246.5 -17.5t181.5 -65.5q73 -48 101 -134q15 -47 15 -108q0 -52 -11 -115l-7 -31q-33 -182 -140 -272t-281 -119l217 -365q66 -111 118 -151l58 -43q-16 -16 -37 -40t-37 -34q-12 2 -33.5 9t-50.5 29.5t-64.5 65.5 t-78.5 115l-234 397q-20 -4 -50 -3t-50 1h-252l-80 -456h154l-21 -117h-442zM532 686h238q92 0 176 8t152.5 40t118.5 93t73 170q9 51 9 93q0 52 -14 88q-25 66 -82.5 101.5t-141.5 45.5t-178 10h-238z" />
<glyph unicode="S" horiz-adv-x="1286" d="M143 45l68 289h115l-33 -184q31 -8 68.5 -15.5t78.5 -13.5t82 -9t76 -3q70 0 155 14t159.5 47t131 84t68.5 125q5 28 5 52q1 50 -19 86q-28 54 -82.5 89t-125.5 54.5t-138 35.5q-238 48 -336 152q-75 81 -75 201q0 36 7 75q16 94 67.5 162t130.5 111t182 62.5t224 19.5 q86 0 184.5 -13.5t239.5 -56.5l-78 -270q-27 0 -53 1t-53 1l25 172q-70 23 -146 34t-129 11q-74 0 -148.5 -10.5t-137 -37t-107.5 -71.5t-57 -115q-5 -26 -5 -50q0 -34 11 -64q18 -48 62 -83.5t113.5 -61t160.5 -46.5q43 -10 95 -20.5t104 -28.5t99.5 -48t79.5 -76 q30 -46 44 -112q6 -29 7 -63q0 -43 -10 -94q-16 -94 -72.5 -168t-140.5 -125t-190.5 -79t-222.5 -28q-98 0 -225.5 12.5t-258.5 55.5z" />
<glyph unicode="T" horiz-adv-x="1421" d="M270 1094l64 360h1270l-64 -360h-117l41 241h-454l-213 -1218h186l-20 -117h-510l20 117h186l213 1218h-446l-41 -241h-115z" />
<glyph unicode="U" horiz-adv-x="1560" d="M299 1335l23 119h436l-21 -117h-147l-129 -729q-18 -101 -18 -178q-1 -49 7 -89q18 -101 67.5 -155.5t122.5 -72t153 -17.5q74 0 151.5 16.5t149 70t128 154.5t87.5 271l127 727h-150l23 119h438l-23 -119h-147l-125 -719q-37 -201 -107.5 -325.5t-161.5 -194 t-197.5 -94.5t-213.5 -25q-106 0 -203.5 25t-164 94.5t-92.5 194.5q-11 52 -12 117q0 91 22 208l124 719h-147z" />
<glyph unicode="V" horiz-adv-x="1466" d="M281 1335l22 119h283l180 -1257l633 1257h278l-22 -119h-168q-170 -336 -340 -667.5t-340 -667.5h-145l-211 1335h-170z" />
<glyph unicode="W" horiz-adv-x="2172" d="M266 1335l23 119h282q41 -317 81 -630.5t81 -630.5q121 231 239 459.5t234 459.5q-8 61 -15 111.5t-17 111.5h-166l22 119h279q41 -317 81 -630.5t80 -630.5l652 1261h278l-22 -119h-168q-174 -336 -349 -667.5t-352 -667.5h-143q-33 223 -65.5 444.5t-61.5 444.5 l-467 -889h-145l-191 1335h-170z" />
<glyph unicode="X" horiz-adv-x="1480" d="M66 0l20 117h109l573 610l-358 608h-111l23 119h192q88 -156 177 -309.5t177 -308.5q147 156 289.5 309t288.5 309h201l-23 -119h-123l-571 -608l362 -610h119l-20 -117h-199l-361 618l-575 -618h-190z" />
<glyph unicode="Y" horiz-adv-x="1386" d="M270 1335l23 119h233q72 -164 142.5 -325.5t144.5 -325.5l559 651h230l-23 -119h-149q-143 -166 -286 -331.5t-284 -331.5l-96 -555h170l-21 -117h-481l21 117h170l96 555q-74 166 -147.5 331.5t-149.5 331.5h-152z" />
<glyph unicode="Z" horiz-adv-x="1327" d="M61 0l21 121q307 305 609 608t609 608h-860l-39 -211h-118l59 328h1149l-21 -115q-305 -307 -608 -611t-610 -611h901q10 66 18.5 110.5t18.5 102.5h119l-58 -330h-1190z" />
<glyph unicode="[" horiz-adv-x="552" d="M115 -406l397 2255h352l-20 -110h-215l-359 -2036h215l-18 -109h-352z" />
<glyph unicode="\" horiz-adv-x="677" d="M285 1454h149l205 -1454h-141z" />
<glyph unicode="]" horiz-adv-x="546" d="M-57 -406l18 109h213l358 2036h-215l21 110h352l-397 -2255h-350z" />
<glyph unicode="^" horiz-adv-x="847" d="M264 1075q86 100 170 200.5t170 203.5h156q49 -102 99 -202.5t102 -201.5h-164l-131 305l-240 -305h-162z" />
<glyph unicode="_" horiz-adv-x="1216" d="M111 -260l20 113h901l-20 -113h-901z" />
<glyph unicode="`" horiz-adv-x="376" d="M289 1458h133q14 -61 29.5 -121.5t31.5 -119.5h-123q-18 59 -36.5 119.5t-34.5 121.5z" />
<glyph unicode="a" horiz-adv-x="1157" d="M154 232q-8 40 -8 89q0 68 16 154l26 143q27 158 83.5 260.5t130 161t161.5 81t180 22.5q74 0 144.5 -15.5t129 -38t101.5 -46t60 -37.5l-144 -809q-4 -25 -4 -43q0 -30 10 -40q16 -16 39 -16q16 0 43 2t68 17l4 -90q-59 -20 -95 -28.5t-71 -8.5q-88 0 -115 71 q-29 -14 -60.5 -28.5t-76.5 -26.5t-108.5 -19t-155.5 -7q-86 0 -162 21.5t-126 78t-70 152.5zM292 284q14 -78 54.5 -121.5t99 -59t125.5 -15.5q63 0 112.5 6t86.5 16.5t66.5 22.5t56.5 25l137 780q-43 39 -121 64.5t-170 25.5q-61 0 -125.5 -16.5t-121 -62.5t-101.5 -126 t-67 -205l-23 -129q-14 -78 -14 -138q-1 -37 5 -67z" />
<glyph unicode="b" horiz-adv-x="1277" d="M182 -25q14 27 43 92.5t51 188.5l211 1198h-188l20 123h324l-94 -533q20 16 49 34t70 32t96 23.5t129 9.5q92 0 172 -23.5t133 -81.5q52 -60 72 -160q8 -43 9 -96q0 -71 -15 -159l-27 -148q-27 -154 -82 -251t-129 -152.5t-161 -75t-179 -19.5q-82 0 -136 8.5t-91 20.5 t-63.5 26.5t-51.5 26.5q-23 -49 -42 -70.5t-42 -41.5zM385 162q25 -12 49.5 -24.5t59 -24t83 -18.5t115.5 -7q66 0 129.5 14.5t118.5 57.5t98 120.5t66 202.5l24 142q13 71 13 127q1 42 -7 76q-18 78 -59 122.5t-100.5 61t-120.5 16.5q-96 0 -182 -26.5t-142 -63.5 l-108 -623q-10 -47 -18.5 -83.5t-18.5 -69.5z" />
<glyph unicode="c" horiz-adv-x="1093" d="M204 218q-8 39 -8 89q0 70 17 160l31 176q27 156 84 253t133 152.5t165 75t183 19.5q45 0 81 -2t72.5 -7.5t79.5 -14.5t99 -25q-12 -66 -26.5 -129.5t-24.5 -126.5h-103l25 153q-53 23 -115.5 30t-108.5 7q-57 0 -119.5 -13.5t-119.5 -53t-102.5 -114.5t-65.5 -196 l-33 -180q-13 -70 -13 -125q0 -50 11 -86q23 -76 69 -113.5t107.5 -46t116.5 -8.5q115 0 199 19.5t149 42.5q4 -29 8 -55.5t11 -55.5q-72 -29 -175.5 -46t-238.5 -17q-94 0 -176 18t-137 71.5t-75 148.5z" />
<glyph unicode="d" horiz-adv-x="1286" d="M210 232q-8 40 -9 89q0 68 16 154l27 143q27 158 83 260.5t129.5 161t162 81t180.5 22.5q74 0 125 -9.5t85.5 -23.5t57.5 -31.5t39 -31.5l72 407h-189l21 123h323l-243 -1380q-4 -25 -4 -43q0 -30 10 -40q16 -16 39 -16q16 0 42.5 2t67.5 17l4 -90q-59 -20 -95 -28.5 t-71 -8.5q-88 0 -114 71q-29 -14 -60.5 -28.5t-77 -26.5t-109 -19t-155.5 -7q-86 0 -161.5 21.5t-125.5 78t-70 152.5zM348 284q14 -78 54 -121.5t98.5 -59t126.5 -15.5q63 0 112 6t86 16.5t67 22.5t56 25l137 780q-43 39 -120.5 64.5t-169.5 25.5q-61 0 -126 -16.5 t-121 -62.5t-101.5 -126t-67.5 -205l-23 -129q-14 -78 -14 -138q0 -37 6 -67z" />
<glyph unicode="e" horiz-adv-x="1165" d="M200 220q-11 45 -11 103q0 66 14 148l30 174q27 158 85.5 255t136 151.5t169 73t183.5 18.5t171 -13.5t132 -55.5q52 -42 74 -121q11 -39 12 -90q0 -52 -12 -118q-10 -68 -54.5 -111.5t-110 -69t-148.5 -36t-172 -10.5t-180 6t-173 13q-19 -106 -19 -180q1 -29 3 -53 q10 -86 48 -131.5t99.5 -59t138.5 -13.5q129 0 214 12.5t153 32.5q8 -49 23 -102q-72 -29 -172.5 -47.5t-235.5 -18.5q-94 0 -177 19.5t-140 73t-81 150.5zM365 643q113 -15 233 -21q33 -2 64 -2q82 0 156 10q102 14 171.5 50.5t81.5 103.5q6 32 6 60q1 42 -13 72 q-22 50 -66 74t-101.5 31t-114.5 7q-59 0 -123.5 -10t-122 -49t-102.5 -116t-69 -210z" />
<glyph unicode="f" horiz-adv-x="847" d="M-74 -332l19 109q90 0 157.5 11t117.5 50t84 114t56 202l150 858q27 147 77 242.5t122.5 148.5t166 73.5t205.5 20.5l-18 -115q-90 0 -157.5 -10t-117 -48t-82 -111.5t-55.5 -200.5l-149 -858q-27 -147 -69 -242.5t-109.5 -149t-165 -74t-232.5 -20.5zM219 860l23 119 h266h137h270l-22 -119h-674z" />
<glyph unicode="g" horiz-adv-x="1300" d="M145 -262q27 25 50.5 41t50.5 39q23 -47 56.5 -74t73.5 -40t84 -17t89 -4q61 0 122.5 15t115 56t95.5 112t64 183q-78 -53 -154.5 -62.5t-162.5 -9.5q-92 0 -174 19.5t-138.5 74t-78.5 150.5q-11 44 -11 99q0 67 15 151l26 150q27 158 83.5 259t130 159.5t162.5 81 t181 22.5h29q72 0 121 -9.5t84 -24.5t56.5 -33.5t37.5 -37.5q53 94 150 95q35 0 68.5 -10.5t84.5 -28.5q-10 -23 -20.5 -46.5t-18.5 -46.5q-37 14 -61.5 17.5t-42.5 3.5q-23 0 -45.5 -23.5t-32.5 -91.5l-150 -839q-29 -164 -86 -263.5t-132.5 -153.5t-164 -72.5 t-176.5 -18.5q-61 0 -119.5 10t-108.5 31.5t-89 55.5t-64 81zM374 282q17 -75 59 -115t101.5 -53.5t120.5 -13.5q123 0 190.5 15.5t119.5 38.5l137 780q-43 39 -118 64.5t-167 25.5q-61 0 -124.5 -16.5t-121 -60.5t-101.5 -121.5t-67 -202.5l-24 -142q-13 -71 -13 -126 q0 -41 8 -73z" />
<glyph unicode="h" horiz-adv-x="1329" d="M211 0l256 1458h-188l20 119h326l-101 -567q72 76 163 104.5t198 28.5q211 -1 297 -113q56 -73 56 -211q0 -76 -17 -172l-70 -397q-6 -37 -6 -63.5t6 -42.5q12 -32 70 -33q23 0 63 6l-12 -117q-61 -12 -113 -12q-86 0 -128 50q-27 32 -27 97q0 35 8 80l65 377 q20 114 20 191q-1 27 -3 50q-10 87 -43 129t-83 52t-106 10q-55 0 -116.5 -8t-116 -39t-95 -89.5t-59.5 -156.5l-127 -731h-137z" />
<glyph unicode="i" horiz-adv-x="649" d="M266 1010l23 118h323l-153 -878q-6 -35 -6 -62q-1 -42 15 -59q16 -18 61 -18q26 0 63 6l-17 -117q-65 -13 -118 -13h-7q-55 1 -89.5 24.5t-48.5 72.5q-7 24 -6 56q0 33 7 75l140 795h-187zM459 1419q8 47 43 74t82 27q46 0 72 -27q19 -21 20 -53q0 -10 -2 -21 q-10 -49 -44 -75.5t-81 -26.5q-47 -1 -73 25q-19 19 -20 51q0 12 3 26z" />
<glyph unicode="j" horiz-adv-x="569" d="M109 -475q16 27 43.5 95.5t50.5 186.5l211 1203h-189l23 118h323l-225 -1278q-18 -98 -39.5 -161.5t-43 -103.5t-42 -59.5t-37.5 -27.5zM434 1419q8 47 43 74t82 27t73 -27q21 -21 21 -53q0 -10 -2 -21q-10 -49 -45 -75.5t-82 -26.5t-74 25q-19 19 -19 51q0 12 3 26z" />
<glyph unicode="k" horiz-adv-x="1269" d="M172 -27q23 31 49.5 100.5t44.5 180.5l213 1202h-188l20 121h324l-133 -760l143 -162l475 473h240l-23 -118h-157q-35 -35 -72 -69t-76 -73l-295 -303l307 -348q84 -94 148 -127l59 -33q-12 -23 -31.5 -52.5t-39.5 -29.5q-16 0 -42 5.5t-62 24t-79 52t-92 90.5 q-111 125 -217 249t-217 249l-61 -348q-16 -92 -38 -154.5t-44.5 -102.5t-43 -61.5t-32.5 -31.5q-20 6 -39.5 12t-40.5 14z" />
<glyph unicode="l" horiz-adv-x="548" d="M236 140q2 62 18 157l205 1161h-189l21 119h325l-233 -1323q-18 -105 -18 -171v-13q2 -68 12 -97q-23 -8 -43.5 -14t-42.5 -12q-16 10 -29.5 31.5t-21.5 60.5q-6 29 -5 72q0 13 1 29z" />
<glyph unicode="m" horiz-adv-x="1837" d="M145 2l160 907q6 33 6 56q0 25 -8 37q-14 22 -39 22q-12 0 -22.5 -1t-22.5 -3v100q23 6 47.5 10.5t46.5 4.5q53 0 86 -30q31 -28 31 -96v-8q78 63 173 103.5t177 40.5q115 0 184.5 -37t96.5 -141q76 80 183.5 129t211.5 49q117 0 181.5 -44t88.5 -122q20 -65 21 -148 q0 -17 -1 -35q-5 -104 -26 -225l-57 -321q-6 -35 -6 -62q-1 -42 15 -59q16 -18 61 -18q26 0 63 6l-12 -117q-65 -13 -117 -13h-7q-54 1 -90 24.5t-48 72.5q-6 22 -6 51q0 35 8 80l63 358q25 139 27 227v17q0 77 -18 122q-20 50 -61.5 68.5t-104.5 18.5q-98 0 -189.5 -46 t-150.5 -124q-10 -59 -16.5 -126.5t-20.5 -141.5l-103 -586h-133l107 610q20 115 22 194v15q0 69 -16 113q-18 49 -60.5 70.5t-109.5 21.5q-94 0 -178 -42t-148 -112l-153 -870h-136z" />
<glyph unicode="n" horiz-adv-x="1353" d="M211 0l160 907q5 31 5 53q0 28 -8 40q-16 22 -40 22q-12 0 -21.5 -1t-21.5 -3v100q18 4 41.5 11.5t42.5 7.5q49 0 71.5 -12.5t31.5 -34t10 -51t7 -66.5q39 41 92.5 72.5t112 53t119.5 33t121 11.5q106 0 175 -38t107 -99q38 -62 46 -142q3 -29 2 -59q0 -52 -9 -107 l-79 -448q-6 -36 -6 -62q0 -41 15 -59q16 -18 61 -18q26 0 63 6l-13 -117q-65 -13 -118 -13h-7q-55 1 -89 25q-34 23 -48 72q-7 24 -7 56q0 33 7 75l88 485q8 49 8 91q0 95 -42 151q-62 80 -175 80q-61 0 -123.5 -12.5t-119 -37t-103.5 -64.5t-78 -95l-143 -813h-135z" />
<glyph unicode="o" horiz-adv-x="1095" d="M152 216q-8 39 -9 89q0 70 17 160l30 176q27 158 82.5 256t129 152.5t161.5 74t182 19.5q92 0 173 -19.5t136.5 -74t77.5 -152.5q10 -43 9 -98q0 -69 -15 -156l-30 -172q-29 -156 -83.5 -252t-128 -149.5t-162.5 -71.5t-183 -18t-176 18t-136.5 70.5t-74.5 147.5z M288 268q18 -72 58.5 -111.5t98 -51t116.5 -11.5q55 0 115.5 11.5t116 49.5t99.5 110.5t66 195.5l35 190q11 66 11 119q0 45 -8 79q-17 75 -59 115t-99.5 52t-112.5 12q-57 0 -117.5 -13.5t-116 -53t-99.5 -113.5t-64 -195l-35 -190q-13 -70 -13 -123q0 -41 8 -72z" />
<glyph unicode="p" horiz-adv-x="1277" d="M182 -434l238 1341q5 31 5 53q0 30 -9 42q-17 20 -39 20q-57 0 -109 -18l-6 90q57 18 94 28.5t74 10.5q92 0 115 -99q27 18 59.5 38t76.5 35t102.5 25.5t136.5 10.5q92 0 173 -22.5t134 -81t73 -159.5q8 -43 8 -95q0 -73 -16 -164l-26 -150q-27 -154 -82.5 -250 t-128 -150.5t-159.5 -74t-179 -19.5q-74 0 -125 5.5t-86 14.5t-58.5 22.5t-44.5 29.5l-77 -438zM422 158l12 -6q20 -10 45 -21.5t56.5 -20t75.5 -13.5t106 -5q66 0 130 14.5t120.5 56.5t99.5 117.5t66 200.5l24 142q13 73 13 130q0 41 -6 73q-17 79 -58 124t-99.5 62.5 t-119.5 17.5q-98 0 -185.5 -28.5t-142.5 -65.5z" />
<glyph unicode="q" horiz-adv-x="1273" d="M214 221q-11 45 -11 103q0 65 14 147l27 150q27 158 84 259t134 159.5t167 81t184 22.5q72 0 124 -10.5t89 -25.5t63.5 -35.5t45.5 -39.5q51 100 151 101q37 0 68.5 -11.5t85.5 -27.5l-41 -93q-35 14 -60.5 17.5t-42.5 3.5q-23 0 -46 -22.5t-33 -81.5l-230 -1307 l-143 -45l86 483q-20 -14 -46 -27.5t-63 -23.5t-88 -16.5t-123 -6.5q-92 0 -175 20.5t-140 75t-81 150.5zM348 280q17 -75 57.5 -117t100 -56.5t125.5 -14.5q127 0 196.5 17.5t120.5 46.5l137 780q-41 39 -118.5 66.5t-173.5 27.5q-61 0 -125 -17.5t-121.5 -62.5 t-101.5 -123.5t-66 -203.5l-25 -142q-13 -72 -13 -127q0 -41 7 -74z" />
<glyph unicode="r" horiz-adv-x="995" d="M254 1010q6 29 11 59.5t9 58.5h304l-21 -110q55 66 136 99.5t179 33.5q31 0 58.5 -1t59.5 -5t69 -12.5t86 -22.5l-39 -209h-133l20 113q-35 4 -68.5 7t-74.5 3q-92 0 -176 -47t-133 -162l-144 -815h-135l176 1010h-184z" />
<glyph unicode="s" horiz-adv-x="1077" d="M115 31q16 66 25.5 128t21.5 128h135l-27 -152q31 -10 67 -17t72.5 -12.5t72.5 -8.5t65 -3q86 0 150.5 22.5t109.5 58.5t70.5 82t33.5 93q3 16 3 30q0 36 -18 62q-26 35 -73 54.5t-109.5 30t-123.5 18.5q-98 12 -163 36.5t-101 62.5t-46 90q-5 23 -4 49q0 32 7 69 q29 164 157.5 232.5t339.5 68.5q70 0 153 -8t200 -43l-43 -252h-134l27 156q-53 23 -113.5 27.5t-109.5 4.5q-66 0 -124 -9t-104.5 -30.5t-76 -54.5t-37.5 -78q-4 -22 -3 -41q0 -66 42 -100q55 -43 188 -59q37 -6 85 -11.5t98.5 -15.5t96.5 -28.5t77.5 -53.5t45.5 -87 q8 -28 9 -64q0 -29 -6 -64q-33 -180 -170.5 -272.5t-341.5 -92.5q-90 0 -202 9.5t-222 44.5z" />
<glyph unicode="t" horiz-adv-x="712" d="M211 1010l51 125h133q47 53 74 138t43 187q33 4 64.5 9.5t64.5 11.5l-61 -346h251l-22 -125h-252l-141 -805q-3 -22 -3 -39q0 -32 13 -44q20 -18 45 -18q23 0 61.5 4.5t98.5 16.5q0 -29 1 -55.5t3 -55.5q-61 -10 -116.5 -18t-102.5 -8q-59 0 -91 20q-31 20 -43 58 q-8 26 -8 61q0 17 2 35q6 58 19 139l125 709h-209z" />
<glyph unicode="u" horiz-adv-x="1294" d="M215 1010l23 118h292l-114 -645q-14 -81 -14 -141q0 -28 3 -50q9 -74 41.5 -115.5t85 -58t115.5 -16.5q55 0 116.5 7.5t115 36t95.5 89t60 164.5l107 611h-162l20 116h297l-157 -901q-6 -31 -6 -54q0 -65 49 -65q18 0 42.5 7.5t53.5 17.5q0 -25 1 -53.5t5 -50.5 q-57 -20 -97 -27.5t-73 -7.5q-53 0 -84 26q-24 21 -24 71q0 15 2 32q-68 -80 -171.5 -107.5t-211.5 -27.5q-86 0 -161 18.5t-126 71.5q-52 53 -70 148q-8 39 -7 89q0 70 15 160l95 537h-156z" />
<glyph unicode="v" horiz-adv-x="1204" d="M193 1010l22 118h277l137 -960q117 242 236.5 480.5t236.5 479.5h276l-22 -118h-164l-514 -1010h-156q-47 254 -83 505t-81 505h-165z" />
<glyph unicode="w" horiz-adv-x="1835" d="M209 1010l22 118h279l135 -960l371 743l-12 99h-152l22 118l254 -2l127 -958l476 960h278l-22 -118h-166l-516 -1010h-150l-111 696l-356 -696h-149l-164 1010h-166z" />
<glyph unicode="x" horiz-adv-x="1314" d="M76 0l20 117q33 0 77 9t93 50l393 387l-297 447h-110l22 118h193l297 -462l266 266t139 137q53 51 60 59h190l-22 -118q-33 0 -77 -9.5t-93 -50.5l-393 -387l296 -446h111l-20 -117h-193l-301 461l-461 -461h-190z" />
<glyph unicode="y" horiz-adv-x="1329" d="M215 -276l84 96q23 -47 57.5 -74t74.5 -41t85 -18t88 -4q49 0 109.5 8t117 42t101.5 101.5t65 185.5l17 95q-68 -74 -160 -101.5t-197 -27.5q-90 0 -162.5 18.5t-118.5 71.5t-62 148q-5 35 -5 77q0 74 17 172l94 537h-158l23 118h290l-112 -632q-14 -85 -14 -148 q0 -25 2 -47q8 -76 38.5 -120t79.5 -61.5t111 -17.5q57 0 118.5 7.5t114 38t93.5 91t59 167.5l106 604h-196l22 118h334l-186 -1056q-29 -160 -84 -259.5t-128 -155.5t-160 -76.5t-179 -20.5q-127 0 -227.5 33.5t-151.5 130.5z" />
<glyph unicode="z" horiz-adv-x="1251" d="M139 0l21 117q236 225 470 446t470 447h-680l-33 -193h-104l55 311h958l-20 -114q-238 -225 -472.5 -448.5t-469.5 -448.5h702l33 192h102l-53 -309h-979z" />
<glyph unicode="{" horiz-adv-x="675" d="M152 666l18 110h236q43 225 96 398.5t118.5 300.5t141.5 212t164 138l55 -60q-61 -49 -124.5 -138t-121 -218t-106.5 -298t-86 -378l-2 -4q-35 -201 -46.5 -373t0 -307t44 -230t86.5 -145l-80 -61q-66 53 -113 141t-68.5 217t-17.5 301t41 394h-235z" />
<glyph unicode="|" horiz-adv-x="407" d="M113 -147l307 1746h135l-307 -1746h-135z" />
<glyph unicode="}" horiz-adv-x="751" d="M-61 -324q70 49 136 143.5t124.5 229.5t107.5 306t84 372q37 207 46 376t-3 300t-43 222t-76 140l80 60q68 -53 112 -139.5t64.5 -213t13.5 -299t-44 -397.5h235l-18 -112h-236q-43 -221 -98 -392.5t-123 -299.5t-145.5 -216t-161.5 -141z" />
<glyph unicode="~" horiz-adv-x="923" d="M229 657q41 80 96.5 130.5t127.5 50.5q39 0 77.5 -20.5t73.5 -44t66.5 -44t56.5 -20.5q4 0 21.5 6t41 19.5t48 35t43.5 53.5l41 -57q-41 -86 -95.5 -133t-124.5 -47q-33 0 -71.5 20.5t-76.5 44t-71.5 44t-56.5 20.5q-6 0 -23.5 -6.5t-40 -19.5t-47 -34.5t-45.5 -54.5z " />
<glyph unicode="&#xa1;" horiz-adv-x="454" d="M74 -416l211 1196h200l-20 -108h-66l-190 -1088h-135zM303 1077q10 53 47 80t84 27t75.5 -28t18.5 -79t-47 -77.5t-84 -26.5t-74.5 27.5t-19.5 76.5z" />
<glyph unicode="&#xa2;" horiz-adv-x="1093" d="M204.5 218q-20.5 95 8.5 249l31 176q27 156 84 253t133 152.5t165 75t183 19.5q45 0 81 -2t72.5 -7.5t79.5 -14.5t99 -25q-12 -66 -26.5 -129.5t-24.5 -126.5h-103l25 153q-53 23 -115.5 30t-108.5 7q-57 0 -119.5 -13.5t-119.5 -53t-102.5 -114.5t-65.5 -196l-33 -180 q-25 -135 -2 -211t69 -113.5t107.5 -46t116.5 -8.5q115 0 199 19.5t149 42.5q4 -29 8 -55.5t11 -55.5q-72 -29 -175.5 -46t-238.5 -17q-94 0 -176 18t-136.5 71.5t-75 148.5zM485 -295l310 1747h135l-309 -1747h-136z" />
<glyph unicode="&#xa3;" horiz-adv-x="1171" d="M92 0q16 82 35.5 162t36.5 178l84 477q31 172 76 291l2 8q43 113 107.5 183.5t146.5 109.5t178 52.5t205 13.5q86 0 171.5 -21.5t165.5 -46.5q-16 -76 -34.5 -150.5t-34.5 -150.5q-29 4 -53.5 6t-51.5 4q8 51 17.5 98.5t17.5 94.5q-35 20 -102.5 33.5t-128.5 13.5 q-84 0 -167 -13.5t-154.5 -62.5t-128 -145.5t-85.5 -262.5l-28 -161h446l-20 -115h-447l-84 -479h780l29 172h84l-49 -289h-1014z" />
<glyph unicode="&#xa4;" horiz-adv-x="1001" d="M127 242l158 135q-12 35 -16.5 72.5t3.5 80.5q16 82 64 150l-111 135l164 141l111 -135q76 39 164 39q82 0 147 -37l150 125l110 -137l-147 -125q12 -35 16 -75t-4 -81q-8 -43 -25.5 -82.5t-42.5 -74.5l101 -123l-162 -141l-102 127q-41 -20 -80 -28.5t-78 -8.5 q-41 0 -79 8t-69 29l-159 -134zM397 530q-16 -92 33 -148t139 -56q88 0 156 56t84 148q16 88 -32 146.5t-136 58.5q-90 0 -159 -58.5t-85 -146.5z" />
<glyph unicode="&#xa5;" horiz-adv-x="1366" d="M262 1337l21 117h233q72 -164 142.5 -325.5t144.5 -325.5l559 651h229l-20 -117h-150l-540 -626h268l-19 -101h-290l-27 -151h291l-19 -101h-290l-47 -268l151 -12l-12 -78h-447l13 78h153l49 280h-327l18 101h328l26 151h-327l18 101h301q-72 158 -140.5 313.5 t-137.5 312.5h-152z" />
<glyph unicode="&#xa6;" horiz-adv-x="452" d="M111 -145l129 737h137l-129 -737h-137zM291 872l127 727h137l-127 -727h-137z" />
<glyph unicode="&#xa7;" horiz-adv-x="1112" d="M98 -182l45 254h109l-27 -152q31 -10 66 -17t71.5 -11.5t72.5 -7.5t65 -3q61 0 125.5 16.5t117 47t86 74.5t33.5 100q10 57 -16.5 90t-73.5 49t-109.5 22.5t-123.5 14.5q-100 12 -165 41t-100.5 72t-44 98t3.5 123q31 180 213 248q-86 37 -109.5 101t-6.5 157 q14 80 57 136t108.5 92t150.5 52.5t185 16.5q68 0 143 -10.5t191 -45.5q-14 -63 -26.5 -126t-26.5 -126q-29 0 -54.5 1t-53.5 1l26 150q-53 23 -112.5 30t-106.5 7q-61 0 -119.5 -9.5t-104.5 -29t-78 -52t-40 -81.5q-18 -100 38 -141.5t191 -59.5q55 -8 132 -17.5t144.5 -40 t107.5 -92t22 -172.5q-18 -104 -73.5 -167.5t-137.5 -98.5q29 -12 53.5 -31.5t39.5 -47t20.5 -67.5t-5.5 -93q-16 -90 -60 -157t-112.5 -110t-156.5 -64.5t-189 -21.5q-90 0 -185 11.5t-200 46.5zM369 637q-16 -98 46 -156.5t216 -58.5q63 0 118.5 8t98.5 28.5t70.5 52.5 t35.5 81q6 19 0 39q8 53 -13 87t-61 54.5t-91.5 27.5t-102.5 7q-61 0 -115.5 -8t-95.5 -27.5t-69.5 -52.5t-36.5 -82z" />
<glyph unicode="&#xa8;" horiz-adv-x="993" d="M397 1401q8 45 41 69.5t74 24.5t65.5 -24.5t16.5 -69.5t-41 -69.5t-74 -24.5t-65.5 24.5t-16.5 69.5zM866 1401q8 45 41 69.5t76 24.5q41 0 65.5 -24.5t16.5 -69.5t-41 -69.5t-74 -24.5q-43 0 -67.5 24.5t-16.5 69.5z" />
<glyph unicode="&#xa9;" horiz-adv-x="1437" d="M219 905q25 135 97.5 254t177 208t232.5 140.5t263 51.5t244.5 -51.5t182.5 -140.5t103.5 -208t6.5 -254q-25 -135 -96.5 -254t-176 -208t-232.5 -140t-263 -51t-245 51t-183.5 140t-104.5 208t-6 254zM326 903q-20 -115 6 -214t87.5 -174t154 -118t204.5 -43 q113 0 221.5 43t196.5 118t148.5 174t80.5 214q20 113 -5 213.5t-86.5 175t-155 117.5t-205.5 43q-113 0 -220.5 -43t-195.5 -117.5t-149.5 -175t-81.5 -213.5zM579.5 689q-12.5 56 4.5 149l16 100q18 104 52 164.5t79 93.5t99.5 42t113.5 9h29q25 0 65.5 -8t110.5 -22 q-8 -39 -17.5 -79t-19.5 -81h-84q4 27 1 44t-13 32l-27 12q-14 4 -31.5 8t-35.5 4q-31 0 -61 -10t-54.5 -33.5t-44 -64.5t-29.5 -105l-16 -88q-23 -123 9 -167t110 -44q70 0 113.5 12.5t86.5 26.5l21 -78q-51 -20 -108.5 -36.5t-129.5 -16.5h-26q-49 0 -94.5 10t-76 40 t-43 86z" />
<glyph unicode="&#xaa;" horiz-adv-x="1130" />
<glyph unicode="&#xab;" horiz-adv-x="1155" d="M150 547l22 127l635 448l-27 -151l-483 -363l354 -385l-28 -153zM627 547l22 127l635 448l-27 -151l-483 -363l354 -385l-28 -153z" />
<glyph unicode="&#xad;" horiz-adv-x="858" d="M207 528l20 119h609l-21 -119h-608z" />
<glyph unicode="&#xae;" horiz-adv-x="1437" d="M219 907q25 135 96.5 254t176 208t232.5 140.5t263 51.5t244.5 -51.5t183.5 -140.5t104.5 -208t6.5 -254q-25 -135 -97.5 -253.5t-177 -208t-232.5 -140.5t-263 -51t-245 51t-182.5 140.5t-103.5 208t-6 253.5zM324 903q-20 -115 6 -214t87.5 -174t154 -118t204.5 -43 q113 0 221.5 43t196.5 118t148.5 174t80.5 214q20 113 -5 213.5t-86.5 175t-155 117.5t-205.5 43q-113 0 -220.5 -43t-195.5 -117.5t-149.5 -175t-81.5 -213.5zM543 549l14 88l41 12l94 531h-49l14 84h254q57 0 112.5 -6.5t97.5 -27t63.5 -59t9.5 -106.5l-10 -57 q-14 -80 -64.5 -121t-122.5 -58l86 -143q23 -41 44.5 -59.5t37.5 -26.5q-16 -16 -31.5 -35.5t-29.5 -29.5h-14q-6 0 -20.5 4t-31 14t-35 28.5t-36.5 51.5q-6 8 -7.5 11t-5.5 5l-96 170h-104l-47 -270h-164zM770 907h90q31 0 62.5 3t59.5 15.5t48.5 37t28.5 69.5q8 43 0 69.5 t-27.5 41t-49.5 19.5t-62 5h-105z" />
<glyph unicode="&#xaf;" horiz-adv-x="1058" d="M395 1352l19 102h745l-18 -102h-746z" />
<glyph unicode="&#xb0;" horiz-adv-x="864" d="M371 1149q23 117 104.5 194.5t202.5 77.5q115 0 173 -74.5t38 -185.5v-10q-10 -55 -38 -103.5t-68 -83t-90 -55t-107 -20.5q-117 0 -175 74.5t-40 185.5zM453 1161q-16 -90 21.5 -144t123.5 -54q78 0 135.5 52t73.5 136v6q14 82 -22.5 137.5t-116.5 55.5t-139.5 -53.5 t-75.5 -135.5z" />
<glyph unicode="&#xb1;" horiz-adv-x="913" d="M113 0l20 119h676l-21 -119h-675zM215 592l21 110h274l47 273l121 14l-51 -287h280l-20 -110h-281l-47 -275l-121 -16l51 291h-274z" />
<glyph unicode="&#xb2;" horiz-adv-x="837" d="M207 641l16 92l418 334q74 59 119 99t55 87q14 72 -32 95.5t-124 23.5h-10q-35 0 -82 -9t-88 -32q-4 -23 -7 -45t-5 -45q-18 -6 -37.5 -11t-40.5 -9q0 43 -1 86t1 86q78 29 155 47t126 22q41 0 91 -5t92 -24.5t65.5 -59.5t11.5 -109l-4 -23q-6 -37 -32 -69.5t-63.5 -63.5 t-85 -64.5t-98.5 -74.5l-293 -236h430q8 23 13.5 47.5t9.5 53.5h78l-33 -193h-645z" />
<glyph unicode="&#xb3;" horiz-adv-x="778" d="M209 682l49 80q43 -16 97.5 -33.5t125.5 -17.5q35 0 74 8t73 26.5t58.5 49t32.5 75.5q16 84 -29 122t-141 38h-45l2 80h55q68 0 123.5 24.5t69.5 106.5q8 39 -1.5 63.5t-31 38t-53 17.5t-70.5 4q-41 0 -78 -7t-76 -24q-4 -23 -7 -44t-5 -44l-80 -18l6 172q72 23 134.5 38 t128.5 15q39 0 86 -5t87 -24.5t63.5 -58.5t10.5 -107l-2 -12q-12 -70 -47 -103.5t-90 -56.5q66 -27 93.5 -71.5t8.5 -145.5l-2 -10q-10 -61 -44.5 -105t-85 -73t-112 -42t-122.5 -13q-82 0 -147.5 19.5t-108.5 37.5z" />
<glyph unicode="&#xb4;" horiz-adv-x="376" d="M289 1217l147 241h133l-157 -241h-123z" />
<glyph unicode="&#xb5;" horiz-adv-x="1155" d="M-16 -475q10 18 22.5 47t24.5 76q10 35 23.5 82t23.5 104l229 1294h137l-139 -782q-20 -117 31 -179.5t162 -62.5q59 0 119.5 13.5t115.5 39t101.5 64.5t74.5 90l146 817h135l-160 -907q-12 -66 1 -91.5t44 -25.5l41 5l-2 -103q-18 -4 -45 -8t-49 -4q-35 0 -52.5 11 t-26.5 30.5t-15 49.5t-19 67q-37 -43 -88 -75t-109.5 -51.5t-121 -28.5t-119.5 -9q-156 0 -213 75l-37 -213q-18 -100 -41.5 -165.5t-46 -104.5t-43 -57.5t-29.5 -24.5q-20 6 -38.5 12.5t-36.5 14.5z" />
<glyph unicode="&#xb6;" horiz-adv-x="1339" d="M270.5 793.5q-18.5 80.5 3.5 203.5q20 123 65.5 209t120.5 141.5t186.5 81t264.5 25.5h588l-18 -104h-189l-237 -1350h-105l238 1350h-189l-237 -1350h-105l103 582q-147 0 -249.5 18t-162 65.5t-78 128z" />
<glyph unicode="&#xb7;" horiz-adv-x="622" d="M233 524q12 78 73 126t136 48q74 0 116 -48t28 -126q-16 -80 -73.5 -126t-131.5 -46q-76 0 -120 45t-28 127z" />
<glyph unicode="&#xb8;" horiz-adv-x="491" d="M-37 -397l301 424h94l-245 -424h-150z" />
<glyph unicode="&#xb9;" horiz-adv-x="497" d="M229 641l15 84h82l92 528q12 57 12 113h-94l14 84h209l-127 -725h90l-14 -84h-279z" />
<glyph unicode="&#xba;" horiz-adv-x="731" d="M225.5 866.5q-12.5 67.5 5.5 175.5l15 78q20 113 58 179.5t87 101.5t107.5 45t119.5 10q59 0 111.5 -12t87.5 -50t48.5 -106.5t-7.5 -181.5l-10 -51q-20 -115 -57 -184.5t-86.5 -107.5t-105.5 -50.5t-118 -12.5h-12q-59 0 -111.5 12.5t-86 49.5t-46 104.5zM342 914.5 q8 -50.5 29.5 -76t54.5 -32.5t68 -7q33 0 67.5 7t66 31.5t57.5 74t40 132.5l12 60q14 86 7 136t-28.5 75.5t-54 34t-69.5 8.5t-72 -8.5t-65.5 -34t-56 -76.5t-40.5 -137l-8 -51q-16 -86 -8 -136.5z" />
<glyph unicode="&#xbb;" horiz-adv-x="1112" d="M63 70l29 153l490 385l-357 363l27 151l479 -448l-22 -127zM541 70l28 153l490 385l-357 363l27 151l479 -448l-22 -127z" />
<glyph unicode="&#xbc;" horiz-adv-x="1384" d="M166 0l1077 1454h125l-1085 -1454h-117zM227 645l15 84h82l94 528q4 29 7 56.5t3 56.5h-94l16 82h209l-129 -723h88l-14 -84h-277zM631 98l16 88l502 613h127l-506 -613h346l12 76q10 61 9.5 101t-4.5 55q16 6 33.5 10t33.5 10q23 -16 32 -69.5t-7 -182.5h114l-16 -88 h-115l-26 -145l-105 18l23 127h-469z" />
<glyph unicode="&#xbd;" horiz-adv-x="1449" d="M166 0l1077 1454h125l-1085 -1454h-117zM229 643l15 84h82l94 528q4 29 7 56.5t3 56.5h-94l16 84h209l-129 -725h90l-14 -84h-279zM758 0l14 90l416 330q72 57 117 96t55 88q10 70 -36 93.5t-120 23.5h-14q-39 0 -83 -9.5t-79 -29.5q-4 -23 -7 -45.5t-5 -44.5 q-18 -6 -36.5 -11.5t-39.5 -9.5l2 170q76 29 149.5 46.5t122.5 21.5q39 0 88.5 -5t90.5 -24.5t64.5 -58.5t10.5 -107l-4 -22q-6 -39 -30.5 -71t-62.5 -63.5t-85 -64.5t-98 -74l-287 -229h424q10 23 14 46.5t11 51.5h75l-32 -188h-635z" />
<glyph unicode="&#xbe;" horiz-adv-x="1456" d="M150 684l49 80q43 -16 97 -33.5t126 -17.5q35 0 74 8t72.5 26.5t58 49t32.5 75.5q16 84 -28.5 122t-141.5 38h-45l2 80h56q68 0 123 24.5t69 106.5q8 39 -1 63.5t-30.5 38t-53 17.5t-70.5 4q-41 0 -78 -7t-76 -24q-4 -23 -7 -44t-5 -44l-80 -18l6 172q72 23 134.5 38 t127.5 15q39 0 86 -5t87 -24.5t63.5 -58.5t11.5 -106l-2 -13q-12 -70 -47 -103.5t-90 -56.5q66 -27 93.5 -71.5t8.5 -145.5l-2 -10q-10 -61 -45 -105t-85 -73t-111.5 -42t-122.5 -13q-82 0 -147.5 19.5t-108.5 37.5zM340 0l1077 1454h125l-1085 -1454h-117zM725 109l14 81 l516 615h123l-512 -606h348l15 75q10 57 6 101.5t-6 60.5l71 21q23 -20 30 -74.5t-11 -183.5h121l-15 -90h-120l-25 -140l-8 1t-19.5 3t-22.5 5.5t-16 3.5q-8 0 -19 1t-17 1l22 125h-475z" />
<glyph unicode="&#xbf;" horiz-adv-x="1198" d="M110.5 -99.5q-14.5 58.5 0.5 142.5q12 76 57 138.5t104.5 114.5t125 96t123 84t97 78t48.5 77l26 151h135l-32 -186q-12 -57 -53.5 -101t-97.5 -83t-120.5 -76t-121 -80t-97.5 -95t-53 -120q-14 -78 6.5 -125t65.5 -71.5t108.5 -33t136.5 -8.5q66 2 161 18.5t194 61.5 q10 47 17 96.5t13 100.5l113 16q-6 -76 -13 -151.5t-14 -151.5q-158 -57 -268 -84.5t-211 -27.5q-47 0 -103.5 4t-111.5 16t-104 35.5t-83 64.5t-48.5 99.5zM692 1077q10 51 47 78t84 27t76 -27t19 -78q-8 -49 -46 -76.5t-86 -27.5q-47 0 -75.5 26.5t-18.5 77.5z" />
<glyph unicode="&#xc0;" horiz-adv-x="1503" d="M35 0l20 117h168l621 1218h-94l22 119h334l211 -1337h168l-21 -117h-278l-68 420h-592q-55 -106 -108 -211t-105 -209h-278zM584 541h520l-121 794zM946 1784h133q14 -61 29.5 -121.5t31.5 -119.5h-123q-18 59 -36.5 119.5t-34.5 121.5z" />
<glyph unicode="&#xc1;" horiz-adv-x="1503" d="M35 0l20 117h168l621 1218h-94l22 119h334l211 -1337h168l-21 -117h-278l-68 420h-592q-55 -106 -108 -211t-105 -209h-278zM584 541h520l-121 794zM903 1543l147 241h133l-157 -241h-123z" />
<glyph unicode="&#xc2;" horiz-adv-x="1503" d="M35 0l20 117h168l621 1218h-94l22 119h334l211 -1337h168l-21 -117h-278l-68 420h-592q-55 -106 -108 -211t-105 -209h-278zM584 541h520l-121 794zM709 1559l315 287h99l219 -287h-133l-146 211l-221 -211h-133z" />
<glyph unicode="&#xc3;" horiz-adv-x="1503" d="M35 0l20 117h168l621 1218h-94l22 119h334l211 -1337h168l-21 -117h-278l-68 420h-592q-55 -106 -108 -211t-105 -209h-278zM584 541h520l-121 794zM760 1710q37 33 64.5 52.5t50 30t44 13.5t45.5 3q25 0 50.5 -10.5t51 -22.5t53.5 -22.5t54 -10.5q23 0 65 13.5t87 52.5 l24 -72q-37 -33 -64.5 -52.5t-51 -30.5t-45 -14t-45.5 -3q-23 0 -50.5 10t-55.5 22.5t-54.5 22.5t-46.5 10h-23q-27 -4 -60.5 -19.5t-70.5 -45.5z" />
<glyph unicode="&#xc4;" horiz-adv-x="1503" d="M35 0l20 117h168l621 1218h-94l22 119h334l211 -1337h168l-21 -117h-278l-68 420h-592q-55 -106 -108 -211t-105 -209h-278zM584 541h520l-121 794zM721 1727q8 45 41 69.5t74 24.5t65.5 -24.5t16.5 -69.5t-41 -69.5t-74 -24.5t-65.5 24.5t-16.5 69.5zM1190 1727 q8 45 41 69.5t76 24.5q41 0 65.5 -24.5t16.5 -69.5t-41 -69.5t-74 -24.5q-43 0 -67.5 24.5t-16.5 69.5z" />
<glyph unicode="&#xc5;" horiz-adv-x="1503" d="M35 0l20 117h168l621 1218h-94l22 119h334l211 -1337h168l-21 -117h-278l-68 420h-592q-55 -106 -108 -211t-105 -209h-278zM584 541h520l-121 794zM856 1745q6 41 29 78t54.5 64.5t71.5 43t83 15.5q86 0 133 -58.5t33 -142.5q-16 -86 -84 -143t-154 -57q-43 0 -76.5 15 t-56 42t-32 63.5t-1.5 79.5zM938 1745q-10 -55 18 -90t81 -35t92 35t49 90q10 53 -17.5 88t-80.5 35t-92 -34.5t-50 -88.5z" />
<glyph unicode="&#xc6;" horiz-adv-x="2062" d="M88 0l21 117h161l871 1337h1038l-51 -291h-117l29 172h-748l2 -514h535l-21 -119h-508v-587l566 2l28 172h111l-49 -289h-930l4 117h125l6 325h-530l-287 -442h-256zM705 563h448q0 174 -1 350.5t1 350.5q-115 -174 -225.5 -350.5t-222.5 -350.5z" />
<glyph unicode="&#xc7;" horiz-adv-x="1296" d="M211 288q-25 124 10 322l39 219q33 186 95.5 311.5t151.5 200t204.5 105.5t255.5 31q82 0 193.5 -17.5t250.5 -64.5l-72 -295h-108l33 196q-74 29 -162 45.5t-154 16.5q-86 0 -170 -16.5t-155.5 -72t-128 -159.5t-86.5 -281l-37 -208q-29 -160 -14.5 -261.5t61.5 -161 t121.5 -82t171.5 -22.5q80 0 149.5 11.5t130 26.5t112.5 33.5t95 33.5l23 -107q-45 -16 -100.5 -36.5t-121 -38t-143.5 -29t-166 -11.5q-117 0 -218 25t-168.5 93.5t-92.5 192.5zM418 -397l301 424h94l-245 -424h-150z" />
<glyph unicode="&#xc8;" horiz-adv-x="1290" d="M129 0l21 117h151l213 1218h-168l23 119h1046l-51 -291h-119l29 172h-621l-94 -534h526l-20 -119h-526l-99 -565h654l28 172h119l-49 -289h-1063zM840 1784h133q14 -61 29.5 -121.5t31.5 -119.5h-123q-18 59 -36.5 119.5t-34.5 121.5z" />
<glyph unicode="&#xc9;" horiz-adv-x="1290" d="M129 0l21 117h151l213 1218h-168l23 119h1046l-51 -291h-119l29 172h-621l-94 -534h526l-20 -119h-526l-99 -565h654l28 172h119l-49 -289h-1063zM797 1543l147 241h133l-157 -241h-123z" />
<glyph unicode="&#xca;" horiz-adv-x="1290" d="M129 0l21 117h151l213 1218h-168l23 119h1046l-51 -291h-119l29 172h-621l-94 -534h526l-20 -119h-526l-99 -565h654l28 172h119l-49 -289h-1063zM602 1559l315 287h99l219 -287h-133l-146 211l-221 -211h-133z" />
<glyph unicode="&#xcb;" horiz-adv-x="1290" d="M129 0l21 117h151l213 1218h-168l23 119h1046l-51 -291h-119l29 172h-621l-94 -534h526l-20 -119h-526l-99 -565h654l28 172h119l-49 -289h-1063zM614 1727q8 45 41 69.5t74 24.5t65.5 -24.5t16.5 -69.5t-41 -69.5t-74 -24.5t-65.5 24.5t-16.5 69.5zM1083 1727 q8 45 41 69.5t76 24.5q41 0 65.5 -24.5t16.5 -69.5t-41 -69.5t-74 -24.5q-43 0 -67.5 24.5t-16.5 69.5z" />
<glyph unicode="&#xcc;" horiz-adv-x="595" d="M59 0l21 117h172l213 1218h-172l22 119h482l-23 -119h-170l-213 -1218h170l-20 -117h-482zM492 1784h133q14 -61 29.5 -121.5t31.5 -119.5h-123q-18 59 -36.5 119.5t-34.5 121.5z" />
<glyph unicode="&#xcd;" horiz-adv-x="595" d="M59 0l21 117h172l213 1218h-172l22 119h482l-23 -119h-170l-213 -1218h170l-20 -117h-482zM449 1543l147 241h133l-157 -241h-123z" />
<glyph unicode="&#xce;" horiz-adv-x="595" d="M59 0l21 117h172l213 1218h-172l22 119h482l-23 -119h-170l-213 -1218h170l-20 -117h-482zM258 1559l315 287h99l219 -287h-133l-146 211l-221 -211h-133z" />
<glyph unicode="&#xcf;" horiz-adv-x="595" d="M59 0l21 117h172l213 1218h-172l22 119h482l-23 -119h-170l-213 -1218h170l-20 -117h-482zM270 1727q8 45 41 69.5t74 24.5t65.5 -24.5t16.5 -69.5t-41 -69.5t-74 -24.5t-65.5 24.5t-16.5 69.5zM739 1727q8 45 41 69.5t76 24.5q41 0 65.5 -24.5t16.5 -69.5t-41 -69.5 t-74 -24.5q-43 0 -67.5 24.5t-16.5 69.5z" />
<glyph unicode="&#xd0;" horiz-adv-x="1441" d="M127 0l20 117h138l84 483h-162l20 111h162l109 624h-154l23 119h596q137 0 245.5 -19.5t176 -86t88 -191.5t-16.5 -334l-37 -217q-35 -197 -106.5 -316.5t-166.5 -184t-208 -85t-229 -20.5h-582zM422 117h305q88 0 174 18.5t161 72.5t132 153.5t86 263.5l39 221 q23 121 16.5 205t-32 138t-65.5 84t-88 44t-99.5 16t-98.5 2h-317l-109 -624h207l-20 -111h-207z" />
<glyph unicode="&#xd1;" horiz-adv-x="1683" d="M111 0l20 117h170l213 1218h-170l23 119h327l629 -1251l199 1132h-170l22 119h481l-22 -119h-170l-213 -1218h170l-21 -117h-329q-160 313 -315.5 624.5t-315.5 624.5l-199 -1132h154l-21 -117h-462zM850 1710q37 33 64.5 52.5t50 30t44 13.5t45.5 3q25 0 50.5 -10.5 t51 -22.5t53.5 -22.5t54 -10.5q23 0 65 13.5t87 52.5l24 -72q-37 -33 -64.5 -52.5t-51 -30.5t-45 -14t-45.5 -3q-23 0 -50.5 10t-55.5 22.5t-54.5 22.5t-46.5 10h-23q-27 -4 -60.5 -19.5t-70.5 -45.5z" />
<glyph unicode="&#xd2;" d="M207.5 297q-23.5 127 11.5 328l37 209q37 203 106.5 327.5t160.5 194t197.5 94.5t215.5 25t207 -25t165.5 -93.5t93 -194.5t-10.5 -328l-37 -209q-35 -203 -103.5 -329t-159 -196.5t-198 -96.5t-219.5 -26q-115 0 -213.5 26t-164 96.5t-89 197.5zM348 349 q17 -101 66 -158.5t121.5 -77t158.5 -19.5t166 19.5t147.5 77t119 159t79.5 264.5l37 199q31 172 16.5 278.5t-61.5 166t-121 80t-162 20.5t-168.5 -20.5t-148.5 -80t-119 -166t-82 -278.5l-37 -199q-29 -164 -12 -265zM873 1784h133q14 -61 29.5 -121.5t31.5 -119.5h-123 q-18 59 -36.5 119.5t-34.5 121.5z" />
<glyph unicode="&#xd3;" d="M207.5 297q-23.5 127 11.5 328l37 209q37 203 106.5 327.5t160.5 194t197.5 94.5t215.5 25t207 -25t165.5 -93.5t93 -194.5t-10.5 -328l-37 -209q-35 -203 -103.5 -329t-159 -196.5t-198 -96.5t-219.5 -26q-115 0 -213.5 26t-164 96.5t-89 197.5zM348 349 q17 -101 66 -158.5t121.5 -77t158.5 -19.5t166 19.5t147.5 77t119 159t79.5 264.5l37 199q31 172 16.5 278.5t-61.5 166t-121 80t-162 20.5t-168.5 -20.5t-148.5 -80t-119 -166t-82 -278.5l-37 -199q-29 -164 -12 -265zM830 1543l147 241h133l-157 -241h-123z" />
<glyph unicode="&#xd4;" d="M207.5 297q-23.5 127 11.5 328l37 209q37 203 106.5 327.5t160.5 194t197.5 94.5t215.5 25t207 -25t165.5 -93.5t93 -194.5t-10.5 -328l-37 -209q-35 -203 -103.5 -329t-159 -196.5t-198 -96.5t-219.5 -26q-115 0 -213.5 26t-164 96.5t-89 197.5zM348 349 q17 -101 66 -158.5t121.5 -77t158.5 -19.5t166 19.5t147.5 77t119 159t79.5 264.5l37 199q31 172 16.5 278.5t-61.5 166t-121 80t-162 20.5t-168.5 -20.5t-148.5 -80t-119 -166t-82 -278.5l-37 -199q-29 -164 -12 -265zM635 1559l315 287h99l219 -287h-133l-146 211 l-221 -211h-133z" />
<glyph unicode="&#xd5;" d="M207.5 297q-23.5 127 11.5 328l37 209q37 203 106.5 327.5t160.5 194t197.5 94.5t215.5 25t207 -25t165.5 -93.5t93 -194.5t-10.5 -328l-37 -209q-35 -203 -103.5 -329t-159 -196.5t-198 -96.5t-219.5 -26q-115 0 -213.5 26t-164 96.5t-89 197.5zM348 349 q17 -101 66 -158.5t121.5 -77t158.5 -19.5t166 19.5t147.5 77t119 159t79.5 264.5l37 199q31 172 16.5 278.5t-61.5 166t-121 80t-162 20.5t-168.5 -20.5t-148.5 -80t-119 -166t-82 -278.5l-37 -199q-29 -164 -12 -265zM687 1710q37 33 64.5 52.5t50 30t44 13.5t45.5 3 q25 0 50.5 -10.5t51 -22.5t53.5 -22.5t54 -10.5q23 0 65 13.5t87 52.5l24 -72q-37 -33 -64.5 -52.5t-51 -30.5t-45 -14t-45.5 -3q-23 0 -50.5 10t-55.5 22.5t-54.5 22.5t-46.5 10h-23q-27 -4 -60.5 -19.5t-70.5 -45.5z" />
<glyph unicode="&#xd6;" d="M207.5 297q-23.5 127 11.5 328l37 209q37 203 106.5 327.5t160.5 194t197.5 94.5t215.5 25t207 -25t165.5 -93.5t93 -194.5t-10.5 -328l-37 -209q-35 -203 -103.5 -329t-159 -196.5t-198 -96.5t-219.5 -26q-115 0 -213.5 26t-164 96.5t-89 197.5zM348 349 q17 -101 66 -158.5t121.5 -77t158.5 -19.5t166 19.5t147.5 77t119 159t79.5 264.5l37 199q31 172 16.5 278.5t-61.5 166t-121 80t-162 20.5t-168.5 -20.5t-148.5 -80t-119 -166t-82 -278.5l-37 -199q-29 -164 -12 -265zM647 1727q8 45 41 69.5t74 24.5t65.5 -24.5 t16.5 -69.5t-41 -69.5t-74 -24.5t-65.5 24.5t-16.5 69.5zM1116 1727q8 45 41 69.5t76 24.5q41 0 65.5 -24.5t16.5 -69.5t-41 -69.5t-74 -24.5q-43 0 -67.5 24.5t-16.5 69.5z" />
<glyph unicode="&#xd7;" horiz-adv-x="907" d="M227 383q59 53 121 103.5t123 103.5l-172 211l104 88l170 -209l242 207l72 -88l-244 -207l172 -211l-102 -86q-90 104 -170 207q-59 -53 -121 -103.5t-121 -101.5z" />
<glyph unicode="&#xd8;" d="M199 384q-4 101 20 241l37 209q37 203 106.5 327.5t160.5 194t197.5 94.5t215.5 25q43 0 84 -3.5t80 -11.5l57 119h146l-78 -162q53 -29 95 -75t64.5 -115.5t25.5 -166.5t-19 -226l-37 -209q-35 -203 -103.5 -329t-159 -196.5t-198 -96.5t-219.5 -26q-37 0 -71 2.5 t-66 8.5l-121 -252h-137l135 284q-61 27 -108.5 72t-75 118t-31.5 174zM342 432q0 -78 15.5 -134t45 -94t68.5 -63l576 1207q-27 6 -55.5 8t-59.5 2q-88 0 -172 -20.5t-154.5 -80t-124 -166t-84.5 -278.5l-37 -199q-18 -104 -18 -182zM592 100q49 -6 102 -6q86 0 166 19.5 t147.5 77t119 159t79.5 264.5l37 199q35 205 12.5 317.5t-88.5 165.5z" />
<glyph unicode="&#xd9;" horiz-adv-x="1560" d="M299 1335l23 119h436l-21 -117h-147l-129 -729q-29 -166 -10.5 -267t67.5 -155.5t122 -72t153 -17.5q74 0 151.5 16.5t149 70t128 154.5t87.5 271l127 727h-150l23 119h438l-23 -119h-147l-125 -719q-37 -201 -107.5 -325.5t-161.5 -194t-197.5 -94.5t-213.5 -25 q-106 0 -203.5 25t-164 94.5t-93 194.5t10.5 325l124 719h-147zM975 1784h133q14 -61 29.5 -121.5t31.5 -119.5h-123q-18 59 -36.5 119.5t-34.5 121.5z" />
<glyph unicode="&#xda;" horiz-adv-x="1560" d="M299 1335l23 119h436l-21 -117h-147l-129 -729q-29 -166 -10.5 -267t67.5 -155.5t122 -72t153 -17.5q74 0 151.5 16.5t149 70t128 154.5t87.5 271l127 727h-150l23 119h438l-23 -119h-147l-125 -719q-37 -201 -107.5 -325.5t-161.5 -194t-197.5 -94.5t-213.5 -25 q-106 0 -203.5 25t-164 94.5t-93 194.5t10.5 325l124 719h-147zM932 1543l147 241h133l-157 -241h-123z" />
<glyph unicode="&#xdb;" horiz-adv-x="1560" d="M299 1335l23 119h436l-21 -117h-147l-129 -729q-29 -166 -10.5 -267t67.5 -155.5t122 -72t153 -17.5q74 0 151.5 16.5t149 70t128 154.5t87.5 271l127 727h-150l23 119h438l-23 -119h-147l-125 -719q-37 -201 -107.5 -325.5t-161.5 -194t-197.5 -94.5t-213.5 -25 q-106 0 -203.5 25t-164 94.5t-93 194.5t10.5 325l124 719h-147zM737 1559l315 287h99l219 -287h-133l-146 211l-221 -211h-133z" />
<glyph unicode="&#xdc;" horiz-adv-x="1560" d="M299 1335l23 119h436l-21 -117h-147l-129 -729q-29 -166 -10.5 -267t67.5 -155.5t122 -72t153 -17.5q74 0 151.5 16.5t149 70t128 154.5t87.5 271l127 727h-150l23 119h438l-23 -119h-147l-125 -719q-37 -201 -107.5 -325.5t-161.5 -194t-197.5 -94.5t-213.5 -25 q-106 0 -203.5 25t-164 94.5t-93 194.5t10.5 325l124 719h-147zM749 1727q8 45 41 69.5t74 24.5t65.5 -24.5t16.5 -69.5t-41 -69.5t-74 -24.5t-65.5 24.5t-16.5 69.5zM1218 1727q8 45 41 69.5t76 24.5q41 0 65.5 -24.5t16.5 -69.5t-41 -69.5t-74 -24.5q-43 0 -67.5 24.5 t-16.5 69.5z" />
<glyph unicode="&#xdd;" horiz-adv-x="1386" d="M270 1335l23 119h233q72 -164 142.5 -325.5t144.5 -325.5l559 651h230l-23 -119h-149q-143 -166 -286 -331.5t-284 -331.5l-96 -555h170l-21 -117h-481l21 117h170l96 555q-74 166 -147.5 331.5t-149.5 331.5h-152zM844 1543l147 241h133l-157 -241h-123z" />
<glyph unicode="&#xde;" horiz-adv-x="1234" d="M80 0l20 117h140l292 1661h-139l21 116h428l-21 -116h-153l-60 -330h244q133 0 237.5 -17.5t171 -63.5t92 -128t3.5 -209l-29 -166q-23 -127 -77 -209t-137 -128t-193.5 -63.5t-243.5 -17.5h-244l-57 -329h153l-20 -117h-428zM453 567q59 -2 118.5 -2h118.5q92 0 174 8.5 t146.5 41t111.5 97t72 177.5l20 117q14 113 -9 177t-76.5 97t-132 41t-171.5 8h-118.5t-118.5 -2z" />
<glyph unicode="&#xdf;" horiz-adv-x="1130" d="M-6 -324q23 43 48.5 108.5t43.5 174.5l176 997q12 76 31 148q23 96 71 166.5t112.5 117t139 68t152.5 21.5q82 0 161 -21.5t137 -67t87 -116t12 -168.5l-4 -23q-23 -131 -89 -202.5t-159 -102.5q57 -18 101.5 -47t72 -72t37 -103t-5.5 -140l-4 -29q-20 -117 -88 -195.5 t-159 -127t-194.5 -70t-195.5 -21.5h-32.5t-41 1t-39 1h-30.5q4 27 10 53.5t10 53.5q10 -2 29.5 -2h42.5q61 0 148.5 13t170 48t147 98.5t83.5 165.5q16 92 -6.5 151.5t-72.5 95.5t-123 49.5t-155 13.5h-75q0 27 1 53.5t3 54.5q82 0 159.5 5t141 31t110 80t62.5 150 q12 66 -6.5 115t-57 83t-92 50.5t-114.5 16.5q-59 0 -113.5 -18.5t-97.5 -53.5t-73 -86t-42 -119l-186 -1055q-18 -102 -39 -169.5t-43.5 -108.5t-43 -62.5t-38.5 -29.5q-20 8 -40 14z" />
<glyph unicode="&#xe0;" horiz-adv-x="1157" d="M154.5 231.5q-19.5 96.5 7.5 243.5l26 143q27 158 83.5 260.5t130 161t161.5 81t180 22.5q74 0 144.5 -15.5t129 -38t101.5 -46t60 -37.5l-144 -809q-10 -66 6.5 -82.5t38.5 -16.5q16 0 43 2t68 17l4 -90q-59 -20 -95 -28.5t-71 -8.5q-88 0 -115 71q-29 -14 -60.5 -28.5 t-76.5 -26.5t-108.5 -19t-155.5 -7q-86 0 -162 21.5t-126 77.5t-69.5 152.5zM292.5 283.5q14.5 -78.5 54.5 -121.5t98.5 -58.5t125.5 -15.5q63 0 112.5 6t86.5 16.5t66.5 22.5t56.5 25l137 780q-43 39 -121 64.5t-170 25.5q-61 0 -125.5 -16.5t-121 -62.5t-101.5 -126 t-67 -205l-23 -129q-23 -127 -8.5 -205.5zM729 1458h133q14 -61 29.5 -121.5t31.5 -119.5h-123q-18 59 -36.5 119.5t-34.5 121.5z" />
<glyph unicode="&#xe1;" horiz-adv-x="1157" d="M154.5 231.5q-19.5 96.5 7.5 243.5l26 143q27 158 83.5 260.5t130 161t161.5 81t180 22.5q74 0 144.5 -15.5t129 -38t101.5 -46t60 -37.5l-144 -809q-10 -66 6.5 -82.5t38.5 -16.5q16 0 43 2t68 17l4 -90q-59 -20 -95 -28.5t-71 -8.5q-88 0 -115 71q-29 -14 -60.5 -28.5 t-76.5 -26.5t-108.5 -19t-155.5 -7q-86 0 -162 21.5t-126 77.5t-69.5 152.5zM292.5 283.5q14.5 -78.5 54.5 -121.5t98.5 -58.5t125.5 -15.5q63 0 112.5 6t86.5 16.5t66.5 22.5t56.5 25l137 780q-43 39 -121 64.5t-170 25.5q-61 0 -125.5 -16.5t-121 -62.5t-101.5 -126 t-67 -205l-23 -129q-23 -127 -8.5 -205.5zM686 1217l147 241h133l-157 -241h-123z" />
<glyph unicode="&#xe2;" horiz-adv-x="1157" d="M154.5 231.5q-19.5 96.5 7.5 243.5l26 143q27 158 83.5 260.5t130 161t161.5 81t180 22.5q74 0 144.5 -15.5t129 -38t101.5 -46t60 -37.5l-144 -809q-10 -66 6.5 -82.5t38.5 -16.5q16 0 43 2t68 17l4 -90q-59 -20 -95 -28.5t-71 -8.5q-88 0 -115 71q-29 -14 -60.5 -28.5 t-76.5 -26.5t-108.5 -19t-155.5 -7q-86 0 -162 21.5t-126 77.5t-69.5 152.5zM292.5 283.5q14.5 -78.5 54.5 -121.5t98.5 -58.5t125.5 -15.5q63 0 112.5 6t86.5 16.5t66.5 22.5t56.5 25l137 780q-43 39 -121 64.5t-170 25.5q-61 0 -125.5 -16.5t-121 -62.5t-101.5 -126 t-67 -205l-23 -129q-23 -127 -8.5 -205.5zM492 1233l315 287h99l219 -287h-133l-146 211l-221 -211h-133z" />
<glyph unicode="&#xe3;" horiz-adv-x="1157" d="M154.5 231.5q-19.5 96.5 7.5 243.5l26 143q27 158 83.5 260.5t130 161t161.5 81t180 22.5q74 0 144.5 -15.5t129 -38t101.5 -46t60 -37.5l-144 -809q-10 -66 6.5 -82.5t38.5 -16.5q16 0 43 2t68 17l4 -90q-59 -20 -95 -28.5t-71 -8.5q-88 0 -115 71q-29 -14 -60.5 -28.5 t-76.5 -26.5t-108.5 -19t-155.5 -7q-86 0 -162 21.5t-126 77.5t-69.5 152.5zM292.5 283.5q14.5 -78.5 54.5 -121.5t98.5 -58.5t125.5 -15.5q63 0 112.5 6t86.5 16.5t66.5 22.5t56.5 25l137 780q-43 39 -121 64.5t-170 25.5q-61 0 -125.5 -16.5t-121 -62.5t-101.5 -126 t-67 -205l-23 -129q-23 -127 -8.5 -205.5zM543 1384q37 33 64.5 52.5t50 30t44 13.5t45.5 3q25 0 50.5 -10.5t51 -22.5t53.5 -22.5t54 -10.5q23 0 65 13.5t87 52.5l24 -72q-37 -33 -64.5 -52.5t-51 -30.5t-45 -14t-45.5 -3q-23 0 -50.5 10t-55.5 22.5t-54.5 22.5t-46.5 10 h-23q-27 -4 -60.5 -19.5t-70.5 -45.5z" />
<glyph unicode="&#xe4;" horiz-adv-x="1157" d="M154.5 231.5q-19.5 96.5 7.5 243.5l26 143q27 158 83.5 260.5t130 161t161.5 81t180 22.5q74 0 144.5 -15.5t129 -38t101.5 -46t60 -37.5l-144 -809q-10 -66 6.5 -82.5t38.5 -16.5q16 0 43 2t68 17l4 -90q-59 -20 -95 -28.5t-71 -8.5q-88 0 -115 71q-29 -14 -60.5 -28.5 t-76.5 -26.5t-108.5 -19t-155.5 -7q-86 0 -162 21.5t-126 77.5t-69.5 152.5zM292.5 283.5q14.5 -78.5 54.5 -121.5t98.5 -58.5t125.5 -15.5q63 0 112.5 6t86.5 16.5t66.5 22.5t56.5 25l137 780q-43 39 -121 64.5t-170 25.5q-61 0 -125.5 -16.5t-121 -62.5t-101.5 -126 t-67 -205l-23 -129q-23 -127 -8.5 -205.5zM503 1401q8 45 41 69.5t74 24.5t65.5 -24.5t16.5 -69.5t-41 -69.5t-74 -24.5t-65.5 24.5t-16.5 69.5zM972 1401q8 45 41 69.5t76 24.5q41 0 65.5 -24.5t16.5 -69.5t-41 -69.5t-74 -24.5q-43 0 -67.5 24.5t-16.5 69.5z" />
<glyph unicode="&#xe5;" horiz-adv-x="1157" d="M154.5 231.5q-19.5 96.5 7.5 243.5l26 143q27 158 83.5 260.5t130 161t161.5 81t180 22.5q74 0 144.5 -15.5t129 -38t101.5 -46t60 -37.5l-144 -809q-10 -66 6.5 -82.5t38.5 -16.5q16 0 43 2t68 17l4 -90q-59 -20 -95 -28.5t-71 -8.5q-88 0 -115 71q-29 -14 -60.5 -28.5 t-76.5 -26.5t-108.5 -19t-155.5 -7q-86 0 -162 21.5t-126 77.5t-69.5 152.5zM292.5 283.5q14.5 -78.5 54.5 -121.5t98.5 -58.5t125.5 -15.5q63 0 112.5 6t86.5 16.5t66.5 22.5t56.5 25l137 780q-43 39 -121 64.5t-170 25.5q-61 0 -125.5 -16.5t-121 -62.5t-101.5 -126 t-67 -205l-23 -129q-23 -127 -8.5 -205.5zM639 1419q6 41 29 78t54.5 64.5t71.5 43t83 15.5q86 0 133 -58.5t33 -142.5q-16 -86 -84 -143t-154 -57q-43 0 -76.5 15t-56 42t-32 63.5t-1.5 79.5zM721 1419q-10 -55 18 -90t81 -35t92 35t49 90q10 53 -17.5 88t-80.5 35 t-92 -34.5t-50 -88.5z" />
<glyph unicode="&#xe6;" horiz-adv-x="1941" d="M190 319l9 50q12 70 46 123t94 87.5t150.5 53t212.5 18.5h263q14 92 15 161t-17.5 114t-60.5 67.5t-114 22.5q-78 0 -155.5 -11.5t-147.5 -21.5l-10 -63q-23 0 -44 -1t-44 -1q4 41 8 81.5t8 81.5q41 10 93.5 20.5t109 18.5t112.5 13.5t105 5.5q70 0 119 -14.5t83 -40 t54.5 -61.5t30.5 -77q41 59 94 98t112.5 60.5t123 30t127.5 8.5q90 0 167.5 -21.5t131 -74t74 -139.5t-2.5 -216q-8 -41 -18 -88t-21 -74h-794q-25 -143 -10.5 -228t55.5 -130t100.5 -58.5t124.5 -13.5q129 0 215 12.5t152 32.5q12 -53 22 -102q-72 -29 -171 -47.5 t-234 -18.5q-59 0 -120.5 8.5t-115 28t-93.5 55t-58 91.5q-35 -59 -85 -94t-110.5 -53.5t-127 -23.5t-130.5 -5q-207 0 -281.5 90t-46.5 245zM324 317q-23 -117 37.5 -166t195.5 -49h2q61 0 118.5 9.5t105.5 41t85 93t56 166.5l22 131h-258q-90 0 -152.5 -9.5t-105.5 -30 t-66.5 -54t-31.5 -84.5zM1124 639h668q6 18 10 39.5t8 44.5q14 82 -4 140.5t-58 95t-95.5 53t-112.5 16.5q-59 0 -122.5 -11t-121 -51t-103.5 -118t-69 -209z" />
<glyph unicode="&#xe7;" horiz-adv-x="1093" d="M204.5 218q-20.5 95 8.5 249l31 176q27 156 84 253t133 152.5t165 75t183 19.5q45 0 81 -2t72.5 -7.5t79.5 -14.5t99 -25q-12 -66 -26.5 -129.5t-24.5 -126.5h-103l25 153q-53 23 -115.5 30t-108.5 7q-57 0 -119.5 -13.5t-119.5 -53t-102.5 -114.5t-65.5 -196l-33 -180 q-25 -135 -2 -211t69 -113.5t107.5 -46t116.5 -8.5q115 0 199 19.5t149 42.5q4 -29 8 -55.5t11 -55.5q-72 -29 -175.5 -46t-238.5 -17q-94 0 -176 18t-136.5 71.5t-75 148.5zM315 -397l301 424h94l-245 -424h-150z" />
<glyph unicode="&#xe8;" horiz-adv-x="1165" d="M199.5 220q-23.5 97 3.5 251l30 174q27 158 85.5 255t136 151.5t169 73t183.5 18.5t171 -13.5t132 -55.5t74.5 -121t-0.5 -208q-10 -68 -54.5 -111.5t-110 -69t-148.5 -36t-172 -10.5t-180 6t-173 13q-27 -147 -16.5 -233.5t48.5 -131.5t99.5 -58.5t138.5 -13.5 q129 0 214 12.5t153 32.5q8 -49 23 -102q-72 -29 -172.5 -47.5t-235.5 -18.5q-94 0 -177 19.5t-140.5 73t-81 150.5zM365 643q113 -16 232.5 -21.5t221 9t171 50.5t81.5 103q14 82 -7.5 131.5t-65.5 74t-101.5 31.5t-114.5 7q-59 0 -123.5 -10t-122 -49t-102.5 -116 t-69 -210zM719 1458h133q14 -61 29.5 -121.5t31.5 -119.5h-123q-18 59 -36.5 119.5t-34.5 121.5z" />
<glyph unicode="&#xe9;" horiz-adv-x="1165" d="M199.5 220q-23.5 97 3.5 251l30 174q27 158 85.5 255t136 151.5t169 73t183.5 18.5t171 -13.5t132 -55.5t74.5 -121t-0.5 -208q-10 -68 -54.5 -111.5t-110 -69t-148.5 -36t-172 -10.5t-180 6t-173 13q-27 -147 -16.5 -233.5t48.5 -131.5t99.5 -58.5t138.5 -13.5 q129 0 214 12.5t153 32.5q8 -49 23 -102q-72 -29 -172.5 -47.5t-235.5 -18.5q-94 0 -177 19.5t-140.5 73t-81 150.5zM365 643q113 -16 232.5 -21.5t221 9t171 50.5t81.5 103q14 82 -7.5 131.5t-65.5 74t-101.5 31.5t-114.5 7q-59 0 -123.5 -10t-122 -49t-102.5 -116 t-69 -210zM676 1217l147 241h133l-157 -241h-123z" />
<glyph unicode="&#xea;" horiz-adv-x="1165" d="M199.5 220q-23.5 97 3.5 251l30 174q27 158 85.5 255t136 151.5t169 73t183.5 18.5t171 -13.5t132 -55.5t74.5 -121t-0.5 -208q-10 -68 -54.5 -111.5t-110 -69t-148.5 -36t-172 -10.5t-180 6t-173 13q-27 -147 -16.5 -233.5t48.5 -131.5t99.5 -58.5t138.5 -13.5 q129 0 214 12.5t153 32.5q8 -49 23 -102q-72 -29 -172.5 -47.5t-235.5 -18.5q-94 0 -177 19.5t-140.5 73t-81 150.5zM365 643q113 -16 232.5 -21.5t221 9t171 50.5t81.5 103q14 82 -7.5 131.5t-65.5 74t-101.5 31.5t-114.5 7q-59 0 -123.5 -10t-122 -49t-102.5 -116 t-69 -210zM483 1233l315 287h99l219 -287h-133l-146 211l-221 -211h-133z" />
<glyph unicode="&#xeb;" horiz-adv-x="1165" d="M199.5 220q-23.5 97 3.5 251l30 174q27 158 85.5 255t136 151.5t169 73t183.5 18.5t171 -13.5t132 -55.5t74.5 -121t-0.5 -208q-10 -68 -54.5 -111.5t-110 -69t-148.5 -36t-172 -10.5t-180 6t-173 13q-27 -147 -16.5 -233.5t48.5 -131.5t99.5 -58.5t138.5 -13.5 q129 0 214 12.5t153 32.5q8 -49 23 -102q-72 -29 -172.5 -47.5t-235.5 -18.5q-94 0 -177 19.5t-140.5 73t-81 150.5zM365 643q113 -16 232.5 -21.5t221 9t171 50.5t81.5 103q14 82 -7.5 131.5t-65.5 74t-101.5 31.5t-114.5 7q-59 0 -123.5 -10t-122 -49t-102.5 -116 t-69 -210zM493 1401q8 45 41 69.5t74 24.5t65.5 -24.5t16.5 -69.5t-41 -69.5t-74 -24.5t-65.5 24.5t-16.5 69.5zM962 1401q8 45 41 69.5t76 24.5q41 0 65.5 -24.5t16.5 -69.5t-41 -69.5t-74 -24.5q-43 0 -67.5 24.5t-16.5 69.5z" />
<glyph unicode="&#xec;" horiz-adv-x="649" d="M266 1010l23 118h323l-153 -878q-16 -92 9.5 -121t123.5 -12l-17 -117q-70 -14 -125 -13t-89.5 24.5t-48 72.5t0.5 131l140 795h-187zM428 1458h133q14 -61 29.5 -121.5t31.5 -119.5h-123q-18 59 -36.5 119.5t-34.5 121.5z" />
<glyph unicode="&#xed;" horiz-adv-x="649" d="M266 1010l23 118h323l-153 -878q-16 -92 9.5 -121t123.5 -12l-17 -117q-70 -14 -125 -13t-89.5 24.5t-48 72.5t0.5 131l140 795h-187zM418 1217l147 241h133l-157 -241h-123z" />
<glyph unicode="&#xee;" horiz-adv-x="649" d="M225 1233l315 287h99l219 -287h-133l-146 211l-221 -211h-133zM266 1010l23 118h323l-153 -878q-16 -92 9.5 -121t123.5 -12l-17 -117q-70 -14 -125 -13t-89.5 24.5t-48 72.5t0.5 131l140 795h-187z" />
<glyph unicode="&#xef;" horiz-adv-x="649" d="M237 1401q8 45 41 69.5t74 24.5t65.5 -24.5t16.5 -69.5t-41 -69.5t-74 -24.5t-65.5 24.5t-16.5 69.5zM266 1010l23 118h323l-153 -878q-16 -92 9.5 -121t123.5 -12l-17 -117q-70 -14 -125 -13t-89.5 24.5t-48 72.5t0.5 131l140 795h-187zM706 1401q8 45 41 69.5t76 24.5 q41 0 65.5 -24.5t16.5 -69.5t-41 -69.5t-74 -24.5q-43 0 -67.5 24.5t-16.5 69.5z" />
<glyph unicode="&#xf0;" horiz-adv-x="1372" d="M168 444q31 172 99.5 267.5t161.5 140.5t202.5 54t222.5 9q68 0 120 -7t93 -19t74 -27.5t63 -30.5q20 117 28.5 212.5t-24.5 166.5q-96 -39 -175 -71.5t-175 -73.5q0 25 -10 45t-10 45l323 137q-14 20 -47 46t-70.5 48.5t-77.5 39t-67 16.5q23 43 53 90q49 0 98.5 -18.5 t93.5 -45t82 -58.5t62 -60q70 31 126 54t126 52l23 -90q-55 -25 -111.5 -48.5t-112.5 -47.5q27 -66 34 -147t-11 -185l-64 -369q-35 -197 -94 -315.5t-142 -182t-188.5 -83t-232.5 -19.5q-121 0 -219 20.5t-162.5 74t-90.5 145.5t-1 235zM309 444q-23 -127 3 -198.5 t79 -107.5t124 -45t140 -9q82 0 159 10t141.5 53t114.5 131.5t77 243.5l39 211q-55 23 -142.5 47.5t-203.5 24.5h-97q-66 0 -134 -12.5t-127.5 -50t-105.5 -109.5t-67 -189z" />
<glyph unicode="&#xf1;" horiz-adv-x="1353" d="M211 0l160 907q12 72 -3.5 93.5t-39.5 21.5q-12 0 -21.5 -1t-21.5 -3v100q18 4 41.5 11.5t42.5 7.5q49 0 71.5 -12.5t31.5 -34t10 -51t7 -66.5q39 41 92.5 72.5t112 53t119.5 33t121 11.5q106 0 175 -38t106.5 -99.5t46 -141.5t-6.5 -166l-79 -448q-16 -92 9 -121 t124 -12l-13 -117q-70 -14 -125 -13t-89.5 24.5t-48 72.5t0.5 131l88 485q27 162 -34.5 242t-174.5 80q-61 0 -123.5 -12.5t-119 -37t-103.5 -64.5t-78 -95l-143 -813h-135zM658 1384q37 33 64.5 52.5t50 30t44 13.5t45.5 3q25 0 50.5 -10.5t51 -22.5t53.5 -22.5t54 -10.5 q23 0 65 13.5t87 52.5l24 -72q-37 -33 -64.5 -52.5t-51 -30.5t-45 -14t-45.5 -3q-23 0 -50.5 10t-55.5 22.5t-54.5 22.5t-46.5 10h-23q-27 -4 -60.5 -19.5t-70.5 -45.5z" />
<glyph unicode="&#xf2;" horiz-adv-x="1095" d="M151.5 216q-20.5 95 8.5 249l30 176q27 158 82.5 256t129 152.5t161.5 74t182 19.5q92 0 173 -19.5t136.5 -74t77 -152.5t-5.5 -254l-30 -172q-29 -156 -83.5 -252t-128 -149.5t-162.5 -71.5t-183 -18t-176 18t-136.5 70.5t-75 147.5zM287.5 267.5 q17.5 -72.5 58.5 -111.5t98.5 -50.5t116.5 -11.5q55 0 115.5 11.5t116 49.5t99.5 110.5t66 195.5l35 190q20 123 3 198t-59 115t-99.5 52t-112.5 12q-57 0 -117.5 -13.5t-116 -53t-99.5 -113.5t-64 -195l-35 -190q-23 -123 -5.5 -195.5zM684 1458h133q14 -61 29.5 -121.5 t31.5 -119.5h-123q-18 59 -36.5 119.5t-34.5 121.5z" />
<glyph unicode="&#xf3;" horiz-adv-x="1095" d="M151.5 216q-20.5 95 8.5 249l30 176q27 158 82.5 256t129 152.5t161.5 74t182 19.5q92 0 173 -19.5t136.5 -74t77 -152.5t-5.5 -254l-30 -172q-29 -156 -83.5 -252t-128 -149.5t-162.5 -71.5t-183 -18t-176 18t-136.5 70.5t-75 147.5zM287.5 267.5 q17.5 -72.5 58.5 -111.5t98.5 -50.5t116.5 -11.5q55 0 115.5 11.5t116 49.5t99.5 110.5t66 195.5l35 190q20 123 3 198t-59 115t-99.5 52t-112.5 12q-57 0 -117.5 -13.5t-116 -53t-99.5 -113.5t-64 -195l-35 -190q-23 -123 -5.5 -195.5zM641 1217l147 241h133l-157 -241 h-123z" />
<glyph unicode="&#xf4;" horiz-adv-x="1095" d="M151.5 216q-20.5 95 8.5 249l30 176q27 158 82.5 256t129 152.5t161.5 74t182 19.5q92 0 173 -19.5t136.5 -74t77 -152.5t-5.5 -254l-30 -172q-29 -156 -83.5 -252t-128 -149.5t-162.5 -71.5t-183 -18t-176 18t-136.5 70.5t-75 147.5zM287.5 267.5 q17.5 -72.5 58.5 -111.5t98.5 -50.5t116.5 -11.5q55 0 115.5 11.5t116 49.5t99.5 110.5t66 195.5l35 190q20 123 3 198t-59 115t-99.5 52t-112.5 12q-57 0 -117.5 -13.5t-116 -53t-99.5 -113.5t-64 -195l-35 -190q-23 -123 -5.5 -195.5zM448 1233l315 287h99l219 -287h-133 l-146 211l-221 -211h-133z" />
<glyph unicode="&#xf5;" horiz-adv-x="1095" d="M151.5 216q-20.5 95 8.5 249l30 176q27 158 82.5 256t129 152.5t161.5 74t182 19.5q92 0 173 -19.5t136.5 -74t77 -152.5t-5.5 -254l-30 -172q-29 -156 -83.5 -252t-128 -149.5t-162.5 -71.5t-183 -18t-176 18t-136.5 70.5t-75 147.5zM287.5 267.5 q17.5 -72.5 58.5 -111.5t98.5 -50.5t116.5 -11.5q55 0 115.5 11.5t116 49.5t99.5 110.5t66 195.5l35 190q20 123 3 198t-59 115t-99.5 52t-112.5 12q-57 0 -117.5 -13.5t-116 -53t-99.5 -113.5t-64 -195l-35 -190q-23 -123 -5.5 -195.5zM498 1384q37 33 64.5 52.5t50 30 t44 13.5t45.5 3q25 0 50.5 -10.5t51 -22.5t53.5 -22.5t54 -10.5q23 0 65 13.5t87 52.5l24 -72q-37 -33 -64.5 -52.5t-51 -30.5t-45 -14t-45.5 -3q-23 0 -50.5 10t-55.5 22.5t-54.5 22.5t-46.5 10h-23q-27 -4 -60.5 -19.5t-70.5 -45.5z" />
<glyph unicode="&#xf6;" horiz-adv-x="1095" d="M151.5 216q-20.5 95 8.5 249l30 176q27 158 82.5 256t129 152.5t161.5 74t182 19.5q92 0 173 -19.5t136.5 -74t77 -152.5t-5.5 -254l-30 -172q-29 -156 -83.5 -252t-128 -149.5t-162.5 -71.5t-183 -18t-176 18t-136.5 70.5t-75 147.5zM287.5 267.5 q17.5 -72.5 58.5 -111.5t98.5 -50.5t116.5 -11.5q55 0 115.5 11.5t116 49.5t99.5 110.5t66 195.5l35 190q20 123 3 198t-59 115t-99.5 52t-112.5 12q-57 0 -117.5 -13.5t-116 -53t-99.5 -113.5t-64 -195l-35 -190q-23 -123 -5.5 -195.5zM458 1401q8 45 41 69.5t74 24.5 t65.5 -24.5t16.5 -69.5t-41 -69.5t-74 -24.5t-65.5 24.5t-16.5 69.5zM927 1401q8 45 41 69.5t76 24.5q41 0 65.5 -24.5t16.5 -69.5t-41 -69.5t-74 -24.5q-43 0 -67.5 24.5t-16.5 69.5z" />
<glyph unicode="&#xf7;" horiz-adv-x="980" d="M186 528l21 119h764l-21 -119h-764zM387 145q10 51 47 78t84 27t76 -26.5t18 -78.5q-10 -51 -47 -77.5t-84 -26.5t-75.5 26.5t-18.5 77.5zM537 995q10 49 47 77t84 28t75.5 -26.5t18.5 -78.5q-10 -51 -47 -77.5t-84 -26.5t-75.5 25.5t-18.5 78.5z" />
<glyph unicode="&#xf8;" horiz-adv-x="1095" d="M127 -387l878 1843h146l-887 -1843h-137zM151.5 216q-20.5 95 8.5 249l30 176q27 158 82.5 256t129 152.5t161.5 74t182 19.5q92 0 173 -19.5t136.5 -74t77 -152.5t-5.5 -254l-30 -172q-29 -156 -83.5 -252t-128 -149.5t-162.5 -71.5t-183 -18t-176 18t-136.5 70.5 t-75 147.5zM287.5 267.5q17.5 -72.5 58.5 -111.5t98.5 -50.5t116.5 -11.5q55 0 115.5 11.5t116 49.5t99.5 110.5t66 195.5l35 190q20 123 3 198t-59 115t-99.5 52t-112.5 12q-57 0 -117.5 -13.5t-116 -53t-99.5 -113.5t-64 -195l-35 -190q-23 -123 -5.5 -195.5z" />
<glyph unicode="&#xf9;" horiz-adv-x="1294" d="M215 1010l23 118h292l-114 -645q-20 -117 -11 -190.5t41.5 -115.5t85 -58.5t115.5 -16.5q55 0 116.5 7.5t115 36t95.5 89t60 164.5l107 611h-162l20 116h297l-157 -901q-23 -119 43 -119q18 0 42.5 7.5t53.5 17.5q0 -25 1 -53.5t5 -50.5q-57 -20 -97 -27.5t-73 -7.5 q-53 0 -84 26.5t-22 102.5q-68 -80 -171.5 -107.5t-211.5 -27.5q-86 0 -161 18.5t-126 71.5t-69.5 148t7.5 249l95 537h-156zM785 1458h133q14 -61 29.5 -121.5t31.5 -119.5h-123q-18 59 -36.5 119.5t-34.5 121.5z" />
<glyph unicode="&#xfa;" horiz-adv-x="1294" d="M215 1010l23 118h292l-114 -645q-20 -117 -11 -190.5t41.5 -115.5t85 -58.5t115.5 -16.5q55 0 116.5 7.5t115 36t95.5 89t60 164.5l107 611h-162l20 116h297l-157 -901q-23 -119 43 -119q18 0 42.5 7.5t53.5 17.5q0 -25 1 -53.5t5 -50.5q-57 -20 -97 -27.5t-73 -7.5 q-53 0 -84 26.5t-22 102.5q-68 -80 -171.5 -107.5t-211.5 -27.5q-86 0 -161 18.5t-126 71.5t-69.5 148t7.5 249l95 537h-156zM742 1217l147 241h133l-157 -241h-123z" />
<glyph unicode="&#xfb;" horiz-adv-x="1294" d="M215 1010l23 118h292l-114 -645q-20 -117 -11 -190.5t41.5 -115.5t85 -58.5t115.5 -16.5q55 0 116.5 7.5t115 36t95.5 89t60 164.5l107 611h-162l20 116h297l-157 -901q-23 -119 43 -119q18 0 42.5 7.5t53.5 17.5q0 -25 1 -53.5t5 -50.5q-57 -20 -97 -27.5t-73 -7.5 q-53 0 -84 26.5t-22 102.5q-68 -80 -171.5 -107.5t-211.5 -27.5q-86 0 -161 18.5t-126 71.5t-69.5 148t7.5 249l95 537h-156zM547 1233l315 287h99l219 -287h-133l-146 211l-221 -211h-133z" />
<glyph unicode="&#xfc;" horiz-adv-x="1294" d="M215 1010l23 118h292l-114 -645q-20 -117 -11 -190.5t41.5 -115.5t85 -58.5t115.5 -16.5q55 0 116.5 7.5t115 36t95.5 89t60 164.5l107 611h-162l20 116h297l-157 -901q-23 -119 43 -119q18 0 42.5 7.5t53.5 17.5q0 -25 1 -53.5t5 -50.5q-57 -20 -97 -27.5t-73 -7.5 q-53 0 -84 26.5t-22 102.5q-68 -80 -171.5 -107.5t-211.5 -27.5q-86 0 -161 18.5t-126 71.5t-69.5 148t7.5 249l95 537h-156zM559 1401q8 45 41 69.5t74 24.5t65.5 -24.5t16.5 -69.5t-41 -69.5t-74 -24.5t-65.5 24.5t-16.5 69.5zM1028 1401q8 45 41 69.5t76 24.5 q41 0 65.5 -24.5t16.5 -69.5t-41 -69.5t-74 -24.5q-43 0 -67.5 24.5t-16.5 69.5z" />
<glyph unicode="&#xfd;" horiz-adv-x="1329" d="M215 -276l84 96q23 -47 57.5 -74t74.5 -41t85 -18t88 -4q49 0 109.5 8t117 42t101.5 101.5t65 185.5l17 95q-68 -74 -160 -101.5t-197 -27.5q-90 0 -162.5 18.5t-118.5 71.5t-61.5 148t11.5 249l94 537h-158l23 118h290l-112 -632q-20 -119 -12 -195t38.5 -120 t79.5 -61.5t111 -17.5q57 0 118.5 7.5t114 38t93.5 91t59 167.5l106 604h-196l22 118h334l-186 -1056q-29 -160 -84 -259.5t-128 -155.5t-160 -76.5t-179 -20.5q-127 0 -227.5 33.5t-151.5 130.5zM719 1217l147 241h133l-157 -241h-123z" />
<glyph unicode="&#xfe;" horiz-adv-x="1150" d="M66 -432l348 1974q33 -10 64.5 -20.5t64.5 -20.5l-78 -434q80 31 160 53.5t166 22.5q92 0 174 -20.5t138 -76t79.5 -153.5t-2.5 -254l-31 -170q-25 -139 -73 -233.5t-119.5 -152.5t-167 -84t-214.5 -26q-80 0 -150.5 17.5t-135.5 56.5l-78 -436q-35 -10 -73 -21.5 t-72 -21.5zM311 176q41 -37 117 -63.5t174 -26.5q61 0 125 16.5t121 60.5t102 123t68 203l24 142q23 125 7.5 201.5t-55.5 119.5t-99 57.5t-125 14.5q-117 0 -192.5 -23.5t-128.5 -46.5z" />
<glyph unicode="&#xff;" horiz-adv-x="1329" d="M215 -276l84 96q23 -47 57.5 -74t74.5 -41t85 -18t88 -4q49 0 109.5 8t117 42t101.5 101.5t65 185.5l17 95q-68 -74 -160 -101.5t-197 -27.5q-90 0 -162.5 18.5t-118.5 71.5t-61.5 148t11.5 249l94 537h-158l23 118h290l-112 -632q-20 -119 -12 -195t38.5 -120 t79.5 -61.5t111 -17.5q57 0 118.5 7.5t114 38t93.5 91t59 167.5l106 604h-196l22 118h334l-186 -1056q-29 -160 -84 -259.5t-128 -155.5t-160 -76.5t-179 -20.5q-127 0 -227.5 33.5t-151.5 130.5zM536 1401q8 45 41 69.5t74 24.5t65.5 -24.5t16.5 -69.5t-41 -69.5t-74 -24.5 t-65.5 24.5t-16.5 69.5zM1005 1401q8 45 41 69.5t76 24.5q41 0 65.5 -24.5t16.5 -69.5t-41 -69.5t-74 -24.5q-43 0 -67.5 24.5t-16.5 69.5z" />
<glyph unicode="&#x152;" horiz-adv-x="2066" d="M209.5 297q-23.5 127 11.5 328l37 209q37 203 106.5 327.5t160.5 194t197.5 94.5t215.5 25q53 0 108.5 -4.5t100.5 -20.5l2 4h1036l-51 -291h-88l29 172h-750q59 -68 80.5 -184.5t-10.5 -304.5l-6 -39h475l-21 -119h-475l-14 -80q-35 -190 -97.5 -308t-144.5 -183h782 l29 172h88l-49 -289h-1051v8q-45 -20 -112.5 -25.5t-122.5 -5.5q-115 0 -213 26t-164 96.5t-89.5 197.5zM352.5 349q16.5 -101 64.5 -158.5t120.5 -77t158.5 -19.5t166 19.5t147.5 77t120 159t80.5 264.5l37 199q31 172 15.5 278.5t-62.5 166t-120.5 80t-161.5 20.5 t-169 -20.5t-147.5 -80t-118 -166t-82.5 -278.5l-36 -199q-29 -164 -12.5 -265z" />
<glyph unicode="&#x153;" horiz-adv-x="1929" d="M151.5 216q-20.5 95 8.5 249l30 176q27 158 82.5 256t129 152.5t161.5 74t182 19.5q61 0 120 -8.5t107 -30t85 -58t57 -94.5q88 115 208 153t247 38q92 0 170 -21.5t130 -74t72.5 -139.5t-2.5 -216q-8 -41 -17 -85t-19 -70h-795l-6 -29q-23 -137 -10.5 -218t51.5 -123 t99.5 -54.5t135.5 -12.5q129 0 214 12.5t153 32.5q8 -49 22 -102q-72 -29 -172 -47.5t-235 -18.5q-63 0 -121.5 8.5t-110 29t-90.5 56t-61 91.5q-41 -55 -90 -91t-105.5 -56.5t-118 -27.5t-124.5 -7q-94 0 -176 18t-136.5 70.5t-75 147.5zM287.5 267.5 q17.5 -72.5 58.5 -111.5t98.5 -50.5t116.5 -11.5q55 0 115.5 11.5t116 49.5t99.5 110.5t66 195.5l35 190q20 123 3 198t-59 115t-99.5 52t-112.5 12q-57 0 -117.5 -13.5t-116 -53t-99.5 -113.5t-64 -195l-35 -190q-23 -123 -5.5 -195.5zM1126 643h668q10 33 21 80 q14 82 -5.5 140.5t-59.5 95t-94.5 53t-111.5 16.5q-59 0 -123.5 -10t-122 -49t-102.5 -116t-70 -210z" />
<glyph unicode="&#x178;" horiz-adv-x="1386" d="M270 1335l23 119h233q72 -164 142.5 -325.5t144.5 -325.5l559 651h230l-23 -119h-149q-143 -166 -286 -331.5t-284 -331.5l-96 -555h170l-21 -117h-481l21 117h170l96 555q-74 166 -147.5 331.5t-149.5 331.5h-152zM661 1727q8 45 41 69.5t74 24.5t65.5 -24.5t16.5 -69.5 t-41 -69.5t-74 -24.5t-65.5 24.5t-16.5 69.5zM1130 1727q8 45 41 69.5t76 24.5q41 0 65.5 -24.5t16.5 -69.5t-41 -69.5t-74 -24.5q-43 0 -67.5 24.5t-16.5 69.5z" />
<glyph unicode="&#x2c6;" horiz-adv-x="907" d="M342 1233l315 287h99l219 -287h-133l-146 211l-221 -211h-133z" />
<glyph unicode="&#x2dc;" horiz-adv-x="927" d="M408 1384q37 33 64.5 52.5t50 30t44 13.5t45.5 3q25 0 50.5 -10.5t51 -22.5t53.5 -22.5t54 -10.5q23 0 65 13.5t87 52.5l24 -72q-37 -33 -64.5 -52.5t-51 -30.5t-45 -14t-45.5 -3q-23 0 -50.5 10t-55.5 22.5t-54.5 22.5t-46.5 10h-23q-27 -4 -60.5 -19.5t-70.5 -45.5z " />
<glyph unicode="&#x2000;" horiz-adv-x="973" />
<glyph unicode="&#x2001;" horiz-adv-x="1946" />
<glyph unicode="&#x2002;" horiz-adv-x="973" />
<glyph unicode="&#x2003;" horiz-adv-x="1946" />
<glyph unicode="&#x2004;" horiz-adv-x="648" />
<glyph unicode="&#x2005;" horiz-adv-x="486" />
<glyph unicode="&#x2006;" horiz-adv-x="324" />
<glyph unicode="&#x2007;" horiz-adv-x="324" />
<glyph unicode="&#x2008;" horiz-adv-x="243" />
<glyph unicode="&#x2009;" horiz-adv-x="389" />
<glyph unicode="&#x200a;" horiz-adv-x="108" />
<glyph unicode="&#x2010;" horiz-adv-x="858" d="M207 528l20 119h609l-21 -119h-608z" />
<glyph unicode="&#x2011;" horiz-adv-x="858" d="M207 528l20 119h609l-21 -119h-608z" />
<glyph unicode="&#x2012;" horiz-adv-x="858" d="M207 528l20 119h609l-21 -119h-608z" />
<glyph unicode="&#x2013;" horiz-adv-x="1118" d="M250 518l20 119h779l-21 -119h-778z" />
<glyph unicode="&#x2014;" horiz-adv-x="1579" d="M248 518l20 119h1262l-21 -119h-1261z" />
<glyph unicode="&#x2018;" horiz-adv-x="403" d="M302 1123q-1 22 5 46q16 90 70.5 167t165.5 128q2 -6 11 -24.5t13 -26.5q-74 -55 -98.5 -95t-34.5 -85q35 -4 54.5 -31t11.5 -72q-10 -49 -43 -76.5t-74 -27.5q-63 0 -76 57q-4 18 -5 40z" />
<glyph unicode="&#x2019;" horiz-adv-x="403" d="M264 1069q37 27 60.5 50.5t38 45t21.5 42t11 42.5q-35 4 -53 31t-10 72q10 51 43 78.5t74 27.5q63 0 75 -55q6 -10 6 -39t-4 -45q-16 -92 -70.5 -170t-166.5 -131z" />
<glyph unicode="&#x201a;" horiz-adv-x="407" d="M43 -197q37 29 60.5 52.5t37 45t20.5 42t13 43.5q-35 4 -54 29.5t-11 70.5q10 49 42.5 76.5t75.5 27.5h11q35 -4 56 -29.5t15 -78.5v2q-10 -59 -27.5 -108.5t-45 -89.5t-69.5 -72.5t-101 -59.5z" />
<glyph unicode="&#x201c;" horiz-adv-x="677" d="M309 1083q-10 37 0 86q16 90 71.5 167t164.5 128q4 -6 13 -24.5t11 -26.5q-74 -55 -98.5 -95t-32.5 -85q35 -4 53.5 -31t10.5 -72q-10 -49 -42 -76.5t-75 -27.5q-63 0 -76 57zM574.5 1123q-1.5 22 5.5 46q16 90 70.5 167t164.5 128q2 -6 11.5 -24.5t13.5 -26.5 q-74 -55 -98.5 -95t-34.5 -85q35 -4 54 -31t11 -72q-10 -49 -43 -76.5t-74 -27.5q-63 0 -75 57q-4 18 -5.5 40z" />
<glyph unicode="&#x201d;" horiz-adv-x="620" d="M256 1077q37 27 61.5 50.5t39 45t21.5 42t11 42.5q-35 4 -54 31t-9 72q8 49 41.5 76.5t76.5 27.5h11q35 -4 55 -29.5t14 -78.5v2q-10 -57 -26.5 -106.5t-44 -90.5t-69.5 -74.5t-101 -60.5zM522 1077q37 27 61.5 50.5t39 45t21.5 42t11 42.5q-35 4 -54 31t-9 72 q8 49 42 76.5t75 27.5h12q31 -4 54.5 -28.5t15.5 -79.5v2q-18 -113 -70.5 -195t-171.5 -137z" />
<glyph unicode="&#x201e;" horiz-adv-x="667" d="M43 -197q37 29 60.5 52.5t37 45t20.5 42t13 43.5q-35 4 -54 29.5t-11 70.5q10 49 42.5 76.5t75.5 27.5h11q35 -4 56 -29.5t15 -78.5v2q-10 -59 -27.5 -108.5t-45 -89.5t-69.5 -72.5t-101 -59.5zM305 -197q37 29 60.5 52.5t37 45t20.5 42t13 43.5q-35 4 -54 29.5t-11 70.5 q10 49 42.5 76.5t75.5 27.5h11q39 -4 58.5 -29.5t12.5 -78.5v2q-10 -59 -27.5 -108.5t-45 -89.5t-68.5 -72.5t-100 -59.5q-6 12 -13.5 24.5t-11.5 24.5z" />
<glyph unicode="&#x2022;" horiz-adv-x="643" d="M236 526q14 78 74.5 125t133.5 47q74 0 117 -47t29 -125q-16 -82 -74.5 -128t-132.5 -46t-119 46t-28 128z" />
<glyph unicode="&#x2026;" horiz-adv-x="1185" d="M127 82q8 47 42 73.5t79 26.5t70.5 -26.5t17.5 -73.5q-10 -47 -44 -73.5t-79 -26.5t-70.5 26.5t-15.5 73.5zM518 82q8 47 42 73.5t79 26.5t70.5 -26.5t17.5 -73.5q-10 -47 -44 -73.5t-79 -26.5t-70.5 26.5t-15.5 73.5zM909 82q8 47 42 73.5t79 26.5t70.5 -26.5 t17.5 -73.5q-10 -47 -44 -73.5t-79 -26.5t-70.5 26.5t-15.5 73.5z" />
<glyph unicode="&#x202f;" horiz-adv-x="389" />
<glyph unicode="&#x2039;" horiz-adv-x="663" d="M150 547l22 127l635 448l-27 -151l-483 -363l354 -385l-28 -153z" />
<glyph unicode="&#x203a;" horiz-adv-x="669" d="M63 70l29 153l490 385l-357 363l27 151l479 -448l-22 -127z" />
<glyph unicode="&#x205f;" horiz-adv-x="486" />
<glyph unicode="&#x20ac;" horiz-adv-x="1374" d="M176 535l17 100h133l26 151h-133l19 101h135q39 186 106.5 302t157.5 180.5t202.5 86t243.5 21.5h11q41 0 83 -2t90 -10.5t103 -24t123 -41.5q-16 -29 -29.5 -56.5t-29.5 -56.5q-86 39 -186.5 55.5t-192.5 16.5q-80 0 -162 -13.5t-154.5 -61.5t-130 -142t-88.5 -254h475 l-18 -101h-479l-27 -151h479l-16 -100h-475q-16 -133 4 -218.5t68.5 -134.5t120 -68.5t159.5 -19.5q80 0 149.5 11.5t130 26.5t110.5 32.5t93 32.5l29 -107q-47 -16 -102.5 -36.5t-122 -37t-143 -28t-164.5 -11.5h-19q-111 0 -205 21.5t-158.5 83t-92 170t-5.5 283.5h-135z " />
<glyph unicode="&#x2122;" horiz-adv-x="1890" d="M270 1239l39 223h746l-39 -223h-78l12 66q4 18 5 36.5t3 34.5h-245l-119 -676h108l-16 -86h-311l16 86h107l118 676h-131l-114 -6l-23 -131h-78zM934 612l14 80h86l142 682h-97l15 88h209q47 -147 95 -291.5t95 -291.5l399 583h205l-14 -88h-96q-29 -174 -52.5 -341 t-50.5 -341h88l-14 -80h-275l15 80h88q25 158 44 299.5t44 300.5q-92 -139 -186.5 -276t-186.5 -275h-65q-45 139 -89 276.5t-87 278.5q-31 -154 -63 -302t-62 -302h86l-15 -80h-272z" />
<glyph unicode="&#x25fc;" horiz-adv-x="1126" d="M0 0v1126h1126v-1126h-1126z" />
<glyph unicode="&#xfb01;" horiz-adv-x="1374" d="M-70 -332l19 109q90 0 157.5 11t117.5 50t84 114t57 202l149 858q27 147 77 242.5t122.5 148.5t166 73.5t205.5 20.5l-18 -115q-90 0 -157.5 -10t-117 -48t-82 -111.5t-55.5 -200.5l-149 -858q-27 -147 -69 -242.5t-109.5 -149t-164.5 -74t-233 -20.5zM223 860l23 119 h266h137h271l-23 -119h-674zM1012 860l22 119h324l-125 -733q-16 -92 9.5 -121t123.5 -12l-16 -117q-70 -14 -125.5 -13t-90 24.5t-48 72.5t0.5 131l111 649h-186zM1204 1272q8 47 43 73.5t82 26.5t72.5 -26.5t17.5 -73.5q-10 -49 -44 -76t-81 -27t-73.5 26t-16.5 77z" />
<glyph unicode="&#xfb02;" horiz-adv-x="1310" d="M-103 -332l19 109q90 0 157.5 11t117.5 50t84 114t56 202l150 858q27 147 77 242.5t122.5 148.5t166 73.5t205.5 20.5l-18 -115q-90 0 -157.5 -10t-117 -48t-82 -111.5t-55.5 -200.5l-149 -858q-27 -147 -69 -242.5t-109.5 -149t-165 -74t-232.5 -20.5zM190 860l23 119 h266h137h270l-22 -119h-674zM1052.5 140.5q2.5 62.5 18.5 156.5l205 1161h-189l21 119h325l-233 -1323q-20 -115 -18 -183.5t12 -97.5q-23 -8 -43.5 -14t-42.5 -12q-16 10 -29.5 31.5t-21 60.5t-5 101.5z" />
</font>
</defs>
</svg>
