<?xml version="1.0" standalone="no"?>
<!DOCTYPE svg PUBLIC "-//W3C//DTD SVG 1.1//EN" "http://www.w3.org/Graphics/SVG/1.1/DTD/svg11.dtd" >
<svg xmlns="http://www.w3.org/2000/svg">
<metadata></metadata>
<defs>
<font id="amazing_groteskultra_italic" horiz-adv-x="1368" >
<font-face units-per-em="2048" ascent="1638" descent="-410" />
<missing-glyph horiz-adv-x="616" />
<glyph horiz-adv-x="0" />
<glyph horiz-adv-x="682" />
<glyph unicode=" "  horiz-adv-x="616" />
<glyph unicode="&#x09;" horiz-adv-x="616" />
<glyph unicode="&#xa0;" horiz-adv-x="616" />
<glyph unicode="!" horiz-adv-x="649" d="M104 180q20 111 99.5 157t181.5 46q51 0 94 -9t73 -33t42 -62.5t2 -98.5q-10 -59 -37 -98t-64.5 -62.5t-83.5 -34t-98 -10.5q-51 0 -94 9.5t-71.5 32t-41 62.5t-2.5 101zM176 479l195 1108h370l-147 -835h90l-47 -273h-461z" />
<glyph unicode="&#x22;" horiz-adv-x="831" d="M334 1147l22 358h265l-64 -358h-223zM655 1147l64 358h266l-104 -358h-226z" />
<glyph unicode="#" horiz-adv-x="1599" d="M147 406l35 188h310l143 297h-258l33 188h317l186 375h240l-184 -375h239l185 375h241l-186 -375h276l-32 -188h-336l-146 -297h281l-35 -188h-338l-198 -406h-238l195 406h-240l-197 -406h-239l196 406h-250zM731 594h242l141 297h-240z" />
<glyph unicode="$" horiz-adv-x="1361" d="M156 49l104 357h256l-14 -87q-2 -8 16.5 -13t65.5 -5q37 0 82 5t85 17.5t69.5 35t35.5 57.5q8 49 0 75.5t-35.5 45t-73 35t-106.5 44.5q-172 53 -252 167t-49 292q6 35 15.5 71t27.5 75q39 98 128 153.5t204 79.5l35 197h370l-33 -178q86 -6 166 -16.5t162 -24.5 l-119 -342l-225 14l-2 72q-16 10 -42 12t-56 2q-41 0 -81 -5t-72 -17.5t-54.5 -35t-28.5 -57.5q-4 -25 7.5 -51.5t40 -50t76.5 -43t118 -27.5q68 -10 132.5 -36.5t112.5 -79t70.5 -135.5t7.5 -203l-4 -23q-16 -86 -60 -155.5t-108.5 -123t-142.5 -89t-160 -56.5h4l-36 -201 h-371l33 185q-102 8 -174 24.5t-125 38.5z" />
<glyph unicode="%" horiz-adv-x="1556" d="M150 -2l1150 1458h347l-1160 -1458h-337zM289 1071l26 152q14 90 51 140t83.5 74.5t94.5 30t89 5.5h8q39 0 85 -8.5t81 -36t52.5 -81t0.5 -143.5l-26 -149q-18 -88 -53.5 -138.5t-78.5 -76t-89 -31.5t-87 -6h-16q-39 0 -84 8t-81 35.5t-54.5 81t-1.5 143.5zM512 1035.5 q0 -23.5 6 -32t16.5 -7.5t20.5 1q18 0 28.5 15.5t22.5 87.5l12 71q8 43 9.5 66t-1.5 33t-10.5 12t-15.5 2q-10 0 -19.5 -2t-17.5 -11t-16 -30.5t-15 -60.5l-12 -72q-8 -49 -8 -72.5zM944 256l27 152q14 90 51 140t83 74.5t94 29.5t89 5h8q39 0 85 -8t81 -35.5t52.5 -81 t1.5 -143.5l-27 -149q-18 -88 -54 -138.5t-79 -76t-89 -31.5t-87 -6h-17q-39 0 -84 8t-79.5 35.5t-53 81t-2.5 143.5zM1171.5 222.5q-0.5 -23.5 6 -32t16.5 -7.5t20 1q18 0 28.5 15.5t23.5 87.5l12 71q8 43 9 65.5t-2 33t-10 12.5t-15 2q-10 0 -19.5 -2t-18 -11t-16.5 -30.5 t-14 -60.5l-12 -72q-8 -49 -8.5 -72.5z" />
<glyph unicode="&#x26;" horiz-adv-x="1687" d="M143 426q12 76 43 135.5t74 105.5t94.5 80.5t104.5 59.5q-31 20 -64 37.5t-57.5 42t-35.5 63.5t1 103q23 129 82 212t137 130t166 65.5t172 18.5q106 0 184 -20.5t144 -37.5l221 -57l-160 -348l-223 61q8 18 13 30.5t8 20.5q4 29 -14.5 44.5t-46.5 22.5t-56.5 8t-46.5 1 q-86 0 -136.5 -28.5t-66.5 -120.5q-8 -45 3 -77t34.5 -51.5t54.5 -28.5t64 -9h149l-121 -250h-78q-90 0 -160.5 -49t-86.5 -146q-12 -66 4 -104.5t47 -58t68.5 -24.5t72.5 -5h23q127 0 216 19.5t179 47.5l18 179h-196l149 313h301q109 0 179.5 -16.5t112.5 -39t62.5 -49 t26.5 -44.5l-100 -193q-31 2 -54.5 6t-46 7t-47 7.5t-57.5 6.5q-20 -127 -27.5 -210t-6.5 -134.5t8.5 -77t16.5 -36.5t17 -15.5t13 -12.5l-265 -145q-47 16 -82.5 66.5t-42.5 142.5q-106 -41 -209.5 -69t-213.5 -28q-133 0 -245 26t-189.5 81t-112.5 140t-15 202z" />
<glyph unicode="'" horiz-adv-x="475" d="M317 1092l21 358h307l-102 -358h-226z" />
<glyph unicode="(" horiz-adv-x="722" d="M183 243.5q7 194.5 57 479.5q49 279 110.5 470t136 321.5t161.5 214t186 145.5l161 -164q-49 -45 -100 -145.5t-100.5 -233.5t-90 -288.5t-67.5 -309.5l-4 -24q-29 -154 -42 -311.5t-12 -293t16 -238t48 -147.5l-219 -163q-78 61 -135.5 144t-85 216t-20.5 327.5z" />
<glyph unicode=")" horiz-adv-x="679" d="M-18 -281q47 45 98 147.5t100 238t91 292t71 312.5l4 24q27 156 40 310.5t11 287.5t-18.5 232.5t-46.5 146.5l219 164q78 -61 135 -145t86 -214.5t22.5 -322t-55.5 -469.5q-51 -285 -113.5 -480.5t-137 -327.5t-161.5 -215t-186 -144z" />
<glyph unicode="*" horiz-adv-x="1079" d="M193 475l206 105l-170 112l166 213l146 -102l32 190h273l-35 -192l201 114l92 -210l-213 -119l168 -117l-170 -213l-154 106l-35 -198h-272l33 194l-174 -100z" />
<glyph unicode="+" horiz-adv-x="1097" d="M186 442l50 279h270l39 231l315 82l-55 -313h297l-49 -279h-297l-45 -254l-314 -82l60 336h-271z" />
<glyph unicode="," horiz-adv-x="616" d="M84 83q-10 38 0 97q20 111 99 157t182 46q51 0 94 -9t72.5 -33t42 -62.5t1.5 -98.5l-28 -160q-12 -70 -47 -124t-81 -95t-96.5 -68.5t-91.5 -43.5l-49 121q23 23 50.5 63.5t37.5 101.5q-47 2 -85 12.5t-64.5 34t-36.5 61.5z" />
<glyph unicode="-" horiz-adv-x="985" d="M233 444l50 279h688l-49 -279h-689z" />
<glyph unicode="." horiz-adv-x="616" d="M84 180q20 111 99 157t182 46q51 0 94 -9t72.5 -33t42 -62.5t1.5 -98.5q-10 -59 -36.5 -98t-64.5 -62.5t-84 -34t-97 -10.5t-94 9.5t-72 32t-41 62.5t-2 101z" />
<glyph unicode="/" horiz-adv-x="1048" d="M41 -264l883 1845h387l-891 -1845h-379z" />
<glyph unicode="0" d="M166 268.5q-31 118.5 4 313.5l57 331q35 195 116 307.5t184.5 169t215 71t205.5 14.5q96 0 202.5 -14.5t189.5 -71t125 -169t8 -307.5l-58 -331q-35 -197 -107.5 -316t-171 -183.5t-214 -85t-236.5 -20.5t-229.5 21.5t-184 86.5t-106.5 183.5zM565.5 465 q-4.5 -74 11 -120t54.5 -66.5t104 -20.5q63 0 109.5 20.5t78 66.5t54 120t41.5 178l26 156q18 98 21.5 173t-12 124t-52 74.5t-102.5 25.5t-112 -25.5t-78.5 -74.5t-54 -124t-40.5 -173l-26 -156q-18 -104 -22.5 -178z" />
<glyph unicode="1" horiz-adv-x="874" d="M139 0l47 272h93l155 879q-4 18 -21.5 24.5t-58.5 6.5h-61l49 272h541l-49 -272l-160 -910h88l-47 -272h-576z" />
<glyph unicode="2" horiz-adv-x="1402" d="M162 0l51 295l661 545q63 47 113.5 108.5t61.5 112.5q8 45 -27 84t-121 39q-27 0 -62.5 -3t-68.5 -9.5t-56.5 -16.5t-25.5 -27q-4 -16 8 -59l-241 -94l-80 332q70 27 143.5 55.5t147 50t143.5 35.5t129 14q80 0 177 -7t178 -43t127 -107.5t24 -200.5l-12 -70 q-10 -49 -45 -106.5t-82 -93.5l-691 -539h439q25 8 34 24.5t17 61.5h239l-65 -381h-1116z" />
<glyph unicode="3" horiz-adv-x="1302" d="M115 102l135 228q45 -16 81 -30.5t74.5 -25t86 -16.5t116.5 -6q37 0 81 5t86 24.5t74 58.5t44 104q4 25 4 59t-16.5 63.5t-54.5 51t-105 21.5h-84l-16 250h131q31 2 61.5 8t56 21.5t45 43t27.5 72.5q16 94 -19.5 124t-121.5 30q-86 -2 -132 -9.5t-53 -45.5q-4 -25 2 -52 l-245 -61l-29 348l234 59q59 16 130.5 26.5t137.5 10.5q53 0 114.5 -3t122 -14t113.5 -33.5t90 -62.5t53.5 -100.5t1.5 -146.5l-16 -84q-10 -68 -65.5 -121t-135.5 -96q45 -25 80 -56.5t57.5 -72.5t29.5 -91.5t-3 -111.5l-14 -86q-18 -98 -82 -174t-159 -128t-216 -79 t-254 -27q-129 0 -237.5 37t-210.5 88z" />
<glyph unicode="4" horiz-adv-x="1431" d="M160 225l49 275l801 954h422l-803 -954h352l4 30q18 106 15 160.5t-13 73.5l248 76q25 -10 51.5 -33t45 -62.5t25.5 -99t-5 -145.5h153l-49 -275h-153l-56 -309l-354 84l39 225h-772z" />
<glyph unicode="5" horiz-adv-x="1267" d="M74 102l135 228q45 -16 81 -30.5t74.5 -25t86 -16.5t116.5 -6h23q33 0 74 5t78.5 24.5t67.5 58.5t42 104q4 25 3 59t-17.5 64.5t-53 51t-104.5 20.5q-4 -2 -8 -2h-430l145 817h989l-63 -360h-240q8 47 2 63.5t-31 24.5h-397l-51 -293h145q115 0 215.5 -22.5t172 -73 t105.5 -130t13 -192.5l-14 -86q-18 -98 -82 -174t-159 -128t-216 -79t-254 -27q-129 0 -237.5 37t-210.5 88z" />
<glyph unicode="6" horiz-adv-x="1402" d="M186.5 282.5q-18.5 110.5 10.5 270.5l63 356q27 152 84 258.5t145.5 173t207 97t270.5 30.5q86 0 152.5 -7t122.5 -21.5t105.5 -32.5t98.5 -43l-137 -240q-59 16 -106.5 28.5t-95.5 21t-100 12.5t-120 4q-72 0 -118 -43t-74.5 -100.5t-42 -112.5t-17.5 -80 q41 18 105.5 39.5t129.5 21.5q117 0 222.5 -13t181.5 -59t110.5 -133t8.5 -235q-23 -135 -86.5 -229t-154.5 -154.5t-206 -88.5t-241 -28q-154 0 -263.5 31t-173 98.5t-82 178zM569.5 415.5q-0.5 -53.5 18 -88t58.5 -51t106 -16.5q35 0 74.5 12.5t76.5 38t64.5 66.5t38.5 98 q10 55 -0.5 91t-37 57.5t-65.5 31t-84 9.5q-53 0 -112.5 -12.5t-108.5 -22.5l-16 -84q-12 -76 -12.5 -129.5z" />
<glyph unicode="7" horiz-adv-x="1286" d="M268 1094l64 360h1177l-49 -274l-798 -1180h-381l798 1180h-522q-25 -8 -33 -25.5t-16 -60.5h-240z" />
<glyph unicode="8" horiz-adv-x="1370" d="M154 385l22 127q16 98 40 150.5t55.5 82t74.5 46t98 40.5q-33 23 -61.5 41.5t-48 40t-28.5 47t-3 60.5l19 104q23 129 91 198t157 100.5t185.5 35.5t174.5 4t174 -4t177 -35.5t127 -100.5t24 -198l-19 -104q-12 -70 -66.5 -108t-136.5 -83q47 -25 84 -40t59.5 -42.5 t27.5 -81t-13 -153.5l-22 -127q-18 -98 -76 -174t-147 -128t-204.5 -79t-248.5 -27q-133 2 -236.5 30t-171 80t-97.5 127t-11 171zM555 340.5q12 -37.5 39 -58t60.5 -25.5t68.5 -5q33 0 70.5 5t71.5 24.5t61 58t39 104.5q4 25 7 59t-8.5 63.5t-43 51t-97.5 21.5h-59 q-63 0 -102 -21.5t-61.5 -51t-32 -63.5t-13.5 -59q-12 -66 0 -103.5zM695 967.5q7 -27.5 24.5 -44t43 -22.5t56.5 -6h39q61 0 108.5 27.5t63.5 117.5q16 94 -21.5 122t-123.5 28t-129.5 -28t-59.5 -122q-8 -45 -1 -72.5z" />
<glyph unicode="9" horiz-adv-x="1349" d="M133 80l137 239q57 -16 105.5 -28t96.5 -20.5t100 -12.5t120 -4q82 0 133.5 37t79 86t38.5 98t15 74q-41 -18 -106.5 -40t-130.5 -22q-117 0 -215 21.5t-166 78t-96.5 152t-1.5 242.5q20 119 77.5 210t143.5 152.5t195.5 93t236.5 31.5q154 0 263.5 -30.5t173 -98 t82 -178t-10.5 -270.5l-62 -356q-27 -152 -92 -258.5t-160.5 -173t-216 -97.5t-260.5 -31q-86 0 -152.5 7.5t-122.5 21.5t-105.5 32.5t-98.5 43.5zM616 979q-20 -111 25 -165t137 -54q53 0 112.5 12t108.5 23l29 166q10 61 -4 105t-42 72.5t-63.5 42t-68.5 13.5 q-35 0 -72 -12.5t-69.5 -39t-57 -66.5t-35.5 -97z" />
<glyph unicode=":" horiz-adv-x="616" d="M84 180q20 111 99 157t182 46q51 0 94 -9t72.5 -33t42 -62.5t1.5 -98.5q-10 -59 -36.5 -98t-64.5 -62.5t-84 -34t-97 -10.5t-94 9.5t-72 32t-41 62.5t-2 101zM213 907q8 55 34.5 94t64.5 62.5t84 35t98 11.5q51 0 94 -9t71.5 -33t42 -62.5t3.5 -98.5q-23 -117 -102 -161 t-181 -44q-51 0 -94 9.5t-72 32t-41 62.5t-2 101z" />
<glyph unicode=";" horiz-adv-x="616" d="M84 83q-10 38 0 97q20 111 99 157t182 46q51 0 94 -9t72.5 -33t42 -62.5t1.5 -98.5l-28 -160q-12 -70 -47 -124t-81 -95t-96.5 -68.5t-91.5 -43.5l-49 121q23 23 50.5 63.5t37.5 101.5q-47 2 -85 12.5t-64.5 34t-36.5 61.5zM213 907q8 55 34.5 94t64.5 62.5t84 35 t98 11.5q51 0 94 -9t71.5 -33t42 -62.5t3.5 -98.5q-23 -117 -102 -161t-181 -44q-51 0 -94 9.5t-72 32t-41 62.5t-2 101z" />
<glyph unicode="&#x3c;" horiz-adv-x="1040" d="M190 428l58 320l856 397l-55 -320l-527 -243l436 -265l-57 -319z" />
<glyph unicode="=" horiz-adv-x="1153" d="M184 203l49 278h869l-49 -278h-869zM270 694l49 279h869l-49 -279h-869z" />
<glyph unicode="&#x3e;" horiz-adv-x="1028" d="M115 -2l57 319l530 265l-440 243l55 320l717 -397l-57 -320z" />
<glyph unicode="?" horiz-adv-x="1206" d="M297 1350l154 53q76 35 160.5 60.5t211.5 25.5q80 0 171 -17.5t164 -63.5t113 -127t17 -210l-2 -8q-4 -25 -15 -58.5t-30.5 -69.5t-46.5 -68.5t-61 -53.5q-61 -37 -114.5 -67.5t-93.5 -61.5t-67 -66.5t-35 -85.5l-10 -63h-371l27 147q12 72 27.5 113t56.5 76 q80 68 139.5 107.5t101.5 67.5t66.5 53.5t30.5 64.5q8 45 -17.5 69.5t-111.5 24.5q-37 -4 -67.5 -10t-57.5 -13l2 -4q-33 -6 -37 -24q-4 -10 0 -27.5t10 -40.5l-243 -78zM334 180q20 111 99 157t181 46q51 0 94.5 -9t73 -33t42 -62.5t1.5 -98.5q-10 -59 -36.5 -98 t-64.5 -62.5t-84 -34t-97 -10.5t-94 9.5t-72 32t-41 62.5t-2 101z" />
<glyph unicode="@" horiz-adv-x="1710" d="M168 590q29 160 115 301t208.5 246.5t275.5 167t312 61.5q160 0 289 -61.5t213 -167t119 -246.5t6 -301q-27 -152 -83 -237t-128 -126t-151.5 -51t-153.5 -10q-59 0 -85 20.5t-38 28.5q-31 -8 -52.5 -15t-46 -11.5t-57 -7.5t-84.5 -3q-45 0 -98 10.5t-96 40t-65.5 86 t-6.5 148.5q14 78 58.5 127t103.5 75.5t124.5 36t121.5 9.5q25 0 45 -1t39 -3q10 53 -6.5 70.5t-81.5 17.5q-35 0 -76 -6.5t-76 -10.5l-82 -12l-18 168q41 23 130 46.5t230 23.5q102 0 152.5 -40t68 -94.5t14.5 -106.5t-8 -77l-16 -92q-10 -53 -17 -89t-12 -59 q-10 -49 4.5 -58t67.5 -21q33 4 70 36.5t51 116.5l4 -2q8 31 14 70q20 115 -1 216t-77.5 177t-144.5 120t-203 44t-221 -44t-190 -120t-142.5 -177.5t-78.5 -215.5q-20 -115 2 -216.5t80.5 -177t148.5 -118.5t205 -43q63 0 125.5 14t122.5 39l174 -137q-104 -63 -220 -98 t-239 -35q-160 0 -291 60.5t-218 165.5t-123 246.5t-7 301.5zM799 434q-4 -25 3 -41t21.5 -25.5t34 -12.5t37.5 -3q8 0 23.5 1t32 2t30.5 3t20 4h13l22 162q-10 2 -27.5 5t-35.5 3t-46 -4t-54.5 -14t-47 -29.5t-26.5 -50.5z" />
<glyph unicode="A" horiz-adv-x="1447" d="M41 0l47 272h94l590 1182h428l160 -1182h94l-47 -272h-395l-45 272h-396l-137 -272h-393zM707 555h233l-37 401z" />
<glyph unicode="B" horiz-adv-x="1400" d="M170 0l207 1182h-92l49 272h563q94 0 200.5 -6t190.5 -40t131 -104q32 -48 32 -124q0 -35 -7 -76l-23 -125q-12 -70 -56 -119t-108 -86q78 -44 116 -118q25 -48 25 -113q0 -34 -7 -72l-27 -147q-18 -109 -92 -172.5t-173.5 -97.5t-208 -44t-198.5 -10h-522zM610 272h140 q33 0 71.5 3.5t73.5 19.5t61.5 51t38.5 98q4 25 3 59t-18 63.5t-54 50t-105 20.5h-147zM719 889h112q33 0 67 4t63.5 19.5t51 44t31.5 77.5q5 29 5 51q1 51 -25 71q-36 28 -123 28h-131z" />
<glyph unicode="C" horiz-adv-x="1275" d="M194 260q-16 57 -16 132q0 83 19 190l57 331q33 190 112.5 302t181 169.5t211 74t204.5 16.5q135 0 260 -17.5t211 -46.5l-93 -375h-227l2 78q-16 31 -56 56.5t-128 25.5q-66 0 -112 -24.5t-78.5 -73.5t-54 -124t-40.5 -175l-26 -156q-17 -109 -21 -183q-1 -12 -1 -22 q-1 -58 15 -96q18 -45 60.5 -64.5t113.5 -19.5q70 0 119 5t91 14.5t83 22.5t93 30l53 -228q-121 -51 -241 -88t-249 -37q-123 0 -236.5 18.5t-193 82t-113.5 182.5z" />
<glyph unicode="D" horiz-adv-x="1392" d="M170 0l207 1182h-92l49 272h637q61 0 128.5 -3t131 -20.5t118 -53.5t88 -100.5t43.5 -163.5q3 -27 2 -58q0 -81 -18 -185l-53 -311q-35 -197 -116 -308.5t-181 -167.5t-207.5 -69.5t-197.5 -13.5h-539zM590 272h160q33 0 73.5 10.5t80.5 47.5t74 108.5t56 192.5l33 186 q17 101 17 167q0 14 -1 26q-4 72 -24.5 110.5t-52 50t-62.5 11.5h-194z" />
<glyph unicode="E" horiz-adv-x="1243" d="M172 0l207 1182h-94l49 272h1052l-49 -272h-567l-55 -312h385l-49 -278h-385l-56 -320h568l-48 -272h-958z" />
<glyph unicode="F" horiz-adv-x="1159" d="M78 0l47 272h92l160 910h-92l49 272h1052l-49 -272h-567l-55 -312h385l-49 -278h-385l-56 -320h131l-47 -272h-616z" />
<glyph unicode="G" horiz-adv-x="1327" d="M154 349q-1 22 -1 47q0 81 19 186l57 331q33 190 113 302t181.5 169.5t211 74t203.5 16.5q135 0 260 -17.5t211 -46.5l-92 -375h-227l2 78q-16 31 -56.5 56.5t-128.5 25.5q-66 0 -111.5 -24.5t-78.5 -73.5t-54.5 -124t-39.5 -175l-27 -156q-18 -109 -22 -183v-22 q0 -58 16 -96q18 -45 60 -64.5t114 -19.5q76 0 135 6q2 16 4 31.5t6 32.5l21 125h-90l49 272h461l-78 -440q-19 -103 -19 -155q0 -4 1 -8q1 -52 16 -71l-248 -76q-18 8 -32.5 18.5t-24.5 20.5q-61 -16 -124 -26.5t-128 -10.5q-84 0 -164 7.5t-147.5 30t-121 63.5t-86 107.5 t-40.5 163.5z" />
<glyph unicode="H" horiz-adv-x="1478" d="M78 0l47 272h92l160 910h-92l49 272h575l-49 -272h-90l-55 -312h366l56 312h-93l50 272h575l-49 -272h-90l-160 -910h90l-47 -272h-575l47 272h92l55 320h-366l-56 -320h90l-47 -272h-575z" />
<glyph unicode="I" horiz-adv-x="706" d="M78 0l47 272h92l160 910h-92l49 272h575l-49 -272h-90l-160 -910h90l-47 -272h-575z" />
<glyph unicode="J" horiz-adv-x="675" d="M57 -408q16 18 39 72.5t43 161.5l238 1356h-90l49 272h481l-280 -1585q-16 -92 -46 -155.5t-64 -104.5t-67.5 -62.5t-60.5 -29.5z" />
<glyph unicode="K" horiz-adv-x="1488" d="M170 0l207 1182h-92l49 272h483l-90 -502l604 502h330l-49 -272h-8q-25 -4 -67 -16.5t-93 -51.5l-19 -18l-438 -363l346 -371q66 -72 107 -99t63 -32l-141 -225q-39 -14 -65.5 -16t-45.5 -2q-53 0 -113.5 24.5t-136.5 108.5l-319 360l-41 -35l-78 -446h-393z" />
<glyph unicode="L" horiz-adv-x="1196" d="M170 0l207 1182h-92l49 272h465l-205 -1161h321q29 8 39.5 24.5t18.5 63.5h239l-65 -381h-977z" />
<glyph unicode="M" horiz-adv-x="1871" d="M170 0l207 1184h-90l49 272h596l141 -694l416 694h582l-50 -272h-90l-207 -1184h-370l170 965l-357 -637h-333l-123 639l-170 -967h-371z" />
<glyph unicode="N" horiz-adv-x="1572" d="M170 0l207 1182h-92l49 272h485l330 -874l106 602h-92l49 272h576l-49 -272h-90l-160 -910h90l-47 -272h-481l-334 879l-154 -879h-393z" />
<glyph unicode="O" d="M166 268q-15 56 -15 129q0 82 19 185l57 331q35 195 116 307.5t184.5 169t215 71t205.5 14.5q96 0 202.5 -14.5t189.5 -70.5q83 -58 125 -170q23 -62 23 -149q0 -71 -15 -158l-58 -331q-35 -197 -107.5 -316t-171 -183.5t-214 -85t-236.5 -20.5t-229.5 21.5t-184 86.5 t-106.5 183zM566 465q-1 -17 -2 -32q0 -52 12 -88q16 -46 55 -66.5t104 -20.5q63 0 109.5 20.5t78 66.5t54 120t41.5 178l26 156q18 98 22 173q1 14 0 27q0 57 -12 97q-16 49 -52.5 74.5t-102.5 25.5t-112 -25.5t-78.5 -74.5t-54 -124t-40.5 -173l-26 -156 q-18 -104 -22 -178z" />
<glyph unicode="P" horiz-adv-x="1347" d="M170 0l207 1182h-92l49 272h608q94 0 199.5 -12t188.5 -54t128 -119q30 -52 30 -127q0 -37 -7 -79l-23 -125q-20 -115 -90 -187.5t-164 -113.5t-199.5 -55.5t-195.5 -14.5h-147l-99 -567h-393zM707 817h149q33 0 69 9.5t68.5 31t56 55t31.5 82.5q4 26 4 48q-1 59 -31 93 q-42 46 -128 46h-156z" />
<glyph unicode="Q" d="M158 320q-5 35 -5 76q0 82 19 186l57 331q35 195 116 307.5t184.5 169t215 71t205.5 14.5q96 0 203 -14.5t189.5 -71t124.5 -169.5q23 -62 23 -149q0 -71 -15 -158l-58 -331q-29 -160 -83 -267.5t-126.5 -176t-161 -103.5t-182.5 -47l-41 -240l-356 82l29 162 q-88 14 -160 50t-118 103.5t-60 174.5zM568 465q-2 -17 -2 -32q0 -52 12 -88q16 -46 55 -66.5t104 -20.5q63 0 109.5 20.5t78 66.5t54 120t41.5 178l27 156q18 98 21 173v24q0 59 -12 100q-16 49 -52.5 74.5t-102.5 25.5t-112 -25.5t-78.5 -74.5t-54 -124t-40.5 -173 l-26 -156q-18 -104 -22 -178z" />
<glyph unicode="R" horiz-adv-x="1413" d="M145 0l207 1182h-92l49 272h629q94 0 199.5 -12t188.5 -54t128 -119q30 -52 30 -127q0 -37 -7 -79l-29 -166q-12 -72 -45 -126t-79 -94t-103.5 -67.5t-118.5 -46.5l133 -227q53 -86 94 -116t70 -38l-176 -200q-25 -8 -58 -9q-25 0 -56.5 5.5t-66 25t-71.5 56t-72 100.5 l-203 368h-86l-92 -528h-373zM653 776h191q33 0 69.5 12.5t69.5 37t57.5 61.5t32.5 86q5 27 5 50q0 59 -30 101q-40 58 -126 58h-197z" />
<glyph unicode="S" horiz-adv-x="1325" d="M156 49l104 357h256l-14 -87q-2 -8 16.5 -13t65.5 -5q37 0 82 5t85 17.5t69.5 35t35.5 57.5q4 24 4 43t-4 33q-8 26 -35.5 44.5t-73 35t-106.5 44.5q-172 53 -252 167q-58 82 -58 198q0 45 9 94q20 115 72.5 191.5t132.5 124t185.5 67t227.5 19.5q119 0 232 -12.5 t225 -32.5l-119 -342l-225 14l-2 72q-16 10 -42 12t-56 2q-41 0 -81 -5t-72 -17.5t-54.5 -35t-28.5 -57.5q-1 -7 -1 -15q0 -43 50 -81q58 -45 193 -76q63 -14 130 -45t116 -85t73 -138q12 -44 12 -99q0 -49 -10 -106q-20 -115 -89.5 -200t-165 -141t-205 -84t-209.5 -28 q-174 0 -288 21.5t-185 50.5z" />
<glyph unicode="T" horiz-adv-x="1386" d="M254 1094l63 360h1278l-63 -360h-232l7 36q4 23 -1.5 34.5t-19.5 17.5h-192l-160 -910h90l-47 -272h-555l47 272h92l160 910h-195q-29 -10 -34 -52l-7 -36h-231z" />
<glyph unicode="U" horiz-adv-x="1421" d="M182 316q-5 35 -6 76q0 66 14 145l162 919h389l-147 -838q-16 -88 -17 -150q-1 -24 3 -46q10 -72 36.5 -107.5t63.5 -45t72 -9.5t74.5 9.5t79.5 45t74 107.5t56 194l148 840h389l-162 -919q-35 -193 -119 -304.5t-187.5 -168t-212 -72t-192.5 -15.5q-55 0 -120.5 6.5 t-130 25t-121 55t-94.5 98.5t-52 154z" />
<glyph unicode="V" horiz-adv-x="1425" d="M233 1182l50 272h413l95 -958l462 958h396l-50 -272h-96l-588 -1182h-415l-160 1182h-107z" />
<glyph unicode="W" horiz-adv-x="2222" d="M254 1182l49 272h414l94 -958l313 649l-41 309h392l94 -958l463 958h395l-49 -272h-97l-587 -1182h-416l-74 543l-268 -543h-416l-160 1182h-106z" />
<glyph unicode="X" horiz-adv-x="1421" d="M76 2l47 272q29 0 46 2.5t30.5 7.5t23.5 13t27 22l375 406l-256 457h-86l49 272h330l239 -426l393 426h330l-49 -272q-47 0 -72.5 -7.5t-50.5 -35.5l-379 -414l256 -451h86l-47 -272h-336l-237 420l-383 -420h-336z" />
<glyph unicode="Y" horiz-adv-x="1433" d="M233 1182l50 272h413l185 -448l372 448h396l-50 -272h-174l-403 -518l-70 -392h92l-47 -272h-575l47 272h92l68 387l-213 523h-183z" />
<glyph unicode="Z" horiz-adv-x="1458" d="M80 0l51 295l932 885h-461q-25 -8 -33 -25.5t-16 -60.5h-240l64 360h1259l-49 -274l-932 -885h500q25 8 34 24.5t17 61.5h240l-66 -381h-1300z" />
<glyph unicode="[" horiz-adv-x="858" d="M102 -406l398 2255h606l-49 -272h-236l-301 -1710h236l-47 -273h-607z" />
<glyph unicode="\" horiz-adv-x="1054" d="M350 1456h387l205 -1456h-379z" />
<glyph unicode="]" horiz-adv-x="837" d="M0 -406l45 273h236l301 1710h-236l49 272h606l-397 -2255h-604z" />
<glyph unicode="^" horiz-adv-x="1069" d="M193 844l430 645h352l203 -645h-351l-75 387l-213 -387h-346z" />
<glyph unicode="_" horiz-adv-x="1230" d="M-55 -434l49 278h1186l-50 -278h-1185z" />
<glyph unicode="`" horiz-adv-x="636" d="M350 1458h348l74 -258h-289z" />
<glyph unicode="a" horiz-adv-x="1220" d="M148 214q-13 46 -13 107q0 66 15 148l36 209q27 147 89.5 239.5t140.5 143.5t163 69.5t156 18.5q98 0 166 -8t125 -27.5t113.5 -49.5t130.5 -73l-109 -631q-6 -25 -6 -46q0 -16 4 -30q8 -30 58 -30q12 0 25 1t20 5l-27 -219l-51 -21q-47 -20 -101 -20q-72 0 -117.5 9 t-86.5 40l-39 -18q-31 -14 -71 -24.5t-84 -17.5t-90 -10.5t-87 -3.5q-72 0 -146.5 17.5t-131 71t-82.5 150.5zM510 408q-1 -17 -1 -32q0 -38 7 -62q10 -34 38 -45t73 -11q47 0 87 13.5t68 29.5l95 537l-41 10q-18 4 -41 8t-47 4q-43 0 -76 -10t-58.5 -41t-46 -88t-37.5 -154 q-16 -99 -20 -159z" />
<glyph unicode="b" horiz-adv-x="1269" d="M137 23q16 18 39 72.5t43 160.5l184 1049h-90l47 272h461l-80 -459q4 4 25.5 9.5t53.5 10.5t70 8t75 3q72 0 146.5 -19.5t129.5 -72.5t81 -147q13 -46 13 -104q0 -61 -14 -136l-35 -201q-29 -158 -89 -255t-136 -150.5t-159 -71t-154 -17.5q-72 0 -146 11.5t-133 29.5 q-23 -23 -53.5 -41t-57.5 -28zM596 301q20 -16 56 -29.5t83 -13.5q43 0 74 11.5t54.5 45t41 94t33.5 158.5q16 96 16 153.5t-15 87.5t-44 39t-72 9q-70 0 -133 -20z" />
<glyph unicode="c" horiz-adv-x="1052" d="M114 254q-3 23 -2 49q0 58 13 129l45 264q27 150 92.5 239t149.5 136t174 61.5t166 14.5q104 0 166.5 -3t105.5 -9.5t77 -12.5t79 -12l-97 -367h-227l2 78q-10 23 -58 29t-98 6q-23 0 -47 -7t-48.5 -31.5t-46 -72t-36.5 -127.5l-22 -120q-10 -59 -10 -99q0 -17 2 -31 q6 -46 24.5 -67.5t42 -26t41.5 -4.5q113 0 200 11.5t179 35.5l27 -260q-49 -25 -111.5 -40t-125 -22t-121 -10t-99.5 -3q-57 0 -116.5 4t-113 19t-97.5 45t-73 80t-37 124z" />
<glyph unicode="d" horiz-adv-x="1267" d="M148 214q-13 46 -13 107q0 66 15 148l36 209q27 147 84.5 239.5t131 143.5t154.5 69.5t153 18.5q37 0 74.5 -3t67.5 -8t49.5 -10.5t23.5 -9.5l32 187h-88l47 272h459l-213 -1217q-6 -25 -6 -46q0 -16 4 -30q8 -30 58 -30q12 0 25 1t20 5l-27 -219l-51 -21 q-47 -20 -101 -20q-72 0 -117.5 9t-86.5 40l-39 -18q-31 -14 -71 -24.5t-84 -17.5t-90 -10.5t-87 -3.5q-72 0 -146.5 17.5t-131 71t-82.5 150.5zM510 408q-1 -17 -1 -32q0 -38 7 -62q10 -34 38 -45t73 -11q47 0 85 13.5t66 29.5l94 535l-36 10q-41 10 -88 10q-43 0 -76 -9 t-58.5 -39t-46 -87t-37.5 -154q-16 -99 -20 -159z" />
<glyph unicode="e" horiz-adv-x="1144" d="M136 265q-7 35 -7 76q0 48 10 103l45 261q27 156 101.5 244.5t167 132.5t190.5 54.5t174 10.5q49 0 102.5 -5t103.5 -21.5t93 -47.5t70.5 -81t37.5 -122q3 -24 2 -52q0 -55 -12 -124q-25 -90 -99.5 -154.5t-176.5 -98t-219 -35.5q-8 0 -16 -1q-108 0 -209 31 q-1 -9 -1 -18q0 -43 17 -72q20 -35 51 -54.5t66 -25.5t57 -6q119 0 198 6t150 10l49 -223q-49 -25 -106 -40t-113.5 -22t-109 -10.5t-93.5 -3.5q-55 0 -120.5 5.5t-130 23t-121 49t-96 83.5t-55.5 127zM524 670q44 -2 102 -8q34 -4 67 -5q22 1 43 3q52 4 90 23t46 69v18 q0 72 -28 96q-32 28 -99 27q-35 0 -67.5 -8t-61 -32t-52 -68t-40.5 -115z" />
<glyph unicode="f" horiz-adv-x="735" d="M23 -344q14 18 37.5 72.5t41.5 160.5l170 961h-104l49 278h105l8 56q16 92 44.5 165.5t78 126t122 80t177.5 27.5h278l-49 -274h-98q-43 0 -74 -7.5t-52.5 -27t-36.5 -54t-28 -92.5h172l-49 -278h-172l-162 -918q-16 -92 -45.5 -155.5t-63.5 -104.5t-69 -62.5t-61 -29.5z " />
<glyph unicode="g" horiz-adv-x="1257" d="M94 -346l125 254q47 -16 86 -25.5t75 -14.5t71.5 -7t76.5 -2q53 0 88 15t57.5 39t35 49.5t18.5 45.5q-6 -4 -27.5 -10t-52.5 -10t-68.5 -7.5t-74.5 -3.5q-72 0 -146.5 18.5t-130 70t-81.5 143.5q-14 46 -14 107q0 60 13 133l37 208q27 158 87.5 255.5t136 150.5 t157.5 70.5t154 17.5q98 0 189 -17.5t153 -56.5q53 31 101 40t120 9q37 0 74 -12t65 -29l-51 -219q-4 0 -17.5 3t-23.5 3q-49 0 -67.5 -30.5t-28.5 -75.5l-121 -690q-29 -166 -97.5 -266.5t-151.5 -154.5t-169 -71.5t-151 -17.5q-147 0 -255 20.5t-192 67.5zM514 405.5 q0 -57.5 15.5 -87t44 -39t71.5 -9.5q37 0 72 5.5t61 15.5l94 534q-23 14 -57.5 28.5t-81.5 14.5q-45 0 -75.5 -11t-53 -45t-40 -94.5t-34.5 -158.5q-16 -96 -16 -153.5z" />
<glyph unicode="h" horiz-adv-x="1275" d="M123 0l229 1305h-90l47 272h461l-78 -444q43 10 88 14t99 4q100 0 166.5 -25.5t108.5 -66.5t63.5 -91t28.5 -100q5 -38 5 -72v-19q-2 -42 -6 -66l-22 -129q-8 -43 -16.5 -93.5t-15.5 -95.5t-9 -77.5t2 -41.5q4 -10 15 -15t24 -5q25 0 43 6l22 8l-26 -231 q-29 -16 -67 -28.5t-79 -12.5q-92 0 -156.5 9t-101.5 42t-45 97q-2 20 -2 43q0 53 12 126l37 201q20 112 26 182q2 24 1 44q-1 38 -7 63q-10 37 -36.5 50t-71.5 13q-23 0 -46.5 -6t-43.5 -14l-43 -19l-145 -827h-371z" />
<glyph unicode="i" horiz-adv-x="643" d="M154 0l149 856h-90l49 272h461l-199 -1128h-370zM326 1403q18 100 89.5 142t164.5 42q45 0 85 -8t65.5 -29.5t36.5 -57.5q6 -19 6 -42q0 -21 -5 -47q-18 -106 -90 -146t-164 -40q-47 0 -86 8t-64.5 28.5t-36.5 57.5q-6 19 -6 44q0 22 5 48z" />
<glyph unicode="j" horiz-adv-x="614" d="M45 -426q14 18 37.5 72.5t42.5 160.5l184 1049h-90l49 272h461l-225 -1278q-16 -92 -46 -155.5t-65 -104.5t-68.5 -62.5t-60.5 -29.5zM332 1403q18 100 90 142t164 42q45 0 85 -8t65.5 -29.5t36.5 -57.5q6 -19 6 -42q0 -22 -5 -47q-18 -106 -90 -146t-164 -40 q-47 0 -86 8t-64.5 28.5t-36.5 57.5q-6 19 -6 44q0 22 5 48z" />
<glyph unicode="k" horiz-adv-x="1427" d="M137 23q16 18 39 72.5t43 160.5l184 1049h-90l47 272h461l-155 -887l454 438h330l-49 -272h-27q-18 -2 -43.5 -11t-62.5 -38l-238 -244l225 -223q72 -72 114 -95.5t65 -27.5l-134 -227q-53 -25 -110 -25q-51 0 -118.5 23.5t-139.5 99.5l-316 330l-20 -119 q-16 -92 -46 -155.5t-63.5 -104.5t-67.5 -62.5t-61 -29.5z" />
<glyph unicode="l" horiz-adv-x="612" d="M154 146q-2 19 -2 41q0 49 12 112l178 1006h-90l47 272h461l-232 -1321q-18 -101 -18 -153v-10q2 -52 14 -70l-245 -76q-27 10 -53.5 32.5t-45 63.5t-26.5 103z" />
<glyph unicode="m" horiz-adv-x="1896" d="M174 0l133 762q2 16 5 35.5t-2 36t-18 27.5t-42 11q-20 0 -28.5 -3t-12.5 -3l24 219q29 16 66 28.5t84 12.5q78 0 127 -11t80 -38q72 35 159 54.5t179 19.5q63 0 128.5 -16.5t121.5 -57.5q70 35 159.5 54.5t180.5 19.5q94 0 156.5 -25.5t101.5 -66.5t58 -91 q20 -50 26 -100q5 -38 4 -71v-20q-2 -42 -6 -66l-37 -201q-6 -43 -13.5 -84t-11.5 -74t-5 -56.5t3 -31.5q4 -10 15.5 -15t23.5 -5q25 0 43 6l22 8l-26 -231q-29 -16 -78 -28.5t-90 -12.5q-92 0 -153.5 9t-93.5 42t-36 97q-1 11 -1 23q0 59 16 146l47 266q18 104 22 163 q1 20 1 36q0 32 -5 52q-8 30 -29.5 38t-58.5 8q-23 -2 -51.5 -8t-44.5 -12l-43 -19l-146 -827h-352l137 778q1 7 1 14q0 30 -22 50q-28 24 -69 24q-23 0 -46 -6t-44 -14l-43 -19l-145 -827h-371z" />
<glyph unicode="n" horiz-adv-x="1275" d="M123 0l133 762q2 16 5 35.5t-2 36t-18.5 27.5t-41.5 11q-20 0 -28.5 -3t-12.5 -3l24 219q29 16 66 28.5t84 12.5q78 0 127 -11t80 -38q88 45 165.5 59.5t174.5 14.5q100 0 166.5 -25.5t108.5 -66.5t63.5 -91t28.5 -100q5 -38 5 -72v-19q-2 -42 -6 -66l-22 -129 q-8 -43 -16.5 -93.5t-15.5 -95.5t-9 -77.5t2 -41.5q4 -10 15 -15t24 -5q25 0 43 6l22 8l-26 -231q-29 -16 -67 -28.5t-79 -12.5q-92 0 -156.5 9t-101.5 42t-45 97q-2 20 -2 43q0 53 12 126l37 201q20 112 26 182q2 24 1 44q-1 38 -7 63q-10 37 -36.5 50t-71.5 13 q-23 0 -46.5 -6t-43.5 -14l-43 -19l-145 -827h-371z" />
<glyph unicode="o" horiz-adv-x="1146" d="M135 416l47 264q27 158 94.5 251t153.5 141t178 62.5t172 14.5q51 0 108.5 -5t112 -22.5t101.5 -49.5t77.5 -84t42.5 -128q4 -29 4 -61q0 -54 -12 -119l-47 -262q-27 -152 -88 -239t-142 -130t-175 -54t-187 -11q-90 0 -180 10t-156.5 52t-98.5 129q-17 48 -17 115 q0 56 12 126zM508 358q4 -47 19.5 -71.5t40 -30.5t53.5 -6q31 0 59.5 6t53 29.5t45 72t36.5 131.5l25 142q10 57 10 99q0 18 -2 32q-6 49 -24.5 74.5t-44 34t-46.5 8.5q-23 0 -49.5 -8.5t-53 -34t-50 -75.5t-37.5 -132l-25 -140q-11 -65 -11 -108q0 -13 1 -23z" />
<glyph unicode="p" horiz-adv-x="1269" d="M98 -434l211 1200q6 25 6 46q0 16 -4 30q-8 30 -57 30q-10 0 -25.5 -3t-19.5 -3l27 219q29 14 68.5 27.5t82.5 13.5q72 0 118 -9t87 -40q78 39 175 56.5t196 17.5q72 0 146.5 -17.5t130.5 -70.5t82 -151q13 -47 13 -110q0 -65 -14 -145l-37 -208q-27 -147 -84 -239.5 t-131 -144t-154.5 -70t-152.5 -18.5q-37 0 -74 3.5t-67.5 7.5t-50 10t-23.5 10l-58 -327zM598 291q20 -10 54 -15.5t71 -5.5q43 0 75.5 9.5t58.5 39t46.5 87t36.5 153.5q16 98 20 159q2 17 2 31q0 39 -8 63q-12 34 -39.5 45t-70.5 11q-47 0 -86 -14t-66 -29z" />
<glyph unicode="q" horiz-adv-x="1284" d="M150 209q-14 46 -14 105q0 60 14 135l36 208q27 158 87.5 255.5t136 150.5t157.5 70.5t154 17.5q104 0 193.5 -20.5t148.5 -53.5q53 31 101 40t120 9q25 -2 49.5 -6t46.5 -14l43 -21l-51 -219q-4 0 -17.5 3t-23.5 3q-49 0 -67.5 -30.5t-28.5 -75.5l-191 -1085l-391 -115 l78 442q-6 -4 -27.5 -10t-52 -10t-68.5 -7.5t-75 -3.5q-72 0 -146.5 18.5t-130 70t-81.5 143.5zM518 402q0 -55 16 -84q15 -29 43.5 -38.5t71.5 -9.5q37 0 72 5.5t61 15.5l95 534q-23 14 -58 28.5t-82 14.5q-45 0 -75.5 -11t-53 -45t-40 -94.5t-33.5 -158.5 q-17 -99 -17 -157z" />
<glyph unicode="r" horiz-adv-x="815" d="M121 0l135 774q-23 -8 -36 -11t-30 -9l33 237q72 57 168 89t195.5 48.5t195 20.5t166.5 4l-53 -303q-137 0 -196.5 -13.5t-63.5 -15.5l-143 -821h-371z" />
<glyph unicode="s" horiz-adv-x="1183" d="M109 37l106 360h270l-10 -57q-2 -8 2 -17.5t19.5 -18.5t45 -15t83.5 -6q59 0 92 4t50 11t21.5 17.5t6.5 20.5t-4.5 21.5t-34 23.5t-80.5 28.5t-144 39.5q-164 41 -238 117q-55 56 -54 150q0 32 6 68q20 117 71.5 190t126 113.5t169 55t202.5 14.5q98 0 199.5 -14.5 t216.5 -36.5l-96 -330h-240l8 58q-10 10 -41 23t-94 13q-82 0 -119 -12q-41 -13 -41 -48q0 -24 50 -52q54 -30 188 -60q66 -16 132 -34.5t116 -54.5t74 -96q14 -35 14 -83q0 -35 -8 -78q-35 -193 -167.5 -284t-373.5 -91q-201 0 -327 21.5t-197 38.5z" />
<glyph unicode="t" horiz-adv-x="874" d="M209 858l49 270h102q18 0 38 15.5t39.5 53.5t39 100.5t35.5 154.5l319 18l-59 -342h211l-49 -270h-217l-86 -493q-4 -18 -6 -39t1 -38.5t14 -28.5t36 -11q23 0 48.5 4t49.5 10l53 14l-14 -249q-12 -4 -42 -12.5t-68.5 -16.5t-84 -14.5t-90.5 -6.5q-72 0 -129 19.5 t-95 57.5t-54 94q-9 32 -10 69q0 29 6 62l102 579h-139z" />
<glyph unicode="u" horiz-adv-x="1290" d="M225 856l49 272h463l-139 -780q-1 -7 -1 -14q1 -32 23 -50q28 -22 68 -22q59 0 83 10.5t48 10.5l148 843h370l-133 -759q-4 -16 -5 -38t2 -41.5t14.5 -32.5t33.5 -13q23 0 45 6l21 8l-29 -231q-29 -16 -72 -28.5t-84 -12.5q-88 0 -140 11t-83 34l-8 -4 q-84 -29 -149.5 -38.5t-155.5 -9.5q-66 0 -139.5 14.5t-130 58.5t-86.5 124q-16 44 -16 104q0 49 11 109l82 469h-90z" />
<glyph unicode="v" horiz-adv-x="1263" d="M193 856l49 272h391l59 -776l334 776h389l-49 -272h-86l-412 -856h-477l-115 856h-83z" />
<glyph unicode="w" horiz-adv-x="1935" d="M201 856l49 272h391l59 -776l263 613l-21 163h358l60 -776l334 776h389l-49 -272h-86l-412 -856h-444l-56 401l-192 -401h-445l-114 856h-84z" />
<glyph unicode="x" horiz-adv-x="1257" d="M45 0l47 272q25 0 44.5 4.5t40 13.5t43 26.5t50.5 45.5l207 199l-196 293h-86l47 272h329l195 -284l295 284h330l-48 -272q-29 0 -63.5 -9t-87.5 -57l-234 -227l197 -289h86l-47 -272h-336l-192 279l-285 -279h-336z" />
<glyph unicode="y" horiz-adv-x="1292" d="M137 -346l125 254q47 -16 86 -25.5t75 -14.5t71.5 -7t76.5 -2q49 0 84 14t57.5 33.5t35 42t18.5 41.5q-41 -8 -82 -10.5t-90 -2.5q-66 0 -139.5 14.5t-130 58.5t-86.5 124q-16 44 -16 104q0 49 11 109l82 469h-90l49 272h463l-139 -780q-1 -7 -1 -14q0 -31 23 -50 q27 -22 68 -22q72 0 131 21l148 843h370l-180 -1032q-31 -172 -99.5 -275.5t-152.5 -159.5t-170 -74.5t-151 -18.5q-147 0 -255 20.5t-192 67.5z" />
<glyph unicode="z" horiz-adv-x="1179" d="M121 0l47 274l600 580h-223q-25 -8 -33 -25.5t-16 -60.5h-240l63 360h979l-49 -274l-598 -580h219q25 8 34 24.5t20 61.5h239l-63 -360h-979z" />
<glyph unicode="{" horiz-adv-x="886" d="M152 573l49 279h233q49 240 108.5 409t131 285.5t153.5 193.5t177 134l161 -164q-49 -45 -100 -145.5t-100.5 -233.5t-90 -288.5t-67.5 -309.5l-4 -24q-29 -154 -42 -311.5t-12 -293t16 -238t48 -147.5l-219 -163q-72 55 -127 131.5t-86 193.5t-32 285t36 407h-233z" />
<glyph unicode="|" horiz-adv-x="655" d="M127 -147l307 1746h371l-307 -1746h-371z" />
<glyph unicode="}" horiz-adv-x="917" d="M-20 -281q47 45 98 147.5t100 238t91 292t71 312.5l4 24q27 156 40 310.5t11 287.5t-18.5 232.5t-46.5 146.5l219 164q72 -57 127 -134t86 -193.5t32 -285.5t-36 -409h233l-49 -279h-233q-51 -240 -111.5 -407.5t-131.5 -284.5t-153 -192.5t-174 -132.5z" />
<glyph unicode="~" horiz-adv-x="1204" d="M215 528l41 236q53 45 93 75.5t76 49t70.5 27t79.5 8.5q84 0 209 -64q43 -23 81 -34t61 -11q18 0 54 6t79 18.5t85 31t70 42.5l-43 -243q-63 -61 -107 -95t-79 -50.5t-66.5 -19.5t-68.5 -3q-29 0 -79 17.5t-103.5 39t-100.5 38.5t-69 17q-18 0 -54 -5t-77 -15t-82 -26.5 t-70 -39.5z" />
<glyph unicode="&#xa1;" horiz-adv-x="907" d="M199 -438l147 835h-90l47 273h461l-195 -1108h-370zM344 969q10 59 37 98t64.5 62.5t83.5 34t98 10.5q51 0 94 -9.5t71.5 -32t41 -62.5t2.5 -101q-20 -111 -99.5 -157t-181.5 -46q-51 0 -94 9t-73 33t-42 62.5t-2 98.5z" />
<glyph unicode="&#xa2;" horiz-adv-x="1081" d="M156.5 245q-11.5 81 11.5 199l45 261q20 106 60 181t90.5 124t109.5 75.5t119 38.5l24 140h371l-20 -125h260l-105 -400h-227l4 78q-4 10 -29.5 21.5t-89.5 11.5h-37q-23 0 -47 -7t-48.5 -31t-47 -71t-37.5 -127l-20 -120q-16 -86 -10 -132.5t23 -68t41 -24.5t42 -3 q113 0 202 11.5t179 35.5l29 -260q-59 -31 -136 -46t-151 -21l-33 -185h-371l35 191q-57 12 -107 39.5t-84 80t-45.5 133.5z" />
<glyph unicode="&#xa3;" horiz-adv-x="1204" d="M45 0q2 4 10 20.5t17.5 36t18.5 38t13 26.5q12 29 26.5 73t27.5 111l137 754l8 45q23 129 94.5 200.5t164.5 107.5t192.5 43t177.5 7h8q70 0 128 -11t116 -30l207 -53l-152 -348l-221 61q16 37 18 52q2 18 -14 28t-43 16.5t-59.5 7.5t-61.5 1q-82 0 -128 -25.5 t-64 -107.5l-45 -254h262l-45 -258h-263l-47 -269h660l-47 -272h-838h-258z" />
<glyph unicode="&#xa4;" horiz-adv-x="1034" d="M143 242l158 135q-12 35 -16 72.5t4 80.5q16 82 63 150l-110 135l164 141l110 -135q76 39 164 39q82 0 147 -37l150 125l110 -137l-147 -125q12 -35 16.5 -75t-4.5 -81q-8 -43 -25.5 -82.5t-41.5 -74.5l100 -123l-162 -141l-102 127q-41 -20 -80 -28.5t-78 -8.5 q-41 0 -79 8t-68 29l-160 -134zM528 530q-8 -41 14.5 -66.5t61.5 -25.5t70 25.5t39 66.5q8 39 -14.5 66t-61.5 27t-70 -27t-39 -66z" />
<glyph unicode="&#xa5;" horiz-adv-x="1425" d="M233 1182l50 274h413l185 -450l372 450h396l-50 -274h-174l-329 -420h176l-39 -217h-232l-22 -131h231l-39 -217h-231l-33 -197h-393l33 197h-244l39 217h244l22 131h-243l38 217h185l-172 420h-183z" />
<glyph unicode="&#xa6;" horiz-adv-x="716" d="M127 -141l127 716h371l-127 -716h-371zM307 883l127 716h371l-127 -716h-371z" />
<glyph unicode="&#xa7;" horiz-adv-x="1275" d="M55 -254l107 360h270l-10 -57l-2 -4q0 -6 4 -15.5t19.5 -17.5t45 -14t82.5 -6q59 0 93 6t50.5 14t21.5 17.5t5 15.5q2 10 -4 21.5t-33.5 23.5t-81 28.5t-143.5 39.5q-164 41 -237.5 116.5t-48.5 219.5q12 74 50 153.5t111 128.5q-49 78 -28 193q20 117 71.5 189.5 t126 113.5t168.5 56t203 15q98 0 199.5 -14t216.5 -37l-97 -329l-237 10l6 47q-8 10 -40 23.5t-95 13.5q-82 0 -119 -12.5t-41 -45.5q-4 -25 51.5 -53t184.5 -63q66 -16 132 -35t116.5 -53.5t75 -94t5.5 -157.5q-35 -188 -159 -283q23 -35 31 -83t-5 -116 q-35 -193 -167 -283.5t-373 -90.5q-201 0 -327 21.5t-198 37.5zM555 524q-2 -8 1 -17t18.5 -17.5t46 -14.5t84.5 -6q59 0 92.5 6t50 14.5t21.5 17.5t5 15q4 14 -3 18.5t-27 20.5q-16 6 -43 12.5t-66 6.5q-78 0 -126 -12.5t-54 -41.5v-2z" />
<glyph unicode="&#xa8;" horiz-adv-x="1026" d="M338 1370q16 80 71.5 114t125.5 34q37 0 66.5 -7.5t49 -24t27.5 -45t0 -71.5q-14 -86 -69.5 -117.5t-125.5 -31.5q-35 0 -64.5 6t-50 23.5t-29.5 46t-1 73.5zM803 1370q16 80 71.5 114t126.5 34q70 0 114 -31t30 -117t-69.5 -117.5t-125.5 -31.5q-35 0 -65.5 6t-51 23.5 t-29.5 46t-1 73.5z" />
<glyph unicode="&#xa9;" horiz-adv-x="1470" d="M240 907q25 135 96.5 254t175.5 208t232 140.5t264 51.5q135 0 244.5 -51.5t183 -140.5t104.5 -208t6 -254t-97.5 -253.5t-177 -208t-232.5 -140.5t-263 -51t-244.5 51t-182.5 140.5t-103.5 208t-5.5 253.5zM414 899q-18 -98 4 -186t76.5 -152.5t135.5 -102.5t179 -38 t192.5 38t171 102.5t129 152.5t70.5 186t-4 186.5t-76.5 153t-135.5 102t-179 37.5t-192.5 -37.5t-171 -102t-129 -153t-70.5 -186.5zM592 677q-14 56 2 150l27 156q18 92 56 144.5t85 78t97 32.5t93 7h33q45 0 186 -31l-43 -174h-106l2 37q-23 37 -88 37q-59 0 -87 -43 t-44 -141l-14 -74q-18 -102 -2 -141t81 -39q66 0 100 10t81 23l24 -107q-57 -23 -113.5 -40t-117.5 -17h-43q-43 0 -87 9t-76 38t-46 85z" />
<glyph unicode="&#xab;" horiz-adv-x="1204" d="M125 428l57 320l611 397l-56 -320l-321 -243l231 -265l-57 -319zM657 428l58 320l610 397l-55 -320l-322 -243l232 -265l-58 -319z" />
<glyph unicode="&#xad;" horiz-adv-x="985" d="M233 444l50 279h688l-49 -279h-689z" />
<glyph unicode="&#xae;" horiz-adv-x="1470" d="M240 907q25 135 96.5 254t175.5 208t232 140.5t264 51.5q135 0 244.5 -51.5t183 -140.5t104.5 -208t6 -254t-97.5 -253.5t-177 -208t-232.5 -140.5t-263 -51t-244.5 51t-182.5 140.5t-103.5 208t-5.5 253.5zM414 899q-18 -98 4 -186t76.5 -152.5t135.5 -102.5t179 -38 t192.5 38t171 102.5t129 152.5t70.5 186t-4 186.5t-76.5 153t-135.5 102t-179 37.5t-192.5 -37.5t-171 -102t-129 -153t-70.5 -186.5zM567 567l123 699h258q45 0 95.5 -6.5t90.5 -27t62.5 -57t9.5 -100.5l-14 -78q-12 -70 -59.5 -107.5t-106.5 -53.5l66 -109 q16 -27 29.5 -40t23.5 -23l26 -11l-88 -96q-20 -4 -24 -4q-23 0 -58.5 15.5t-70.5 74.5l-96 176h-43l-46 -252h-178zM811 938h92q31 0 67 23.5t44 70.5q10 47 -11.5 75t-62.5 28h-94z" />
<glyph unicode="&#xaf;" horiz-adv-x="1091" d="M389 1231l41 223h746l-41 -223h-746z" />
<glyph unicode="&#xb0;" horiz-adv-x="897" d="M338 1122l10 62q27 141 118 216t239 75q150 0 219 -75t43 -216l-11 -60q-25 -141 -116.5 -219t-245.5 -78q-143 0 -213 73t-43 222zM483 1124q-25 -152 135 -151q72 0 125.5 40t67.5 115l10 62q10 63 -28.5 105t-108.5 42t-123 -41t-67 -116z" />
<glyph unicode="&#xb1;" horiz-adv-x="1007" d="M70 0l47 279h866l-47 -279h-866zM201 743l47 279h270l41 231l313 82l-55 -313h297l-47 -279h-297l-45 -254l-313 -81l59 335h-270z" />
<glyph unicode="&#xb2;" horiz-adv-x="772" d="M179 657l29 167l373 307q36 27 64.5 61.5t34.5 63.5q5 25 -15 47t-68 22q-16 0 -36 -1.5t-38.5 -5t-31.5 -9.5t-15 -15t5 -34l-136 -53l-45 188q39 15 80.5 31t83 28t81 20t73.5 8q45 0 99.5 -4t100.5 -24t72 -60.5t13 -113.5l-7 -39q-5 -28 -25 -60.5t-46 -52.5 l-390 -304h247q15 4 20 13.5t9 34.5h135l-36 -215h-631z" />
<glyph unicode="&#xb3;" horiz-adv-x="731" d="M163 720l74 125q25 -9 44.5 -17t41 -13.5t47.5 -9t64 -3.5q20 0 44 3t47.5 13.5t41 32t23.5 57.5q2 13 2 32t-9 35t-29.5 28t-57.5 12h-46l-9 137h72q17 1 33.5 4.5t30.5 12t25 23.5t15 40q9 51 -10.5 67.5t-66.5 16.5q-47 -1 -72.5 -5t-29.5 -25q-2 -14 1 -29l-134 -33 l-16 191l128 32q33 9 72 15t75 6q30 0 63.5 -2t67 -8t62.5 -18t49 -34t29 -55.5t1 -80.5l-9 -46q-5 -37 -35.5 -66.5t-74.5 -52.5q25 -14 44 -31.5t31.5 -40t16.5 -50t-2 -60.5l-8 -48q-9 -53 -44.5 -95t-87.5 -70.5t-118.5 -43.5t-139.5 -15q-71 0 -130.5 20.5t-115.5 48.5 z" />
<glyph unicode="&#xb4;" horiz-adv-x="636" d="M350 1200l166 258h344l-221 -258h-289z" />
<glyph unicode="&#xb5;" horiz-adv-x="1306" d="M12 -426q14 18 38 72.5t42 160.5l234 1321h370l-139 -780q-6 -41 21.5 -63.5t68.5 -22.5q35 0 71 10.5t60 10.5l148 843h370l-133 -759q-4 -16 -5 -38t2 -41.5t14.5 -32.5t33.5 -13q23 0 45 6l21 8l-29 -231q-29 -16 -72 -28.5t-83 -12.5q-88 0 -140.5 11t-83.5 34l-8 -4 q-84 -29 -149.5 -38.5t-155.5 -9.5h-28.5t-30.5 3l-23 -130q-16 -92 -46 -155.5t-64.5 -104.5t-68.5 -62.5t-61 -29.5z" />
<glyph unicode="&#xb6;" horiz-adv-x="1576" d="M286.5 793.5q-18.5 80.5 4.5 203.5q20 123 65 209t120 141.5t186.5 81t265.5 25.5h788l-37 -205h-188l-219 -1249h-205l219 1249h-188l-219 -1249h-205l102 582q-147 0 -249.5 18t-162 65.5t-78 128z" />
<glyph unicode="&#xb7;" horiz-adv-x="655" d="M170 520q20 111 100 157t183 46q51 0 94 -9t71.5 -33t41 -62.5t2.5 -98.5q-20 -117 -99.5 -161t-181.5 -44q-51 0 -94 9.5t-73 32t-42 62.5t-2 101z" />
<glyph unicode="&#xb8;" horiz-adv-x="524" d="M-119 -397l301 424h244l-213 -424h-332z" />
<glyph unicode="&#xb9;" horiz-adv-x="468" d="M221 672l27 147h49l84 471q-4 10 -12.5 13.5t-30.5 3.5h-33l27 145h270l-113 -633h48l-27 -147h-289z" />
<glyph unicode="&#xba;" horiz-adv-x="692" d="M215 989l29 168q18 100 58 156.5t91 83t105.5 32t97.5 5.5h10q43 0 93.5 -8.5t89 -39t58 -90t1.5 -159.5l-29 -166q-20 -98 -60 -153.5t-87 -83t-98.5 -35t-96.5 -7.5h-18q-43 0 -93.5 9.5t-89 40t-59 89t-2.5 158.5zM462 949.5q1 -25.5 8 -35t18.5 -8.5t23.5 1 q8 0 15.5 3t13.5 13.5t12 33t12 63.5l15 80q8 47 9 72.5t-2 37t-11.5 13.5t-16.5 2q-10 0 -20.5 -2t-19.5 -12.5t-17 -34t-17 -66.5l-14 -80q-10 -55 -9 -80.5z" />
<glyph unicode="&#xbb;" horiz-adv-x="1185" d="M49 -2l57 319l326 265l-235 243l55 320l471 -397l-57 -320zM582 -2l57 319l326 265l-236 243l55 320l471 -397l-57 -320z" />
<glyph unicode="&#xbc;" horiz-adv-x="1394" d="M119 0l1085 1456h203l-1090 -1456h-198zM221 672l27 147h49l84 471q-4 10 -12.5 13.5t-30.5 3.5h-33l27 145h270l-113 -633h48l-27 -147h-289zM653 109l29 159l418 553h213l-418 -553h176l2 17q12 63 11 94t-5 41l125 45q25 -10 45.5 -55t3.5 -142h76l-29 -159h-75 l-31 -179l-174 47l22 132h-389z" />
<glyph unicode="&#xbd;" horiz-adv-x="1429" d="M78 0l1085 1456h203l-1090 -1456h-198zM221 672l27 147h49l84 471q-4 10 -12.5 13.5t-30.5 3.5h-33l27 145h270l-113 -633h48l-27 -147h-289zM774 4l29 166l373 307q35 29 64.5 62.5t33.5 62.5q4 27 -15.5 48.5t-68.5 21.5q-14 0 -34.5 -1t-39 -5t-32 -10.5t-13.5 -14.5 q-2 -10 4 -33l-137 -53l-45 186q78 31 165 59.5t154 28.5q45 0 99.5 -4t99.5 -24.5t71.5 -60.5t14.5 -113l-6 -39q-6 -29 -25.5 -60.5t-46.5 -52.5l-391 -305h248q14 4 19 14.5t10 34.5h135l-37 -215h-629z" />
<glyph unicode="&#xbe;" horiz-adv-x="1521" d="M197 731l73 125q25 -8 45.5 -15t41 -13.5t47 -9.5t63.5 -3q20 0 45 3t47.5 13.5t39.5 31t24 57.5q2 14 2 32.5t-9.5 35t-30 27.5t-57.5 11h-45l-10 137h72q35 4 65.5 17.5t40.5 62.5q8 53 -11 68.5t-67 15.5q-47 0 -72.5 -4t-29.5 -25v-13t2 -15l-135 -35l-16 192l129 33 q33 8 71.5 13.5t75.5 5.5q43 0 96.5 -4.5t96.5 -23.5t67.5 -59t11.5 -110l-10 -47q-6 -37 -35.5 -65.5t-74.5 -53.5q49 -27 75.5 -71t14.5 -111l-9 -47q-10 -53 -43.5 -95t-86 -71t-119 -43t-140.5 -14q-72 0 -131 19t-114 48zM293 0l1085 1456h203l-1089 -1456h-199z M827 109l29 159l418 553h213l-418 -553h176l2 17q12 63 11 94t-5 41l125 45q25 -10 45.5 -55t3.5 -142h76l-28 -159h-76l-31 -179l-174 47l23 132h-390z" />
<glyph unicode="&#xbf;" horiz-adv-x="1204" d="M106 133l3 8q4 25 15 58.5t29.5 68.5t46 68t62.5 55q61 37 114.5 67.5t93.5 61.5t65.5 67t33.5 85l13 63h370l-26 -147q-12 -72 -27.5 -113t-56.5 -76q-80 -68 -140.5 -107.5t-101.5 -67t-65.5 -53.5t-30.5 -65q-8 -45 17.5 -69.5t111.5 -24.5q37 4 67.5 10.5t55.5 12.5 v4q33 6 37 24q2 18 -11 68l242 78l74 -354l-158 -56q-76 -37 -159 -60.5t-210 -23.5q-80 0 -171 16.5t-163.5 62.5t-112.5 128t-18 211zM569 1024q20 117 99.5 161t181.5 44q51 0 94 -9.5t73 -32t42 -62.5t2 -101q-20 -111 -100 -157t-183 -46q-51 0 -94 9.5t-71.5 33 t-41 62.5t-2.5 98z" />
<glyph unicode="&#xc0;" horiz-adv-x="1447" d="M41 0l47 272h94l590 1182h428l160 -1182h94l-47 -272h-395l-45 272h-396l-137 -272h-393zM686 1784h348l74 -258h-289zM707 555h233l-37 401z" />
<glyph unicode="&#xc1;" horiz-adv-x="1447" d="M41 0l47 272h94l590 1182h428l160 -1182h94l-47 -272h-395l-45 272h-396l-137 -272h-393zM707 555h233l-37 401zM858 1526l166 258h344l-221 -258h-289z" />
<glyph unicode="&#xc2;" horiz-adv-x="1447" d="M41 0l47 272h94l590 1182h428l160 -1182h94l-47 -272h-395l-45 272h-396l-137 -272h-393zM577 1545l357 319h231l246 -319h-283l-100 178l-168 -178h-283zM707 555h233l-37 401z" />
<glyph unicode="&#xc3;" horiz-adv-x="1447" d="M41 0l47 272h94l590 1182h428l160 -1182h94l-47 -272h-395l-45 272h-396l-137 -272h-393zM688 1758q150 127 250 127q31 0 64.5 -14.5t67 -32t63.5 -32t52 -14.5q47 0 136 76l45 -182q-152 -129 -250 -129q-31 0 -67 14.5t-70.5 31.5t-64.5 31.5t-46 14.5q-49 0 -137 -74 zM707 555h233l-37 401z" />
<glyph unicode="&#xc4;" horiz-adv-x="1447" d="M41 0l47 272h94l590 1182h428l160 -1182h94l-47 -272h-395l-45 272h-396l-137 -272h-393zM617 1696q16 80 71.5 114t125.5 34q37 0 66.5 -7.5t49 -24t27.5 -45t0 -71.5q-14 -86 -69.5 -117.5t-125.5 -31.5q-35 0 -64.5 6t-50 23.5t-29.5 46t-1 73.5zM707 555h233l-37 401 zM1082 1696q16 80 71.5 114t126.5 34q70 0 114 -31t30 -117t-69.5 -117.5t-125.5 -31.5q-35 0 -65.5 6t-51 23.5t-29.5 46t-1 73.5z" />
<glyph unicode="&#xc5;" horiz-adv-x="1447" d="M41 0l47 272h94l590 1182h428l160 -1182h94l-47 -272h-395l-45 272h-396l-137 -272h-393zM707 555h233l-37 401zM773 1786q10 55 38.5 100.5t69.5 78t92 50t107 17.5q55 0 100 -17.5t76 -50t44 -77.5t3 -101q-10 -55 -39 -100t-70 -77t-93 -49t-107 -17q-111 0 -175 66 t-46 177zM916 1786q-10 -51 21.5 -75.5t82.5 -24.5t90 24.5t50 75.5q10 51 -22 77t-83 26t-90 -26t-49 -77z" />
<glyph unicode="&#xc6;" horiz-adv-x="1927" d="M41 0l47 272h94l590 1182h1286l-49 -272h-778l39 -312h502l-50 -278h-419l40 -320h506l-47 -272h-852l-14 272h-365l-137 -272h-393zM707 555h213l-17 401z" />
<glyph unicode="&#xc7;" horiz-adv-x="1275" d="M193.5 260q-33.5 119 3.5 322l57 331q33 190 112.5 302t181 169.5t211 74t204.5 16.5q135 0 260 -17.5t211 -46.5l-93 -375h-227l2 78q-16 31 -56 56.5t-128 25.5q-66 0 -112 -24.5t-78.5 -73.5t-54 -124t-40.5 -175l-26 -156q-18 -109 -21.5 -182.5t15 -118.5 t60.5 -64.5t113 -19.5q70 0 119 5t91 14.5t83 22.5t93 30l53 -228q-121 -51 -241 -88t-249 -37q-123 0 -236.5 18.5t-193.5 82t-113.5 182.5zM332 -397l301 424h244l-213 -424h-332z" />
<glyph unicode="&#xc8;" horiz-adv-x="1243" d="M172 0l207 1182h-94l49 272h1052l-49 -272h-567l-55 -312h385l-49 -278h-385l-56 -320h568l-48 -272h-958zM700 1784h348l74 -258h-289z" />
<glyph unicode="&#xc9;" horiz-adv-x="1243" d="M172 0l207 1182h-94l49 272h1052l-49 -272h-567l-55 -312h385l-49 -278h-385l-56 -320h568l-48 -272h-958zM657 1526l166 258h344l-221 -258h-289z" />
<glyph unicode="&#xca;" horiz-adv-x="1243" d="M172 0l207 1182h-94l49 272h1052l-49 -272h-567l-55 -312h385l-49 -278h-385l-56 -320h568l-48 -272h-958zM475 1545l357 319h231l246 -319h-283l-100 178l-168 -178h-283z" />
<glyph unicode="&#xcb;" horiz-adv-x="1243" d="M172 0l207 1182h-94l49 272h1052l-49 -272h-567l-55 -312h385l-49 -278h-385l-56 -320h568l-48 -272h-958zM514 1696q16 80 71.5 114t125.5 34q37 0 66.5 -7.5t49 -24t27.5 -45t0 -71.5q-14 -86 -69.5 -117.5t-125.5 -31.5q-35 0 -64.5 6t-50 23.5t-29.5 46t-1 73.5z M979 1696q16 80 71.5 114t126.5 34q70 0 114 -31t30 -117t-69.5 -117.5t-125.5 -31.5q-35 0 -65.5 6t-51 23.5t-29.5 46t-1 73.5z" />
<glyph unicode="&#xcc;" horiz-adv-x="706" d="M78 0l47 272h92l160 910h-92l49 272h575l-49 -272h-90l-160 -910h90l-47 -272h-575zM434 1784h348l74 -258h-289z" />
<glyph unicode="&#xcd;" horiz-adv-x="706" d="M78 0l47 272h92l160 910h-92l49 272h575l-49 -272h-90l-160 -910h90l-47 -272h-575zM469 1526l166 258h344l-221 -258h-289z" />
<glyph unicode="&#xce;" horiz-adv-x="706" d="M78 0l47 272h92l160 910h-92l49 272h575l-49 -272h-90l-160 -910h90l-47 -272h-575zM209 1545l357 319h231l246 -319h-283l-100 178l-168 -178h-283z" />
<glyph unicode="&#xcf;" horiz-adv-x="706" d="M78 0l47 272h92l160 910h-92l49 272h575l-49 -272h-90l-160 -910h90l-47 -272h-575zM250 1696q16 80 71.5 114t125.5 34q37 0 66.5 -7.5t49 -24t27.5 -45t0 -71.5q-14 -86 -69.5 -117.5t-125.5 -31.5q-35 0 -64.5 6t-50 23.5t-29.5 46t-1 73.5zM715 1696q16 80 71.5 114 t126.5 34q70 0 114 -31t30 -117t-69.5 -117.5t-125.5 -31.5q-35 0 -65.5 6t-51 23.5t-29.5 46t-1 73.5z" />
<glyph unicode="&#xd0;" horiz-adv-x="1392" d="M160 602l47 258h639l-47 -258h-639zM170 0l207 1182h-92l49 272h637q61 0 128.5 -3t131 -20.5t118 -53.5t88 -100.5t43 -163.5t-15.5 -243l-53 -311q-29 -131 -75 -223t-103 -154.5t-124 -98.5t-136.5 -54.5t-137 -23.5t-126.5 -5h-539zM590 272h151q2 0 4 2h5 q33 0 72.5 9.5t78.5 45.5t74 107.5t59 194.5l33 186q20 121 16 193.5t-24.5 110.5t-52 50.5t-62.5 12.5h-2q-2 -2 -6 -2h-186z" />
<glyph unicode="&#xd1;" horiz-adv-x="1572" d="M170 0l207 1182h-92l49 272h485l330 -874l106 602h-92l49 272h576l-49 -272h-90l-160 -910h90l-47 -272h-481l-334 879l-154 -879h-393zM750 1758q150 127 250 127q31 0 64.5 -14.5t67 -32t63.5 -32t52 -14.5q47 0 136 76l45 -182q-152 -129 -250 -129q-31 0 -67 14.5 t-70.5 31.5t-64.5 31.5t-46 14.5q-49 0 -137 -74z" />
<glyph unicode="&#xd2;" d="M166 268.5q-31 118.5 4 313.5l57 331q35 195 116 307.5t184.5 169t215 71t205.5 14.5q96 0 202.5 -14.5t189.5 -71t125 -169t8 -307.5l-58 -331q-35 -197 -107.5 -316t-171 -183.5t-214 -85t-236.5 -20.5t-229.5 21.5t-184 86.5t-106.5 183.5zM565.5 465 q-4.5 -74 11 -120t54.5 -66.5t104 -20.5q63 0 109.5 20.5t78 66.5t54 120t41.5 178l26 156q18 98 21.5 173t-12 124t-52 74.5t-102.5 25.5t-112 -25.5t-78.5 -74.5t-54 -124t-40.5 -173l-26 -156q-18 -104 -22.5 -178zM661 1784h348l74 -258h-289z" />
<glyph unicode="&#xd3;" d="M166 268.5q-31 118.5 4 313.5l57 331q35 195 116 307.5t184.5 169t215 71t205.5 14.5q96 0 202.5 -14.5t189.5 -71t125 -169t8 -307.5l-58 -331q-35 -197 -107.5 -316t-171 -183.5t-214 -85t-236.5 -20.5t-229.5 21.5t-184 86.5t-106.5 183.5zM565.5 465 q-4.5 -74 11 -120t54.5 -66.5t104 -20.5q63 0 109.5 20.5t78 66.5t54 120t41.5 178l26 156q18 98 21.5 173t-12 124t-52 74.5t-102.5 25.5t-112 -25.5t-78.5 -74.5t-54 -124t-40.5 -173l-26 -156q-18 -104 -22.5 -178zM817 1526l166 258h344l-221 -258h-289z" />
<glyph unicode="&#xd4;" d="M166 268.5q-31 118.5 4 313.5l57 331q35 195 116 307.5t184.5 169t215 71t205.5 14.5q96 0 202.5 -14.5t189.5 -71t125 -169t8 -307.5l-58 -331q-35 -197 -107.5 -316t-171 -183.5t-214 -85t-236.5 -20.5t-229.5 21.5t-184 86.5t-106.5 183.5zM536 1545l357 319h231 l246 -319h-283l-100 178l-168 -178h-283zM565.5 465q-4.5 -74 11 -120t54.5 -66.5t104 -20.5q63 0 109.5 20.5t78 66.5t54 120t41.5 178l26 156q18 98 21.5 173t-12 124t-52 74.5t-102.5 25.5t-112 -25.5t-78.5 -74.5t-54 -124t-40.5 -173l-26 -156q-18 -104 -22.5 -178z " />
<glyph unicode="&#xd5;" d="M166 268.5q-31 118.5 4 313.5l57 331q35 195 116 307.5t184.5 169t215 71t205.5 14.5q96 0 202.5 -14.5t189.5 -71t125 -169t8 -307.5l-58 -331q-35 -197 -107.5 -316t-171 -183.5t-214 -85t-236.5 -20.5t-229.5 21.5t-184 86.5t-106.5 183.5zM565.5 465 q-4.5 -74 11 -120t54.5 -66.5t104 -20.5q63 0 109.5 20.5t78 66.5t54 120t41.5 178l26 156q18 98 21.5 173t-12 124t-52 74.5t-102.5 25.5t-112 -25.5t-78.5 -74.5t-54 -124t-40.5 -173l-26 -156q-18 -104 -22.5 -178zM647 1758q150 127 250 127q31 0 64.5 -14.5t67 -32 t63.5 -32t52 -14.5q47 0 136 76l45 -182q-152 -129 -250 -129q-31 0 -67 14.5t-70.5 31.5t-64.5 31.5t-46 14.5q-49 0 -137 -74z" />
<glyph unicode="&#xd6;" d="M166 268.5q-31 118.5 4 313.5l57 331q35 195 116 307.5t184.5 169t215 71t205.5 14.5q96 0 202.5 -14.5t189.5 -71t125 -169t8 -307.5l-58 -331q-35 -197 -107.5 -316t-171 -183.5t-214 -85t-236.5 -20.5t-229.5 21.5t-184 86.5t-106.5 183.5zM565.5 465 q-4.5 -74 11 -120t54.5 -66.5t104 -20.5q63 0 109.5 20.5t78 66.5t54 120t41.5 178l26 156q18 98 21.5 173t-12 124t-52 74.5t-102.5 25.5t-112 -25.5t-78.5 -74.5t-54 -124t-40.5 -173l-26 -156q-18 -104 -22.5 -178zM578 1696q16 80 71.5 114t125.5 34q37 0 66.5 -7.5 t49 -24t27.5 -45t0 -71.5q-14 -86 -69.5 -117.5t-125.5 -31.5q-35 0 -64.5 6t-50 23.5t-29.5 46t-1 73.5zM1043 1696q16 80 71.5 114t126.5 34q70 0 114 -31t30 -117t-69.5 -117.5t-125.5 -31.5q-35 0 -65.5 6t-51 23.5t-29.5 46t-1 73.5z" />
<glyph unicode="&#xd7;" horiz-adv-x="1191" d="M176 319l293 259l-201 262l287 245l199 -256l290 256l201 -245l-297 -262l205 -259l-293 -243l-194 250l-283 -250z" />
<glyph unicode="&#xd8;" d="M162 -197l121 263q-76 59 -111 180t2 329l59 334q27 135 74 228.5t106.5 156t127 97t137.5 52t137.5 21.5t126.5 4h14l86 181h388l-123 -248q45 -29 79.5 -72t55 -107.5t22.5 -150.5t-18 -201l-57 -333q-41 -197 -122 -308.5t-180.5 -168t-205 -70t-195.5 -13.5h-61 l-84 -174h-379zM555.5 435q5.5 -73 25 -111.5t51.5 -52t62 -13.5q25 0 31 2h4q33 0 73 8t78 42t72.5 104.5t59.5 193.5l37 209q23 125 16.5 200t-29 114.5t-55.5 51t-63 11.5h-25h-23q-33 0 -68.5 -11.5t-70.5 -48t-66.5 -105t-54.5 -185.5l-37 -215q-23 -121 -17.5 -194z " />
<glyph unicode="&#xd9;" horiz-adv-x="1421" d="M181.5 316.5q-13.5 91.5 8.5 220.5l162 919h389l-147 -838q-23 -125 -13.5 -196.5t36 -107t63.5 -45t72 -9.5t74.5 9.5t79.5 45t74 107.5t56 194l148 840h389l-162 -919q-35 -193 -119 -304.5t-187.5 -168t-212 -72t-192.5 -15.5q-55 0 -120.5 6.5t-130 25t-121 55 t-95 99t-52 154zM698 1784h348l74 -258h-289z" />
<glyph unicode="&#xda;" horiz-adv-x="1421" d="M181.5 316.5q-13.5 91.5 8.5 220.5l162 919h389l-147 -838q-23 -125 -13.5 -196.5t36 -107t63.5 -45t72 -9.5t74.5 9.5t79.5 45t74 107.5t56 194l148 840h389l-162 -919q-35 -193 -119 -304.5t-187.5 -168t-212 -72t-192.5 -15.5q-55 0 -120.5 6.5t-130 25t-121 55 t-95 99t-52 154zM850 1526l166 258h344l-221 -258h-289z" />
<glyph unicode="&#xdb;" horiz-adv-x="1421" d="M181.5 316.5q-13.5 91.5 8.5 220.5l162 919h389l-147 -838q-23 -125 -13.5 -196.5t36 -107t63.5 -45t72 -9.5t74.5 9.5t79.5 45t74 107.5t56 194l148 840h389l-162 -919q-35 -193 -119 -304.5t-187.5 -168t-212 -72t-192.5 -15.5q-55 0 -120.5 6.5t-130 25t-121 55 t-95 99t-52 154zM553 1545l357 319h231l246 -319h-283l-100 178l-168 -178h-283z" />
<glyph unicode="&#xdc;" horiz-adv-x="1421" d="M181.5 316.5q-13.5 91.5 8.5 220.5l162 919h389l-147 -838q-23 -125 -13.5 -196.5t36 -107t63.5 -45t72 -9.5t74.5 9.5t79.5 45t74 107.5t56 194l148 840h389l-162 -919q-35 -193 -119 -304.5t-187.5 -168t-212 -72t-192.5 -15.5q-55 0 -120.5 6.5t-130 25t-121 55 t-95 99t-52 154zM594 1696q16 80 71.5 114t125.5 34q37 0 66.5 -7.5t49 -24t27.5 -45t0 -71.5q-14 -86 -69.5 -117.5t-125.5 -31.5q-35 0 -64.5 6t-50 23.5t-29.5 46t-1 73.5zM1059 1696q16 80 71.5 114t126.5 34q70 0 114 -31t30 -117t-69.5 -117.5t-125.5 -31.5 q-35 0 -65.5 6t-51 23.5t-29.5 46t-1 73.5z" />
<glyph unicode="&#xdd;" horiz-adv-x="1433" d="M233 1182l50 272h413l185 -448l372 448h396l-50 -272h-174l-403 -518l-70 -392h92l-47 -272h-575l47 272h92l68 387l-213 523h-183zM817 1526l166 258h344l-221 -258h-289z" />
<glyph unicode="&#xde;" horiz-adv-x="1196" d="M68 -160l335 1913l347 -104q-6 -33 -9.5 -57.5t-7.5 -48t-7 -47t-9 -54.5q53 12 109.5 17t111.5 5q72 0 146.5 -17t131 -70.5t82 -151t-1.5 -254.5l-36 -209q-27 -147 -84.5 -239.5t-131 -143.5t-154.5 -69.5t-153 -18.5q-37 0 -73.5 3t-67.5 7t-50.5 10t-23.5 11 l-55 -322zM573 604q20 -10 54.5 -15t70.5 -5q43 0 76 9t58.5 39t46 87t36.5 153q16 98 20.5 159t-6.5 94.5t-39 45t-71 11.5q-47 0 -86 -14.5t-65 -28.5z" />
<glyph unicode="&#xdf;" horiz-adv-x="1308" d="M-8 -326q14 18 36.5 72.5t43.5 161.5l178 1018q25 143 85 243.5t141 164t176.5 92t189.5 28.5t196.5 -6t181 -40t121.5 -104.5t21 -199.5l-23 -125q-12 -70 -58 -122t-114 -91q39 -29 69 -59.5t49.5 -68.5t24.5 -84t-5 -103l-25 -148q-20 -111 -89 -182.5t-165 -112.5 t-208.5 -56t-219.5 -15l41 233q33 0 75 11.5t81 39t68.5 72.5t41.5 110q4 25 3 65t-15 78t-47 65.5t-92 27.5q-20 -2 -31.5 -2h-22.5l45 250q41 0 77 4t63.5 19.5t47 45t30.5 78.5q16 94 -21 122t-123 28q-45 0 -74.5 -21.5t-48 -53.5t-29 -68.5t-16.5 -67.5l-180 -1022 q-16 -92 -46 -155.5t-63.5 -104.5t-67.5 -62.5t-61 -29.5z" />
<glyph unicode="&#xe0;" horiz-adv-x="1200" d="M147.5 214q-26.5 97 2.5 255l36 209q27 147 89.5 239.5t140.5 143.5t163 69.5t156 18.5q98 0 166 -8t125 -27.5t113.5 -49.5t130.5 -73l-109 -631q-10 -45 -2 -75.5t58 -30.5q12 0 25 1t20 5l-27 -219l-51 -21q-47 -20 -101 -20q-72 0 -117.5 9t-86.5 40l-39 -18 q-31 -14 -71 -24.5t-84 -17.5t-90 -10.5t-87 -3.5q-72 0 -146.5 17.5t-131 71t-83 150.5zM491 1458h348l74 -258h-289zM510 408.5q-4 -60.5 6 -94t38 -45t73 -11.5q47 0 87 13.5t68 29.5l95 537l-41 10q-18 4 -41 8t-47 4q-43 0 -76 -10t-58.5 -41t-46 -88t-37.5 -154 q-16 -98 -20 -158.5z" />
<glyph unicode="&#xe1;" horiz-adv-x="1200" d="M147.5 214q-26.5 97 2.5 255l36 209q27 147 89.5 239.5t140.5 143.5t163 69.5t156 18.5q98 0 166 -8t125 -27.5t113.5 -49.5t130.5 -73l-109 -631q-10 -45 -2 -75.5t58 -30.5q12 0 25 1t20 5l-27 -219l-51 -21q-47 -20 -101 -20q-72 0 -117.5 9t-86.5 40l-39 -18 q-31 -14 -71 -24.5t-84 -17.5t-90 -10.5t-87 -3.5q-72 0 -146.5 17.5t-131 71t-83 150.5zM510 408.5q-4 -60.5 6 -94t38 -45t73 -11.5q47 0 87 13.5t68 29.5l95 537l-41 10q-18 4 -41 8t-47 4q-43 0 -76 -10t-58.5 -41t-46 -88t-37.5 -154q-16 -98 -20 -158.5zM577 1200 l166 258h344l-221 -258h-289z" />
<glyph unicode="&#xe2;" horiz-adv-x="1200" d="M147.5 214q-26.5 97 2.5 255l36 209q27 147 89.5 239.5t140.5 143.5t163 69.5t156 18.5q98 0 166 -8t125 -27.5t113.5 -49.5t130.5 -73l-109 -631q-10 -45 -2 -75.5t58 -30.5q12 0 25 1t20 5l-27 -219l-51 -21q-47 -20 -101 -20q-72 0 -117.5 9t-86.5 40l-39 -18 q-31 -14 -71 -24.5t-84 -17.5t-90 -10.5t-87 -3.5q-72 0 -146.5 17.5t-131 71t-83 150.5zM395 1219l357 319h231l246 -319h-283l-100 178l-168 -178h-283zM510 408.5q-4 -60.5 6 -94t38 -45t73 -11.5q47 0 87 13.5t68 29.5l95 537l-41 10q-18 4 -41 8t-47 4q-43 0 -76 -10 t-58.5 -41t-46 -88t-37.5 -154q-16 -98 -20 -158.5z" />
<glyph unicode="&#xe3;" horiz-adv-x="1200" d="M147.5 214q-26.5 97 2.5 255l36 209q27 147 89.5 239.5t140.5 143.5t163 69.5t156 18.5q98 0 166 -8t125 -27.5t113.5 -49.5t130.5 -73l-109 -631q-10 -45 -2 -75.5t58 -30.5q12 0 25 1t20 5l-27 -219l-51 -21q-47 -20 -101 -20q-72 0 -117.5 9t-86.5 40l-39 -18 q-31 -14 -71 -24.5t-84 -17.5t-90 -10.5t-87 -3.5q-72 0 -146.5 17.5t-131 71t-83 150.5zM506 1432q150 127 250 127q31 0 64.5 -14.5t67 -32t63.5 -32t52 -14.5q47 0 136 76l45 -182q-152 -129 -250 -129q-31 0 -67 14.5t-70.5 31.5t-64.5 31.5t-46 14.5q-49 0 -137 -74z M510 408.5q-4 -60.5 6 -94t38 -45t73 -11.5q47 0 87 13.5t68 29.5l95 537l-41 10q-18 4 -41 8t-47 4q-43 0 -76 -10t-58.5 -41t-46 -88t-37.5 -154q-16 -98 -20 -158.5z" />
<glyph unicode="&#xe4;" horiz-adv-x="1200" d="M147.5 214q-26.5 97 2.5 255l36 209q27 147 89.5 239.5t140.5 143.5t163 69.5t156 18.5q98 0 166 -8t125 -27.5t113.5 -49.5t130.5 -73l-109 -631q-10 -45 -2 -75.5t58 -30.5q12 0 25 1t20 5l-27 -219l-51 -21q-47 -20 -101 -20q-72 0 -117.5 9t-86.5 40l-39 -18 q-31 -14 -71 -24.5t-84 -17.5t-90 -10.5t-87 -3.5q-72 0 -146.5 17.5t-131 71t-83 150.5zM436 1370q16 80 71.5 114t125.5 34q37 0 66.5 -7.5t49 -24t27.5 -45t0 -71.5q-14 -86 -69.5 -117.5t-125.5 -31.5q-35 0 -64.5 6t-50 23.5t-29.5 46t-1 73.5zM510 408.5 q-4 -60.5 6 -94t38 -45t73 -11.5q47 0 87 13.5t68 29.5l95 537l-41 10q-18 4 -41 8t-47 4q-43 0 -76 -10t-58.5 -41t-46 -88t-37.5 -154q-16 -98 -20 -158.5zM901 1370q16 80 71.5 114t126.5 34q70 0 114 -31t30 -117t-69.5 -117.5t-125.5 -31.5q-35 0 -65.5 6t-51 23.5 t-29.5 46t-1 73.5z" />
<glyph unicode="&#xe5;" horiz-adv-x="1200" d="M147.5 214q-26.5 97 2.5 255l36 209q27 147 89.5 239.5t140.5 143.5t163 69.5t156 18.5q98 0 166 -8t125 -27.5t113.5 -49.5t130.5 -73l-109 -631q-10 -45 -2 -75.5t58 -30.5q12 0 25 1t20 5l-27 -219l-51 -21q-47 -20 -101 -20q-72 0 -117.5 9t-86.5 40l-39 -18 q-31 -14 -71 -24.5t-84 -17.5t-90 -10.5t-87 -3.5q-72 0 -146.5 17.5t-131 71t-83 150.5zM510 408.5q-4 -60.5 6 -94t38 -45t73 -11.5q47 0 87 13.5t68 29.5l95 537l-41 10q-18 4 -41 8t-47 4q-43 0 -76 -10t-58.5 -41t-46 -88t-37.5 -154q-16 -98 -20 -158.5zM590 1460 q10 55 38.5 100.5t69.5 78t92 50t107 17.5q55 0 100 -17.5t76 -50t44 -77.5t3 -101q-10 -55 -39 -100t-70 -77t-93 -49t-107 -17q-111 0 -175 66t-46 177zM733 1460q-10 -51 21.5 -75.5t82.5 -24.5t90 24.5t50 75.5q10 51 -22 77t-83 26t-90 -26t-49 -77z" />
<glyph unicode="&#xe6;" horiz-adv-x="1802" d="M139 383q20 113 80 183.5t138.5 109.5t167.5 52t167 13q70 0 123 -6q12 68 -8.5 96.5t-118.5 28.5q-51 0 -109.5 -6t-107.5 -14l-117 -19l-28 242q66 31 192.5 65.5t327.5 34.5q86 0 144.5 -21.5t96.5 -56.5q92 41 186.5 51.5t170.5 10.5q74 0 154.5 -12.5t143 -60.5 t93.5 -142t2 -258q-10 -59 -24.5 -114.5t-34.5 -108.5h-654l-6 -41q6 -47 28.5 -77t52.5 -46.5t59.5 -21.5t52.5 -5q119 0 197.5 6t150.5 10l49 -223q-49 -25 -106.5 -40t-113.5 -22t-108.5 -10.5t-93.5 -3.5q-47 0 -102.5 4.5t-110.5 15.5t-106.5 31.5t-94.5 53.5 q-145 -104 -358 -105q-66 0 -140.5 14.5t-135 57.5t-91 123t-8.5 211zM496 379q-6 -35 4 -57.5t30.5 -36t47 -18.5t53.5 -5q29 0 59.5 6t52.5 6l13 72q0 23 3 46.5t7 51.5l10 64q-23 2 -44 5t-44 3q-29 0 -59.5 -5t-57 -20.5t-47 -42t-28.5 -69.5zM1163 670h293 q20 6 27.5 20.5t13.5 48.5q4 86 -27.5 120t-97.5 34q-59 0 -110.5 -25.5t-85.5 -113.5q0 -16 -2.5 -27.5t-4.5 -21.5z" />
<glyph unicode="&#xe7;" horiz-adv-x="1052" d="M114.5 254q-8.5 74 10.5 178l45 264q27 150 92.5 239t149.5 136t174 61.5t166 14.5q104 0 166.5 -3t105.5 -9.5t77 -12.5t79 -12l-97 -367h-227l2 78q-10 23 -58 29t-98 6q-23 0 -47 -7t-48.5 -31.5t-46 -72t-36.5 -127.5l-22 -120q-14 -84 -8 -130t24.5 -67.5t42 -26 t41.5 -4.5q113 0 200 11.5t179 35.5l27 -260q-49 -25 -111.5 -40t-125 -22t-121 -10t-99.5 -3q-57 0 -116.5 4t-113 19t-97.5 45t-72.5 80t-37 124zM139 -397l301 424h244l-213 -424h-332z" />
<glyph unicode="&#xe8;" horiz-adv-x="1144" d="M136.5 265q-15.5 75 2.5 179l45 261q27 156 101.5 244.5t167 132.5t190.5 54.5t174 10.5q49 0 102.5 -5t103.5 -21.5t93 -47.5t70.5 -81t37 -122.5t-9.5 -175.5q-25 -90 -99.5 -154.5t-176.5 -98t-219 -36t-225 30.5q-4 -55 16 -90t51 -54.5t66 -25.5t57 -6q119 0 198 6 t150 10l49 -223q-49 -25 -106 -40t-113.5 -22t-109 -10.5t-93.5 -3.5q-55 0 -120.5 5.5t-130 23t-121 49t-96 83.5t-55 127zM524 670q45 -2 102.5 -8.5t109.5 -2t90 23.5t46 69q4 86 -28.5 113.5t-98.5 27.5q-35 0 -67.5 -8t-61 -32t-52 -68t-40.5 -115zM594 1458h348 l74 -258h-289z" />
<glyph unicode="&#xe9;" horiz-adv-x="1144" d="M136.5 265q-15.5 75 2.5 179l45 261q27 156 101.5 244.5t167 132.5t190.5 54.5t174 10.5q49 0 102.5 -5t103.5 -21.5t93 -47.5t70.5 -81t37 -122.5t-9.5 -175.5q-25 -90 -99.5 -154.5t-176.5 -98t-219 -36t-225 30.5q-4 -55 16 -90t51 -54.5t66 -25.5t57 -6q119 0 198 6 t150 10l49 -223q-49 -25 -106 -40t-113.5 -22t-109 -10.5t-93.5 -3.5q-55 0 -120.5 5.5t-130 23t-121 49t-96 83.5t-55 127zM524 670q45 -2 102.5 -8.5t109.5 -2t90 23.5t46 69q4 86 -28.5 113.5t-98.5 27.5q-35 0 -67.5 -8t-61 -32t-52 -68t-40.5 -115zM643 1200l166 258 h344l-221 -258h-289z" />
<glyph unicode="&#xea;" horiz-adv-x="1144" d="M136.5 265q-15.5 75 2.5 179l45 261q27 156 101.5 244.5t167 132.5t190.5 54.5t174 10.5q49 0 102.5 -5t103.5 -21.5t93 -47.5t70.5 -81t37 -122.5t-9.5 -175.5q-25 -90 -99.5 -154.5t-176.5 -98t-219 -36t-225 30.5q-4 -55 16 -90t51 -54.5t66 -25.5t57 -6q119 0 198 6 t150 10l49 -223q-49 -25 -106 -40t-113.5 -22t-109 -10.5t-93.5 -3.5q-55 0 -120.5 5.5t-130 23t-121 49t-96 83.5t-55 127zM368 1219l357 319h231l246 -319h-283l-100 178l-168 -178h-283zM524 670q45 -2 102.5 -8.5t109.5 -2t90 23.5t46 69q4 86 -28.5 113.5t-98.5 27.5 q-35 0 -67.5 -8t-61 -32t-52 -68t-40.5 -115z" />
<glyph unicode="&#xeb;" horiz-adv-x="1144" d="M136.5 265q-15.5 75 2.5 179l45 261q27 156 101.5 244.5t167 132.5t190.5 54.5t174 10.5q49 0 102.5 -5t103.5 -21.5t93 -47.5t70.5 -81t37 -122.5t-9.5 -175.5q-25 -90 -99.5 -154.5t-176.5 -98t-219 -36t-225 30.5q-4 -55 16 -90t51 -54.5t66 -25.5t57 -6q119 0 198 6 t150 10l49 -223q-49 -25 -106 -40t-113.5 -22t-109 -10.5t-93.5 -3.5q-55 0 -120.5 5.5t-130 23t-121 49t-96 83.5t-55 127zM408 1370q16 80 71.5 114t125.5 34q37 0 66.5 -7.5t49 -24t27.5 -45t0 -71.5q-14 -86 -69.5 -117.5t-125.5 -31.5q-35 0 -64.5 6t-50 23.5t-29.5 46 t-1 73.5zM524 670q45 -2 102.5 -8.5t109.5 -2t90 23.5t46 69q4 86 -28.5 113.5t-98.5 27.5q-35 0 -67.5 -8t-61 -32t-52 -68t-40.5 -115zM873 1370q16 80 71.5 114t126.5 34q70 0 114 -31t30 -117t-69.5 -117.5t-125.5 -31.5q-35 0 -65.5 6t-51 23.5t-29.5 46t-1 73.5z" />
<glyph unicode="&#xec;" horiz-adv-x="641" d="M174 0l150 856h-91l50 272h460l-198 -1128h-371zM291 1458h348l74 -258h-289z" />
<glyph unicode="&#xed;" horiz-adv-x="641" d="M174 0l150 856h-91l50 272h460l-198 -1128h-371zM299 1200l166 258h344l-221 -258h-289z" />
<glyph unicode="&#xee;" horiz-adv-x="641" d="M116 1219l357 319h231l246 -319h-283l-100 178l-168 -178h-283zM174 0l150 856h-91l50 272h460l-198 -1128h-371z" />
<glyph unicode="&#xef;" horiz-adv-x="641" d="M158 1370q16 80 71.5 114t125.5 34q37 0 66.5 -7.5t49 -24t27.5 -45t0 -71.5q-14 -86 -69.5 -117.5t-125.5 -31.5q-35 0 -64.5 6t-50 23.5t-29.5 46t-1 73.5zM174 0l150 856h-91l50 272h460l-198 -1128h-371zM623 1370q16 80 71.5 114t126.5 34q70 0 114 -31t30 -117 t-69.5 -117.5t-125.5 -31.5q-35 0 -65.5 6t-51 23.5t-29.5 46t-1 73.5z" />
<glyph unicode="&#xf0;" horiz-adv-x="1288" d="M133 463q27 147 89.5 249.5t151.5 165t196.5 91t224.5 28.5q66 0 123 -21.5t92 -39.5q4 23 4 76t-8 118l-140 -69l-55 137l162 80q-14 33 -29.5 60.5t-36.5 50.5l226 159q78 -39 139 -118l145 73l58 -137l-132 -66q37 -98 48.5 -206.5t-9.5 -225.5l-47 -274 q-57 -322 -233 -470.5t-488 -148.5q-127 0 -225 31t-162.5 92.5t-89 152.5t-4.5 212zM510 367q10 -41 33.5 -67t56.5 -38t68 -12q33 0 72.5 13t78.5 42t69 73t40 105l37 207q-47 10 -101.5 22.5t-107.5 12.5q-47 0 -87 -20.5t-73 -55.5t-55.5 -82t-30.5 -102q-10 -57 0 -98z " />
<glyph unicode="&#xf1;" horiz-adv-x="1275" d="M123 0l133 762q2 16 5 35.5t-2 36t-18.5 27.5t-41.5 11q-20 0 -28.5 -3t-12.5 -3l24 219q29 16 66 28.5t84 12.5q78 0 127 -11t80 -38q88 45 165.5 59.5t174.5 14.5q100 0 166.5 -25.5t108.5 -66.5t63.5 -91t28.5 -99.5t5 -91.5t-6 -66l-22 -129q-8 -43 -16.5 -93.5 t-15.5 -95.5t-9 -77.5t2 -41.5q4 -10 15 -15t24 -5q25 0 43 6l22 8l-26 -231q-29 -16 -67 -28.5t-79 -12.5q-92 0 -156.5 9t-101.5 42t-45 96.5t10 169.5l37 201q20 113 25.5 182.5t-5 106.5t-37 50t-71.5 13q-23 0 -46.5 -6t-43.5 -14l-43 -19l-145 -827h-371zM527 1432 q150 127 250 127q31 0 64.5 -14.5t67 -32t63.5 -32t52 -14.5q47 0 136 76l45 -182q-152 -129 -250 -129q-31 0 -67 14.5t-70.5 31.5t-64.5 31.5t-46 14.5q-49 0 -137 -74z" />
<glyph unicode="&#xf2;" horiz-adv-x="1146" d="M135 416l47 264q27 158 94.5 251t153.5 141t178 62.5t172 14.5q51 0 108.5 -5t112 -22.5t101.5 -49.5t77.5 -84t42 -128t-7.5 -180l-47 -262q-27 -152 -88 -239t-142 -130t-175 -54t-187 -11q-90 0 -180 10t-156.5 52t-98 129t-5.5 241zM502 1458h348l74 -258h-289z M508 358q4 -47 19.5 -71.5t40 -30.5t53.5 -6q31 0 59.5 6t53 29.5t45 72t36.5 131.5l25 142q14 82 8 131t-24.5 74.5t-44 34t-46.5 8.5q-23 0 -49.5 -8.5t-53 -34t-50 -75.5t-37.5 -132l-25 -140q-14 -84 -10 -131z" />
<glyph unicode="&#xf3;" horiz-adv-x="1146" d="M135 416l47 264q27 158 94.5 251t153.5 141t178 62.5t172 14.5q51 0 108.5 -5t112 -22.5t101.5 -49.5t77.5 -84t42 -128t-7.5 -180l-47 -262q-27 -152 -88 -239t-142 -130t-175 -54t-187 -11q-90 0 -180 10t-156.5 52t-98 129t-5.5 241zM508 358q4 -47 19.5 -71.5 t40 -30.5t53.5 -6q31 0 59.5 6t53 29.5t45 72t36.5 131.5l25 142q14 82 8 131t-24.5 74.5t-44 34t-46.5 8.5q-23 0 -49.5 -8.5t-53 -34t-50 -75.5t-37.5 -132l-25 -140q-14 -84 -10 -131zM657 1200l166 258h344l-221 -258h-289z" />
<glyph unicode="&#xf4;" horiz-adv-x="1146" d="M135 416l47 264q27 158 94.5 251t153.5 141t178 62.5t172 14.5q51 0 108.5 -5t112 -22.5t101.5 -49.5t77.5 -84t42 -128t-7.5 -180l-47 -262q-27 -152 -88 -239t-142 -130t-175 -54t-187 -11q-90 0 -180 10t-156.5 52t-98 129t-5.5 241zM368 1219l357 319h231l246 -319 h-283l-100 178l-168 -178h-283zM508 358q4 -47 19.5 -71.5t40 -30.5t53.5 -6q31 0 59.5 6t53 29.5t45 72t36.5 131.5l25 142q14 82 8 131t-24.5 74.5t-44 34t-46.5 8.5q-23 0 -49.5 -8.5t-53 -34t-50 -75.5t-37.5 -132l-25 -140q-14 -84 -10 -131z" />
<glyph unicode="&#xf5;" horiz-adv-x="1146" d="M135 416l47 264q27 158 94.5 251t153.5 141t178 62.5t172 14.5q51 0 108.5 -5t112 -22.5t101.5 -49.5t77.5 -84t42 -128t-7.5 -180l-47 -262q-27 -152 -88 -239t-142 -130t-175 -54t-187 -11q-90 0 -180 10t-156.5 52t-98 129t-5.5 241zM479 1432q150 127 250 127 q31 0 64.5 -14.5t67 -32t63.5 -32t52 -14.5q47 0 136 76l45 -182q-152 -129 -250 -129q-31 0 -67 14.5t-70.5 31.5t-64.5 31.5t-46 14.5q-49 0 -137 -74zM508 358q4 -47 19.5 -71.5t40 -30.5t53.5 -6q31 0 59.5 6t53 29.5t45 72t36.5 131.5l25 142q14 82 8 131t-24.5 74.5 t-44 34t-46.5 8.5q-23 0 -49.5 -8.5t-53 -34t-50 -75.5t-37.5 -132l-25 -140q-14 -84 -10 -131z" />
<glyph unicode="&#xf6;" horiz-adv-x="1146" d="M135 416l47 264q27 158 94.5 251t153.5 141t178 62.5t172 14.5q51 0 108.5 -5t112 -22.5t101.5 -49.5t77.5 -84t42 -128t-7.5 -180l-47 -262q-27 -152 -88 -239t-142 -130t-175 -54t-187 -11q-90 0 -180 10t-156.5 52t-98 129t-5.5 241zM410 1370q16 80 71.5 114 t125.5 34q37 0 66.5 -7.5t49 -24t27.5 -45t0 -71.5q-14 -86 -69.5 -117.5t-125.5 -31.5q-35 0 -64.5 6t-50 23.5t-29.5 46t-1 73.5zM508 358q4 -47 19.5 -71.5t40 -30.5t53.5 -6q31 0 59.5 6t53 29.5t45 72t36.5 131.5l25 142q14 82 8 131t-24.5 74.5t-44 34t-46.5 8.5 q-23 0 -49.5 -8.5t-53 -34t-50 -75.5t-37.5 -132l-25 -140q-14 -84 -10 -131zM875 1370q16 80 71.5 114t126.5 34q70 0 114 -31t30 -117t-69.5 -117.5t-125.5 -31.5q-35 0 -65.5 6t-51 23.5t-29.5 46t-1 73.5z" />
<glyph unicode="&#xf7;" horiz-adv-x="1013" d="M170 442l49 279h807l-49 -279h-807zM281 172q20 111 100 157t182 46q51 0 94 -9.5t72 -33t41 -62.5t2 -98q-20 -117 -99 -161t-181 -44q-51 0 -94.5 9.5t-73 32t-41.5 62.5t-2 101zM426 993q20 111 99 157t182 46q51 0 94 -9t72.5 -33t42 -62.5t2.5 -98.5 q-10 -59 -37 -98t-65 -62.5t-84 -34t-97 -10.5t-94 9.5t-72 32t-41 62.5t-2 101z" />
<glyph unicode="&#xf8;" horiz-adv-x="1146" d="M133 -174l98 215q-63 45 -90.5 136t0.5 257l47 271q27 154 93.5 241.5t150.5 130.5t174 54.5t166 11.5l66 141h387l-113 -229q66 -49 98.5 -140.5t6.5 -240.5l-48 -256q-31 -152 -91 -240t-140 -132t-171 -56.5t-181 -12.5l-74 -151h-379zM505 352q3 -49 19.5 -73.5 t43 -29.5t57.5 -5q27 0 55.5 9t53 34.5t45 73t32.5 122.5l25 140q14 82 8 131t-22.5 75.5t-41 34.5t-45.5 8q-23 0 -49.5 -6t-54 -30.5t-51 -72.5t-37.5 -132l-25 -142q-16 -88 -13 -137z" />
<glyph unicode="&#xf9;" horiz-adv-x="1290" d="M225 856l49 272h463l-139 -780q-6 -41 21.5 -63.5t68.5 -22.5q59 0 83 10.5t48 10.5l148 843h370l-133 -759q-4 -16 -5 -38t2 -41.5t14.5 -32.5t33.5 -13q23 0 45 6l21 8l-29 -231q-29 -16 -72 -28.5t-84 -12.5q-88 0 -140 11t-83 34l-8 -4q-84 -29 -149.5 -38.5 t-155.5 -9.5q-66 0 -139.5 14.5t-130 58.5t-86 124t-5.5 213l82 469h-90zM590 1458h348l74 -258h-289z" />
<glyph unicode="&#xfa;" horiz-adv-x="1290" d="M225 856l49 272h463l-139 -780q-6 -41 21.5 -63.5t68.5 -22.5q59 0 83 10.5t48 10.5l148 843h370l-133 -759q-4 -16 -5 -38t2 -41.5t14.5 -32.5t33.5 -13q23 0 45 6l21 8l-29 -231q-29 -16 -72 -28.5t-84 -12.5q-88 0 -140 11t-83 34l-8 -4q-84 -29 -149.5 -38.5 t-155.5 -9.5q-66 0 -139.5 14.5t-130 58.5t-86 124t-5.5 213l82 469h-90zM622 1200l166 258h344l-221 -258h-289z" />
<glyph unicode="&#xfb;" horiz-adv-x="1290" d="M225 856l49 272h463l-139 -780q-6 -41 21.5 -63.5t68.5 -22.5q59 0 83 10.5t48 10.5l148 843h370l-133 -759q-4 -16 -5 -38t2 -41.5t14.5 -32.5t33.5 -13q23 0 45 6l21 8l-29 -231q-29 -16 -72 -28.5t-84 -12.5q-88 0 -140 11t-83 34l-8 -4q-84 -29 -149.5 -38.5 t-155.5 -9.5q-66 0 -139.5 14.5t-130 58.5t-86 124t-5.5 213l82 469h-90zM440 1219l357 319h231l246 -319h-283l-100 178l-168 -178h-283z" />
<glyph unicode="&#xfc;" horiz-adv-x="1290" d="M225 856l49 272h463l-139 -780q-6 -41 21.5 -63.5t68.5 -22.5q59 0 83 10.5t48 10.5l148 843h370l-133 -759q-4 -16 -5 -38t2 -41.5t14.5 -32.5t33.5 -13q23 0 45 6l21 8l-29 -231q-29 -16 -72 -28.5t-84 -12.5q-88 0 -140 11t-83 34l-8 -4q-84 -29 -149.5 -38.5 t-155.5 -9.5q-66 0 -139.5 14.5t-130 58.5t-86 124t-5.5 213l82 469h-90zM481 1370q16 80 71.5 114t125.5 34q37 0 66.5 -7.5t49 -24t27.5 -45t0 -71.5q-14 -86 -69.5 -117.5t-125.5 -31.5q-35 0 -64.5 6t-50 23.5t-29.5 46t-1 73.5zM946 1370q16 80 71.5 114t126.5 34 q70 0 114 -31t30 -117t-69.5 -117.5t-125.5 -31.5q-35 0 -65.5 6t-51 23.5t-29.5 46t-1 73.5z" />
<glyph unicode="&#xfd;" horiz-adv-x="1292" d="M137 -346l125 254q47 -16 86 -25.5t75 -14.5t71.5 -7t76.5 -2q49 0 84 14t57.5 33.5t35 42t18.5 41.5q-41 -8 -82 -10.5t-90 -2.5q-66 0 -139.5 14.5t-130 58.5t-86 124t-5.5 213l82 469h-90l49 272h463l-139 -780q-6 -41 21.5 -63.5t68.5 -22.5q72 0 131 21l148 843h370 l-180 -1032q-31 -172 -99.5 -275.5t-152.5 -159.5t-170 -74.5t-151 -18.5q-147 0 -255 20.5t-192 67.5zM717 1200l166 258h344l-221 -258h-289z" />
<glyph unicode="&#xfe;" horiz-adv-x="1206" d="M18 -432l347 1956l346 -105q-6 -33 -13.5 -71.5t-13.5 -78.5t-12 -78t-13 -69q53 12 109.5 17.5t112.5 5.5q72 0 147.5 -17.5t132 -70.5t82 -150.5t-1.5 -255.5l-37 -209q-27 -147 -85 -239t-132 -143.5t-154.5 -70t-152.5 -18.5q-76 0 -140.5 10.5t-72.5 20.5l-57 -319z M516 285q23 -10 55.5 -15.5t69.5 -5.5q43 0 76 9.5t58.5 39t46 87t36.5 153.5q18 98 21.5 158.5t-7 94.5t-38 45t-70.5 11q-47 0 -86 -14t-68 -29z" />
<glyph unicode="&#xff;" horiz-adv-x="1292" d="M137 -346l125 254q47 -16 86 -25.5t75 -14.5t71.5 -7t76.5 -2q49 0 84 14t57.5 33.5t35 42t18.5 41.5q-41 -8 -82 -10.5t-90 -2.5q-66 0 -139.5 14.5t-130 58.5t-86 124t-5.5 213l82 469h-90l49 272h463l-139 -780q-6 -41 21.5 -63.5t68.5 -22.5q72 0 131 21l148 843h370 l-180 -1032q-31 -172 -99.5 -275.5t-152.5 -159.5t-170 -74.5t-151 -18.5q-147 0 -255 20.5t-192 67.5zM469 1370q16 80 71.5 114t125.5 34q37 0 66.5 -7.5t49 -24t27.5 -45t0 -71.5q-14 -86 -69.5 -117.5t-125.5 -31.5q-35 0 -64.5 6t-50 23.5t-29.5 46t-1 73.5zM934 1370 q16 80 71.5 114t126.5 34q70 0 114 -31t30 -117t-69.5 -117.5t-125.5 -31.5q-35 0 -65.5 6t-51 23.5t-29.5 46t-1 73.5z" />
<glyph unicode="&#x152;" horiz-adv-x="2152" d="M180 268.5q-31 118.5 4 313.5l57 331q35 195 116 307.5t184.5 169t215 71t205.5 14.5q96 0 202.5 -14.5t189.5 -71t125 -169t8 -307.5l-58 -331q-35 -197 -107.5 -316t-171 -183.5t-214 -85t-236.5 -20.5t-229.5 21.5t-184 86.5t-106.5 183.5zM579.5 465 q-4.5 -74 11 -120t54.5 -66.5t104 -20.5q63 0 109.5 20.5t78 66.5t54 120t41.5 178l26 156q18 98 21.5 173t-12 124t-52 74.5t-102.5 25.5t-112 -25.5t-78.5 -74.5t-54 -124t-40.5 -173l-26 -156q-18 -104 -22.5 -178zM1081 0l207 1182h-94l49 272h1052l-49 -272h-567 l-55 -312h385l-49 -278h-385l-56 -320h568l-48 -272h-958z" />
<glyph unicode="&#x153;" horiz-adv-x="1820" d="M135 416l47 264q27 158 94.5 251t153.5 141t178 62.5t172 14.5q78 0 165 -14.5t159 -63.5q98 51 200.5 63.5t184.5 12.5q74 0 154.5 -12.5t143 -60.5t93.5 -142t2 -258q-10 -59 -24.5 -114.5t-34.5 -108.5h-649l-7 -33l-2 -21q8 -43 31 -70.5t51.5 -42t58 -19.5t50.5 -5 q119 0 197.5 6t150.5 10l49 -223q-49 -25 -106.5 -40t-113.5 -22t-108.5 -10.5t-93.5 -3.5q-43 0 -92 3.5t-98 11.5t-97.5 24.5t-91.5 40.5q-84 -49 -181 -61t-196 -12q-90 0 -180 10t-156.5 52t-98 129t-5.5 241zM508 358q4 -47 19.5 -71.5t40 -30.5t53.5 -6q31 0 59.5 6 t53 29.5t45 72t36.5 131.5l25 142q14 82 8 131t-24.5 74.5t-44 34t-46.5 8.5q-23 0 -49.5 -8.5t-53 -34t-50 -75.5t-37.5 -132l-25 -140q-14 -84 -10 -131zM1212 670h289q20 6 27.5 20.5t13.5 48.5q4 86 -27.5 120t-97.5 34q-59 0 -108 -24.5t-84 -108.5q-2 -18 -4 -38 t-7 -42z" />
<glyph unicode="&#x178;" horiz-adv-x="1433" d="M233 1182l50 272h413l185 -448l372 448h396l-50 -272h-174l-403 -518l-70 -392h92l-47 -272h-575l47 272h92l68 387l-213 523h-183zM610 1696q16 80 71.5 114t125.5 34q37 0 66.5 -7.5t49 -24t27.5 -45t0 -71.5q-14 -86 -69.5 -117.5t-125.5 -31.5q-35 0 -64.5 6 t-50 23.5t-29.5 46t-1 73.5zM1075 1696q16 80 71.5 114t126.5 34q70 0 114 -31t30 -117t-69.5 -117.5t-125.5 -31.5q-35 0 -65.5 6t-51 23.5t-29.5 46t-1 73.5z" />
<glyph unicode="&#x2c6;" horiz-adv-x="940" d="M266 1219l357 319h231l246 -319h-283l-100 178l-168 -178h-283z" />
<glyph unicode="&#x2dc;" horiz-adv-x="960" d="M373 1432q150 127 250 127q31 0 64.5 -14.5t67 -32t63.5 -32t52 -14.5q47 0 136 76l45 -182q-152 -129 -250 -129q-31 0 -67 14.5t-70.5 31.5t-64.5 31.5t-46 14.5q-49 0 -137 -74z" />
<glyph unicode="&#x2000;" horiz-adv-x="1016" />
<glyph unicode="&#x2001;" horiz-adv-x="2032" />
<glyph unicode="&#x2002;" horiz-adv-x="1016" />
<glyph unicode="&#x2003;" horiz-adv-x="2032" />
<glyph unicode="&#x2004;" horiz-adv-x="677" />
<glyph unicode="&#x2005;" horiz-adv-x="508" />
<glyph unicode="&#x2006;" horiz-adv-x="338" />
<glyph unicode="&#x2007;" horiz-adv-x="338" />
<glyph unicode="&#x2008;" horiz-adv-x="254" />
<glyph unicode="&#x2009;" horiz-adv-x="406" />
<glyph unicode="&#x200a;" horiz-adv-x="112" />
<glyph unicode="&#x2010;" horiz-adv-x="985" d="M233 444l50 279h688l-49 -279h-689z" />
<glyph unicode="&#x2011;" horiz-adv-x="985" d="M233 444l50 279h688l-49 -279h-689z" />
<glyph unicode="&#x2012;" horiz-adv-x="985" d="M233 444l50 279h688l-49 -279h-689z" />
<glyph unicode="&#x2013;" horiz-adv-x="1234" d="M242 387l49 279h889l-50 -279h-888z" />
<glyph unicode="&#x2014;" horiz-adv-x="1611" d="M242 387l49 279h1263l-49 -279h-1263z" />
<glyph unicode="&#x2018;" horiz-adv-x="620" d="M325.5 964q-8.5 40 2.5 97l18 110q12 70 47 124.5t81 95.5t96.5 68.5t93.5 43.5l49 -121q-31 -33 -56.5 -62.5t-44.5 -72.5q41 -16 59.5 -60t2.5 -130q-18 -111 -77.5 -157t-131.5 -46q-33 0 -62.5 10t-49 35t-28 65z" />
<glyph unicode="&#x2019;" horiz-adv-x="667" d="M352 975q31 33 56.5 62.5t44.5 72.5q-41 16 -59.5 60t-4.5 130q20 111 79.5 157t131.5 46q33 0 62.5 -10t49 -34.5t28 -64.5t-2.5 -98l-18 -110q-12 -70 -47 -124t-81 -95t-96.5 -69t-93.5 -44z" />
<glyph unicode="&#x201a;" horiz-adv-x="632" d="M150 -143q31 33 56 62.5t44 72.5q-41 16 -60.5 60t-3.5 130q20 111 80 157t131 46q33 0 62.5 -10t49 -35t28 -64.5t-1.5 -97.5l-21 -110q-12 -70 -47 -124.5t-81 -95.5t-96 -68.5t-91 -43.5z" />
<glyph unicode="&#x201c;" horiz-adv-x="1054" d="M346 964q-8 40 2 97l19 110q12 70 47 124.5t81 95.5t96 68.5t93 43.5l49 -121q-31 -33 -56.5 -62.5t-43.5 -72.5q41 -16 59 -60t2 -130q-18 -111 -77.5 -157t-131.5 -46q-33 0 -62.5 10t-49 35t-27.5 65zM756 964q-8 40 2 97l18 110q12 70 47 124.5t81 95.5t96.5 68.5 t93.5 43.5l49 -121q-31 -33 -56.5 -62.5t-44.5 -72.5q41 -16 59.5 -60t2.5 -130q-18 -111 -77.5 -157t-131.5 -46q-33 0 -62.5 10t-49 35t-27.5 65z" />
<glyph unicode="&#x201d;" horiz-adv-x="1007" d="M352 975q31 33 56.5 62.5t44.5 72.5q-41 16 -59.5 60t-4.5 130q20 111 79.5 157t131.5 46q33 0 62.5 -10t49 -34.5t28 -64.5t-2.5 -98l-18 -110q-12 -70 -47 -124t-81 -95t-96.5 -69t-93.5 -44zM762 975q31 33 56.5 62.5t43.5 72.5q-41 16 -59 60t-4 130q20 111 79.5 157 t131.5 46q33 0 62.5 -10t49 -34.5t27.5 -64.5t-2 -98l-19 -110q-12 -70 -46.5 -124t-81 -95t-96.5 -69t-93 -44z" />
<glyph unicode="&#x201e;" horiz-adv-x="1079" d="M160 -143q31 33 56.5 62.5t43.5 72.5q-41 16 -60 60t-3 130q20 111 79.5 157t131.5 46q33 0 62.5 -10t49 -35t27.5 -64.5t-2 -97.5l-21 -110q-12 -70 -47 -124.5t-81 -95.5t-96 -68.5t-91 -43.5zM569 -143q31 33 56.5 62.5t44.5 72.5q-41 16 -60.5 60t-3.5 130 q20 111 79.5 157t131.5 46q33 0 62.5 -10t49 -35t28 -64.5t-2.5 -97.5l-20 -110q-12 -70 -47 -124.5t-81 -95.5t-96.5 -68.5t-91.5 -43.5z" />
<glyph unicode="&#x2022;" horiz-adv-x="675" d="M184 526q20 111 99 157t182 46q51 0 94 -9t71.5 -32.5t42 -62.5t3.5 -99q-23 -117 -101.5 -160.5t-181.5 -43.5q-51 0 -94 9t-71.5 31.5t-41 62.5t-2.5 101z" />
<glyph unicode="&#x2026;" horiz-adv-x="1619" d="M160 69q-10 34 0 87q16 94 80.5 134t150.5 40q41 0 77 -8.5t59.5 -29t32.5 -53t1 -83.5q-8 -49 -29.5 -83t-52 -54.5t-69.5 -29.5t-80 -9t-77 8t-59.5 27.5t-33.5 53.5zM645 156q16 94 83 134t151 40q41 0 76.5 -8.5t59 -29t33 -53t1.5 -83.5q-8 -49 -30 -83t-52.5 -54.5 t-69.5 -29.5t-80 -9t-75.5 8t-59.5 27.5t-36 53.5t-1 87zM1133 69q-10 34 0 87q16 94 82.5 134t150.5 40q41 0 77 -8.5t59.5 -29t32.5 -53t1 -83.5q-8 -49 -29.5 -83t-52.5 -54.5t-69.5 -29.5t-79.5 -9q-43 0 -79 8t-59.5 27.5t-33.5 53.5z" />
<glyph unicode="&#x202f;" horiz-adv-x="406" />
<glyph unicode="&#x2039;" horiz-adv-x="772" d="M190 428l58 320l610 397l-55 -320l-322 -243l232 -265l-58 -319z" />
<glyph unicode="&#x203a;" horiz-adv-x="776" d="M115 -2l57 319l326 265l-236 243l55 320l471 -397l-57 -320z" />
<glyph unicode="&#x205f;" horiz-adv-x="508" />
<glyph unicode="&#x20ac;" horiz-adv-x="1406" d="M129 442l37 217h145l25 132h-146l37 217h152q49 162 130 255t175 140t193.5 59.5t187.5 12.5h72q94 0 196.5 -18.5t184.5 -84.5l-119 -233q-47 14 -73 25.5t-58.5 18.5t-83.5 10t-150 3q-92 0 -144 -45t-87 -143h293l-37 -217h-309l-25 -132h309l-37 -217h-297 q0 -104 43 -144t148 -40q70 0 119 5t91 14.5t83 22.5t92 30l53 -228q-121 -51 -240.5 -88t-248.5 -37h-95q-84 0 -170 14.5t-153.5 63.5t-108.5 141.5t-30 245.5h-154z" />
<glyph unicode="&#x2122;" horiz-adv-x="1880" d="M281 1249l36 205h730l-37 -205h-131l4 21q2 23 -13 28h-110l-90 -518h51l-29 -155h-315l29 155h51l90 518h-111q-14 -6 -18 -28l-4 -21h-133zM987 631l117 669h-51l28 154h336l80 -393l236 393h329l-28 -154h-52l-116 -669h-209l96 545l-203 -361h-188l-70 363l-96 -547 h-209z" />
<glyph unicode="&#x25fc;" horiz-adv-x="1126" d="M0 0v1126h1126v-1126h-1126z" />
<glyph unicode="&#xfb01;" horiz-adv-x="1275" d="M63 -344q14 18 38 72.5t42 160.5l170 961h-104l49 278h104l9 56q16 92 44.5 165.5t78 126t122 80t177.5 27.5h278l-49 -274h-98q-43 0 -74 -7.5t-52.5 -27t-37 -54t-27.5 -92.5h172l-49 -278h-172l-162 -918q-16 -92 -46 -155.5t-63.5 -104.5t-68.5 -62.5t-61 -29.5z M797 0l149 850h-90l49 278h461l-199 -1128h-370z" />
<glyph unicode="&#xfb02;" horiz-adv-x="1333" d="M221 2l150 848h-84l49 278h84l8 56q16 92 45 165.5t78 126t121.5 80t177.5 27.5l661 -2l-233 -1321q-20 -111 -18 -163t16 -70l-248 -76q-25 10 -52.5 32.5t-46 63.5t-24.5 103.5t10 152.5l97 547h-271l-163 -930zM791 1128h270l31 181h-111q-43 0 -73.5 -7.5t-52 -27 t-37 -54t-27.5 -92.5z" />
<glyph unicode="&#xfb03;" horiz-adv-x="1943" d="M63 -344q14 18 38 72.5t42 160.5l170 961h-104l49 278h104l9 56q16 92 44.5 165.5t78 126t122 80t177.5 27.5h278l-49 -274h-98q-43 0 -74 -7.5t-52.5 -27t-37 -54t-27.5 -92.5h172l-49 -278h-172l-162 -918q-16 -92 -46 -155.5t-63.5 -104.5t-68.5 -62.5t-61 -29.5z M705 -344q14 18 37.5 72.5t41.5 160.5l170 961h-104l49 278h105l8 56q16 92 44.5 165.5t78 126t122 80t177.5 27.5h278l-49 -274h-98q-43 0 -74 -7.5t-52.5 -27t-37 -54t-27.5 -92.5h172l-49 -278h-172l-162 -918q-16 -92 -46 -155.5t-63.5 -104.5t-68.5 -62.5t-61 -29.5z M1436 0l149 850h-90l49 278h461l-199 -1128h-370z" />
<glyph unicode="&#xfb04;" horiz-adv-x="1878" d="M15 -344q14 18 37.5 72.5t41.5 160.5l170 961h-104l49 278h105l8 56q16 92 44.5 165.5t78 126t122 80t177.5 27.5h278l-49 -274h-98q-43 0 -74 -7.5t-52.5 -27t-36.5 -54t-28 -92.5h172l-49 -278h-172l-162 -918q-16 -92 -45.5 -155.5t-63.5 -104.5t-69 -62.5t-61 -29.5z M658 -344q14 18 37.5 72.5t41.5 160.5l170 961h-104l49 278h105l8 56q16 92 44.5 165.5t78 126t122 80t177.5 27.5h278l-49 -274h-98q-43 0 -74 -7.5t-52.5 -27t-36.5 -54t-28 -92.5h172l-49 -278h-172l-162 -918q-16 -92 -45.5 -155.5t-63.5 -104.5t-69 -62.5t-61 -29.5z M1467.5 150.5q-7.5 62.5 9.5 152.5l178 1006h-90l47 272h461l-232 -1321q-20 -111 -18 -163t14 -70l-245 -76q-27 10 -53.5 32.5t-45 63.5t-26 103.5z" />
</font>
</defs>
</svg>
